<?xml version="1.0" standalone="no"?>
<!DOCTYPE svg PUBLIC "-//W3C//DTD SVG 1.1//EN" "http://www.w3.org/Graphics/SVG/1.1/DTD/svg11.dtd" >
<svg xmlns="http://www.w3.org/2000/svg" xmlns:xlink="http://www.w3.org/1999/xlink" version="1.1">
<metadata>
Created by FontForge 20150318 at Tue Jun  2 10:56:47 2015
 By uniteet7
Copyright (c) 2003 - 2012 Linotype GmbH, www.linotype.com. All rights reserved. This font software may not be reproduced, modified, disclosed or transferred without the express written approval of Linotype GmbH. Avenir is a trademark of Linotype GmbH registered in the U.S. Patent and Trademark Office and may be registered in certain other jurisdictions. This typeface is original artwork of Adrian Frutiger and Akira Kobayashi. The design may be protected in certain jurisdictions.
</metadata>
<defs>
<font id="AvenirNextW1GDemi" horiz-adv-x="610" >
  <font-face 
    font-family="AvenirNextW1GDemi"
    font-weight="700"
    font-stretch="normal"
    units-per-em="1000"
    panose-1="2 11 7 3 2 2 2 2 2 4"
    ascent="756"
    descent="-244"
    x-height="480"
    cap-height="708"
    bbox="-251 -250 1192 957"
    underline-thickness="50"
    underline-position="125"
    unicode-range="U+000D-FB04"
  />
<missing-glyph horiz-adv-x="512" 
d="M278 117h-56v67h56v-67zM271 234h-46l-2 17q0 56 13 81q15 28 46 59q31 29 40.5 46t9.5 37q0 36 -22.5 60.5t-53.5 24.5q-71 0 -82 -95l-50 8q7 69 43 103t92 34q54 0 89 -36t35 -95q0 -34 -13 -60t-50 -60q-37 -33 -43 -52q-6 -20 -6 -72zM50 50h412v617h-412v-617z
M0 718h512v-718h-512v718z" />
    <glyph glyph-name="napostrophe" unicode="&#x22;n" horiz-adv-x="622" 
d="M112 0v480h114v-77h2q17 38 57.5 64.5t91.5 26.5q88 0 132.5 -56.5t44.5 -137.5v-300h-120v266q0 128 -90 128q-54 0 -83 -38.5t-29 -91.5v-264h-120zM-23 513l65 195h106l-80 -195h-91z" />
    <glyph glyph-name="f_f" unicode="ff" horiz-adv-x="627" 
d="M394 0v384h-183v-384h-120v384h-91v96h91v71q0 97 45 157t149 60q36 0 61 -7l-8 -102q-23 7 -46 7q-81 0 -81 -108v-78h183v71q0 97 45 157t149 60q36 0 61 -7l-8 -102q-23 7 -46 7q-81 0 -81 -108v-78h111v-96h-111v-384h-120z" />
    <glyph glyph-name="fi" unicode="fi" horiz-adv-x="592" 
d="M91 0v384h-91v96h91v71q0 97 45 157t149 60q36 0 61 -7l-8 -102q-23 7 -46 7q-81 0 -81 -108v-78h111v-96h-111v-384h-120zM398 0v480h120v-480h-120zM381 643q0 29 22 50.5t54 21.5q33 0 55.5 -20.5t22.5 -51.5t-22.5 -51.5t-55.5 -20.5q-32 0 -54 21.5t-22 50.5z" />
    <glyph glyph-name="fl" unicode="fl" horiz-adv-x="592" 
d="M91 0v384h-91v96h91v71q0 97 45 157t149 60q36 0 61 -7l-8 -102q-23 7 -46 7q-81 0 -81 -108v-78h111v-96h-111v-384h-120zM398 0v756h120v-756h-120z" />
    <glyph glyph-name="f_f_i" unicode="ffi" horiz-adv-x="895" 
d="M701 0v480h120v-480h-120zM684 643q0 29 22 50.5t54 21.5q33 0 55.5 -20.5t22.5 -51.5t-22.5 -51.5t-55.5 -20.5q-32 0 -54 21.5t-22 50.5zM394 0v384h-183v-384h-120v384h-91v96h91v71q0 97 45 157t149 60q36 0 61 -7l-8 -102q-23 7 -46 7q-81 0 -81 -108v-78h183v71
q0 97 45 157t149 60q36 0 61 -7l-8 -102q-23 7 -46 7q-81 0 -81 -108v-78h111v-96h-111v-384h-120z" />
    <glyph glyph-name="f_f_l" unicode="ffl" horiz-adv-x="895" 
d="M701 0v756h120v-756h-120zM394 0v384h-183v-384h-120v384h-91v96h91v71q0 97 45 157t149 60q36 0 61 -7l-8 -102q-23 7 -46 7q-81 0 -81 -108v-78h183v71q0 97 45 157t149 60q36 0 61 -7l-8 -102q-23 7 -46 7q-81 0 -81 -108v-78h111v-96h-111v-384h-120z" />
    <glyph glyph-name=".notdef" horiz-adv-x="512" 
d="M278 117h-56v67h56v-67zM271 234h-46l-2 17q0 56 13 81q15 28 46 59q31 29 40.5 46t9.5 37q0 36 -22.5 60.5t-53.5 24.5q-71 0 -82 -95l-50 8q7 69 43 103t92 34q54 0 89 -36t35 -95q0 -34 -13 -60t-50 -60q-37 -33 -43 -52q-6 -20 -6 -72zM50 50h412v617h-412v-617z
M0 718h512v-718h-512v718z" />
    <glyph glyph-name=".null" horiz-adv-x="500" 
 />
    <glyph glyph-name=".null" horiz-adv-x="500" 
 />
    <glyph glyph-name="nonmarkingreturn" horiz-adv-x="333" 
 />
    <glyph glyph-name="CR" unicode="&#xd;" horiz-adv-x="0" 
 />
    <glyph glyph-name="space" unicode=" " horiz-adv-x="250" 
 />
    <glyph glyph-name="exclam" unicode="!" horiz-adv-x="340" 
d="M230 708v-486h-120v486h120zM90 70q0 32 23.5 55t56.5 23t56.5 -22t23.5 -54t-23.5 -55t-56.5 -23q-32 0 -56 22t-24 54z" />
    <glyph glyph-name="quotedbl" unicode="&#x22;" horiz-adv-x="459" 
d="M90 444v264h102v-264h-102zM267 444v264h102v-264h-102z" />
    <glyph glyph-name="numbersign" unicode="#" horiz-adv-x="592" 
d="M107 0l30 209h-90v84h101l18 122h-90v84h101l30 209h88l-30 -209h103l30 209h87l-30 -209h90v-84h-102l-17 -122h90v-84h-100l-31 -209h-87l30 209h-104l-30 -209h-87zM356 415h-103l-17 -122h103z" />
    <glyph glyph-name="dollar" unicode="$" 
d="M330 786v-66q128 -2 208 -71l-81 -84q-48 53 -127 53v-202q46 -14 77.5 -28.5t66 -39t52 -61.5t17.5 -85q0 -99 -62 -155t-151 -58v-72h-54v72q-144 5 -235 93l88 84q27 -32 68 -52.5t79 -21.5v222q-102 28 -155.5 73t-53.5 133q0 85 62 138.5t147 59.5v68h54zM276 430
v188q-38 -4 -63.5 -27.5t-25.5 -64.5q0 -70 89 -96zM330 298v-206q42 2 67.5 30.5t25.5 72.5q0 41 -24 64.5t-69 38.5z" />
    <glyph glyph-name="percent" unicode="%" horiz-adv-x="930" 
d="M518 174q0 77 54.5 131.5t131.5 54.5t131.5 -54.5t54.5 -131.5t-54.5 -131.5t-131.5 -54.5t-131.5 54.5t-54.5 131.5zM794 174q0 38 -26 64t-64 26t-64 -26t-26 -64t26 -64t64 -26t64 26t26 64zM40 534q0 77 54.5 131.5t131.5 54.5t131.5 -54.5t54.5 -131.5t-54.5 -131.5
t-131.5 -54.5t-131.5 54.5t-54.5 131.5zM316 534q0 38 -26 64t-64 26t-64 -26t-26 -64t26 -64t64 -26t64 26t26 64zM215 6l416 734l83 -38l-416 -734z" />
    <glyph glyph-name="ampersand" unicode="&#x26;" horiz-adv-x="741" 
d="M712 374l-142 -205l165 -169h-160l-78 81q-81 -95 -212 -95q-99 0 -168 54.5t-69 151.5q0 135 154 201q-76 78 -76 159q0 85 59.5 129.5t140.5 44.5q82 0 139 -44.5t57 -127.5q0 -121 -145 -188l116 -121l82 129h137zM328 629q-35 0 -59 -22.5t-24 -56.5q0 -56 63 -113
q102 43 102 113q0 33 -23.5 56t-58.5 23zM421 159l-151 157q-98 -36 -98 -119q0 -49 36.5 -80t80.5 -31q79 0 132 73z" />
    <glyph glyph-name="quotesingle" unicode="'" horiz-adv-x="282" 
d="M90 444v264h102v-264h-102z" />
    <glyph glyph-name="parenleft" unicode="(" horiz-adv-x="330" 
d="M36 288q0 242 146 444l84 -55q-127 -176 -127 -389t127 -389l-84 -55q-146 202 -146 444z" />
    <glyph glyph-name="parenright" unicode=")" horiz-adv-x="330" 
d="M294 288q0 -242 -146 -444l-84 55q127 176 127 389t-127 389l84 55q146 -202 146 -444z" />
    <glyph glyph-name="asterisk" unicode="*" horiz-adv-x="463" 
d="M274 708v-142l135 44l26 -80l-136 -44l86 -117l-69 -50l-86 118l-84 -115l-67 51l86 113l-137 47l26 80l136 -47v142h84z" />
    <glyph glyph-name="plus" unicode="+" horiz-adv-x="666" 
d="M62 354h220v220h102v-220h220v-102h-220v-220h-102v220h-220v102z" />
    <glyph glyph-name="comma" unicode="," horiz-adv-x="260" 
d="M24 -126l70 264h116l-85 -264h-101z" />
    <glyph glyph-name="hyphen" unicode="-" horiz-adv-x="320" 
d="M280 297v-102h-240v102h240z" />
    <glyph glyph-name="period" unicode="." horiz-adv-x="260" 
d="M50 70q0 32 23.5 55t56.5 23t56.5 -22t23.5 -54t-23.5 -55t-56.5 -23q-32 0 -56 22t-24 54z" />
    <glyph glyph-name="slash" unicode="/" horiz-adv-x="389" 
d="M386 726l-312 -774l-83 30l312 776z" />
    <glyph glyph-name="zero" unicode="0" 
d="M555 354q0 -174 -65 -273t-184 -99q-120 0 -185.5 99t-65.5 273t65.5 273t185.5 99q119 0 184 -99t65 -273zM432 354q0 44 -5 85.5t-17.5 86.5t-39 72.5t-64.5 27.5t-65 -27.5t-40 -72.5t-18 -86.5t-5 -85.5q0 -43 5 -85t18 -86.5t40 -71.5t65 -27t64.5 27t39 72t17.5 86
t5 85z" />
    <glyph glyph-name="one" unicode="1" 
d="M279 0v562l-140 -115l-70 83l221 178h109v-708h-120z" />
    <glyph glyph-name="two" unicode="2" 
d="M69 0v110l273 268q72 70 72 139q0 49 -32 79t-81 30q-50 0 -81.5 -33.5t-38.5 -87.5l-117 18q11 89 77 146t162 57q98 0 167 -55t69 -152q0 -63 -29.5 -112.5t-84.5 -101.5l-204 -195h319v-110h-471z" />
    <glyph glyph-name="three" unicode="3" 
d="M212 321v96h32q151 0 151 107q0 46 -32.5 74t-79.5 28q-43 0 -72.5 -25t-40.5 -66l-113 29q19 72 83 117t148 45q98 0 163 -51t65 -143q0 -57 -35 -101.5t-92 -58.5v-2q65 -13 105.5 -59t40.5 -111q0 -103 -74 -160.5t-173 -57.5q-94 0 -162 41t-95 126l112 35
q13 -44 50 -72t91 -28q53 0 91.5 29t38.5 88q0 43 -28.5 71.5t-65 38.5t-78.5 10h-30z" />
    <glyph glyph-name="four" unicode="4" 
d="M348 0v147h-327v106l301 455h144v-458h99v-103h-99v-147h-118zM348 250v317h-2l-201 -317h203z" />
    <glyph glyph-name="five" unicode="5" 
d="M505 708v-108h-289l-7 -153q33 9 83 9q107 0 175.5 -59.5t68.5 -164.5q0 -114 -74 -182t-184 -68q-87 0 -149 41t-90 114l109 40q15 -42 50.5 -67.5t82.5 -25.5q56 0 94 36.5t38 98.5q0 75 -45.5 108t-112.5 33q-89 0 -165 -39l12 387h403z" />
    <glyph glyph-name="six" unicode="6" 
d="M295 708h146l-181 -262l1 -1q29 12 75 12q94 0 160 -65.5t66 -161.5q0 -111 -73.5 -179.5t-184.5 -68.5t-185 70t-74 173q0 57 17.5 102.5t55.5 106.5zM167 222q0 -57 37.5 -97.5t98.5 -40.5t98.5 38.5t37.5 101.5q0 60 -37 99t-97 39q-61 0 -99.5 -39t-38.5 -101z" />
    <glyph glyph-name="seven" unicode="7" 
d="M51 600v108h481v-110l-283 -598h-141l298 600h-355z" />
    <glyph glyph-name="eight" unicode="8" 
d="M305 726q96 0 160 -52t64 -140q0 -60 -30 -102t-80 -58v-2q57 -14 95 -61t38 -111q0 -102 -70.5 -160t-176.5 -58t-176.5 58t-70.5 160q0 65 38.5 111.5t94.5 60.5v2q-110 40 -110 155q0 88 64.5 142.5t159.5 54.5zM305 627q-45 0 -73.5 -27.5t-28.5 -72.5
q0 -44 28 -73.5t74 -29.5q43 0 73 30t30 73q0 44 -30.5 72t-72.5 28zM305 322q-52 0 -87.5 -34t-35.5 -87q0 -54 34.5 -86t88.5 -32q53 0 87.5 32t34.5 86q0 52 -35.5 86.5t-86.5 34.5z" />
    <glyph glyph-name="nine" unicode="9" 
d="M314 0h-146l182 263l-1 1q-29 -13 -76 -13q-94 0 -160 65.5t-66 161.5q0 111 73.5 179.5t184.5 68.5t185 -70t74 -173q0 -57 -17.5 -102.5t-55.5 -106.5zM442 486q0 58 -38 99t-98 41q-61 0 -98.5 -39.5t-37.5 -102.5q0 -60 37 -99t97 -39q61 0 99.5 39t38.5 101z" />
    <glyph glyph-name="colon" unicode=":" horiz-adv-x="300" 
d="M70 70q0 32 23.5 55t56.5 23t56.5 -22t23.5 -54t-23.5 -55t-56.5 -23q-32 0 -56 22t-24 54zM70 408q0 32 23.5 55t56.5 23t56.5 -22t23.5 -54t-23.5 -55t-56.5 -23q-32 0 -56 22t-24 54z" />
    <glyph glyph-name="semicolon" unicode=";" horiz-adv-x="300" 
d="M40 -126l70 264h122l-85 -264h-107zM70 409q0 32 23.5 55t56.5 23t56.5 -22t23.5 -54t-23.5 -55t-56.5 -23q-32 0 -56 22t-24 54z" />
    <glyph glyph-name="less" unicode="&#x3c;" horiz-adv-x="666" 
d="M586 42l-506 225v72l506 225v-110l-338 -151l338 -151v-110z" />
    <glyph glyph-name="equal" unicode="=" horiz-adv-x="666" 
d="M80 444h506v-102h-506v102zM80 264h506v-102h-506v102z" />
    <glyph glyph-name="greater" unicode="&#x3e;" horiz-adv-x="666" 
d="M80 564l506 -225v-72l-506 -225v110l338 151l-338 151v110z" />
    <glyph glyph-name="question" unicode="?" horiz-adv-x="519" 
d="M328 209h-118v38q0 48 14 79t52 67l45 43q46 42 46 89q0 40 -25.5 66t-68.5 26q-45 0 -72.5 -30.5t-29.5 -73.5l-123 11q11 94 75 148t158 54q91 0 152 -51t61 -142q0 -58 -23 -94t-77 -83q-41 -36 -53.5 -57.5t-12.5 -63.5v-26zM190 70q0 32 23.5 55t56.5 23t56.5 -22
t23.5 -54t-23.5 -55t-56.5 -23q-32 0 -56 22t-24 54z" />
    <glyph glyph-name="at" unicode="@" horiz-adv-x="800" 
d="M412 467q-44 0 -71 -46.5t-27 -100.5q0 -30 14.5 -53.5t49.5 -23.5q50 0 75 43.5t25 92.5q0 88 -66 88zM670 163l55 -60q-114 -121 -311 -121q-171 0 -276.5 103.5t-105.5 267.5q0 159 111.5 266t270.5 107q70 0 132.5 -20.5t112.5 -59t79.5 -101t29.5 -140.5
q0 -115 -58 -180t-140 -65q-39 0 -63.5 19t-24.5 48h-5q-17 -28 -49 -47.5t-73 -19.5q-66 0 -104 44.5t-38 117.5q0 89 55.5 158t140.5 69q37 0 63.5 -15.5t34.5 -39.5h1l8 40h89l-39 -189q-9 -54 -9 -63q0 -40 32 -40q39 0 64.5 42.5t25.5 112.5q0 118 -73.5 183t-193.5 65
q-125 0 -204 -83.5t-79 -209.5q0 -131 82 -209t212 -78q143 0 247 98z" />
    <glyph glyph-name="A" unicode="A" horiz-adv-x="706" 
d="M-8 0l308 708h109l305 -708h-144l-66 162h-307l-64 -162h-141zM240 270h220l-109 288z" />
    <glyph glyph-name="B" unicode="B" horiz-adv-x="647" 
d="M78 0v708h276q90 0 153.5 -44t63.5 -134q0 -58 -33 -98t-90 -57v-2q69 -9 111 -53t42 -114q0 -55 -22.5 -96.5t-61.5 -64.5t-85 -34t-99 -11h-255zM204 604v-184h112q63 0 96 25t33 71q0 47 -34 67.5t-106 20.5h-101zM204 312v-206h113q158 0 158 106q0 54 -37 77
t-116 23h-118z" />
    <glyph glyph-name="C" unicode="C" horiz-adv-x="696" 
d="M685 618l-96 -76q-26 36 -70.5 54.5t-90.5 18.5q-108 0 -176.5 -74t-68.5 -185q0 -116 65.5 -188.5t174.5 -72.5q112 0 172 82l101 -71q-99 -124 -274 -124q-166 0 -272 104.5t-106 269.5q0 167 108.5 268.5t275.5 101.5q74 0 145.5 -27.5t111.5 -80.5z" />
    <glyph glyph-name="D" unicode="D" horiz-adv-x="764" 
d="M78 0v708h251q74 0 140 -18.5t124 -58t92.5 -111t34.5 -166.5q0 -89 -34.5 -159t-92 -111.5t-125 -62.5t-139.5 -21h-251zM204 110h105q41 0 78.5 7t74.5 24.5t63.5 44t43 70t16.5 98.5q0 246 -276 246h-105v-490z" />
    <glyph glyph-name="E" unicode="E" 
d="M78 0v708h469v-110h-343v-180h325v-106h-325v-200h361v-112h-487z" />
    <glyph glyph-name="F" unicode="F" horiz-adv-x="573" 
d="M78 0v708h457v-110h-331v-194h312v-106h-312v-298h-126z" />
    <glyph glyph-name="G" unicode="G" horiz-adv-x="773" 
d="M698 404v-367q-115 -55 -267 -55q-171 0 -279 104t-108 270q0 167 108.5 268.5t275.5 101.5q82 0 153.5 -24t115.5 -65l-87 -94q-28 31 -77 51.5t-104 20.5q-110 0 -178 -74t-68 -185q0 -115 68.5 -188t183.5 -73q81 0 141 25v180h-149v104h271z" />
    <glyph glyph-name="H" unicode="H" horiz-adv-x="739" 
d="M78 0v708h126v-286h331v286h126v-708h-126v314h-331v-314h-126z" />
    <glyph glyph-name="I" unicode="I" horiz-adv-x="282" 
d="M78 0v708h126v-708h-126z" />
    <glyph glyph-name="J" unicode="J" horiz-adv-x="498" 
d="M426 708v-479q0 -34 -5 -65.5t-19.5 -65.5t-37 -59t-61.5 -41t-90 -16q-83 0 -136 42t-72 114l116 33q9 -35 33 -55.5t57 -20.5q51 0 70 35.5t19 102.5v475h126z" />
    <glyph glyph-name="K" unicode="K" horiz-adv-x="689" 
d="M78 0v708h126v-306h3l296 306h170l-331 -327l353 -381h-177l-311 355h-3v-355h-126z" />
    <glyph glyph-name="L" unicode="L" horiz-adv-x="511" 
d="M78 0v708h126v-596h301v-112h-427z" />
    <glyph glyph-name="M" unicode="M" horiz-adv-x="920" 
d="M78 0v708h197l184 -503h3l182 503h198v-708h-125v569h-2l-215 -569h-88l-212 569h-2v-569h-120z" />
    <glyph glyph-name="N" unicode="N" horiz-adv-x="780" 
d="M78 0v708h167l329 -530h2v530h126v-708h-160l-336 547h-2v-547h-126z" />
    <glyph glyph-name="O" unicode="O" horiz-adv-x="849" 
d="M44 356q0 168 106.5 269t272.5 101q168 0 275 -101t107 -269q0 -165 -107.5 -269.5t-274.5 -104.5q-165 0 -272 104.5t-107 269.5zM181 356q0 -114 68 -187.5t175 -73.5q108 0 176 73.5t68 187.5q0 111 -67.5 185t-176.5 74q-108 0 -175.5 -74t-67.5 -185z" />
    <glyph glyph-name="P" unicode="P" 
d="M78 0v708h231q267 0 267 -205q0 -110 -76 -160t-199 -50h-97v-293h-126zM204 399h88q157 0 157 104q0 57 -41.5 78t-111.5 21h-92v-203z" />
    <glyph glyph-name="Q" unicode="Q" horiz-adv-x="852" 
d="M841 102v-102h-427q-172 0 -274.5 96.5t-102.5 266.5q0 160 107.5 261.5t271.5 101.5t270 -101.5t106 -261.5q0 -88 -36 -154.5t-90 -104.5v-2h175zM416 613q-103 0 -172 -71t-69 -179q0 -113 66 -183t173 -70q106 0 173.5 70t67.5 183q0 109 -66.5 179.5t-172.5 70.5z
" />
    <glyph glyph-name="R" unicode="R" horiz-adv-x="629" 
d="M78 0v708h246q71 0 127.5 -18.5t95 -66t38.5 -118.5q0 -75 -43 -124.5t-119 -66.5l189 -314h-152l-164 300h-92v-300h-126zM204 403h103q152 0 152 103q0 52 -41 74t-100 22h-114v-199z" />
    <glyph glyph-name="S" unicode="S" horiz-adv-x="574" 
d="M521 650l-82 -90q-20 27 -56.5 44t-73.5 17q-49 0 -87 -24.5t-38 -72.5q0 -24 8.5 -40.5t30 -29.5t40.5 -20t56 -19q35 -11 57.5 -19t54 -25.5t50 -37.5t32 -52.5t13.5 -72.5q0 -109 -73.5 -167.5t-184.5 -58.5q-71 0 -136.5 26.5t-106.5 74.5l90 84q26 -35 69 -56.5
t86 -21.5q51 0 89.5 26t38.5 79q0 18 -5 32.5t-18.5 26.5t-23.5 19.5t-35.5 17t-36.5 13.5t-44 14q-38 12 -65 25t-55.5 35.5t-43.5 58t-15 82.5q0 101 76.5 154.5t182.5 53.5q56 0 111.5 -19.5t94.5 -56.5z" />
    <glyph glyph-name="T" unicode="T" horiz-adv-x="568" 
d="M221 0v598h-217v110h560v-110h-217v-598h-126z" />
    <glyph glyph-name="U" unicode="U" horiz-adv-x="714" 
d="M642 708v-448q0 -126 -80.5 -202t-204.5 -76t-204.5 76t-80.5 202v448h126v-443q0 -71 38 -120.5t121 -49.5t121 49.5t38 120.5v443h126z" />
    <glyph glyph-name="V" unicode="V" horiz-adv-x="653" 
d="M270 0l-280 708h141l195 -545h4l197 545h136l-284 -708h-109z" />
    <glyph glyph-name="W" unicode="W" horiz-adv-x="1004" 
d="M213 0l-207 708h138l137 -520h2l156 520h130l153 -520h2l140 520h134l-207 -708h-122l-166 531h-2l-166 -531h-122z" />
    <glyph glyph-name="X" unicode="X" horiz-adv-x="658" 
d="M4 0l245 378l-220 330h152l146 -242l144 242h145l-216 -333l254 -375h-159l-173 278l-166 -278h-152z" />
    <glyph glyph-name="Y" unicode="Y" horiz-adv-x="622" 
d="M249 0v307l-266 401h154l178 -298l180 298h146l-266 -401v-307h-126z" />
    <glyph glyph-name="Z" unicode="Z" horiz-adv-x="611" 
d="M35 0v114l385 484h-379v110h529v-114l-387 -482h393v-112h-541z" />
    <glyph glyph-name="bracketleft" unicode="[" horiz-adv-x="330" 
d="M252 732v-78h-90v-732h90v-78h-192v888h192z" />
    <glyph glyph-name="backslash" unicode="\" horiz-adv-x="389" 
d="M3 726l83 32l312 -776l-83 -30z" />
    <glyph glyph-name="bracketright" unicode="]" horiz-adv-x="330" 
d="M78 -156v78h90v732h-90v78h192v-888h-192z" />
    <glyph glyph-name="asciicircum" unicode="^" horiz-adv-x="666" 
d="M187 343h-118l223 365h82l223 -365h-118l-147 239z" />
    <glyph glyph-name="underscore" unicode="_" horiz-adv-x="500" 
d="M500 -75v-75h-500v75h500z" />
    <glyph glyph-name="grave" unicode="`" horiz-adv-x="260" 
d="M78 708l99 -144h-94l-141 144h136z" />
    <glyph glyph-name="a" unicode="a" horiz-adv-x="550" 
d="M370 0v61h-3q-18 -32 -58.5 -52.5t-90.5 -20.5q-69 0 -124.5 36.5t-55.5 112.5q0 41 20.5 71.5t51.5 47.5t77.5 27.5t88 13.5t92.5 3v12q0 42 -31 65t-79 23q-76 0 -131 -55l-62 73q82 76 203 76q62 0 105.5 -17.5t66.5 -48t32.5 -64t9.5 -72.5v-292h-112zM368 202v17
h-27q-183 0 -183 -80q0 -32 24.5 -46t59.5 -14q61 0 93.5 32.5t32.5 90.5z" />
    <glyph glyph-name="b" unicode="b" horiz-adv-x="635" 
d="M74 756h120v-337h3q60 75 161 75q102 0 167.5 -72t65.5 -180t-64.5 -182t-171.5 -74q-51 0 -96 22.5t-69 63.5h-2v-72h-114v756zM469 242q0 62 -36.5 108t-101.5 46q-63 0 -102 -48t-39 -108t39 -107t102 -47q65 0 101.5 47t36.5 109z" />
    <glyph glyph-name="c" unicode="c" horiz-adv-x="488" 
d="M482 419l-82 -72q-14 20 -42 33.5t-57 13.5q-62 0 -97 -46.5t-35 -107.5q0 -62 36 -108t100 -46q66 0 101 43l75 -76q-62 -67 -177 -67q-110 0 -185 69t-75 185q0 114 74 184t183 70q53 0 103 -20t78 -55z" />
    <glyph glyph-name="d" unicode="d" horiz-adv-x="634" 
d="M560 756v-756h-114v72h-2q-24 -41 -69 -63.5t-96 -22.5q-107 0 -171.5 74t-64.5 182t65.5 180t167.5 72q101 0 161 -75h3v337h120zM165 242q0 -62 36.5 -109t101.5 -47q63 0 102 47t39 107t-39 108t-102 48q-65 0 -101.5 -46t-36.5 -108z" />
    <glyph glyph-name="e" unicode="e" horiz-adv-x="574" 
d="M164 288h246q0 50 -29 83t-84 33q-53 0 -91 -33t-42 -83zM530 234q0 -21 -1 -32h-365q4 -50 44 -84t93 -34q83 0 127 62l80 -64q-71 -96 -206 -96q-113 0 -185.5 68t-72.5 183t72 186t182 71q104 0 168 -67t64 -193z" />
    <glyph glyph-name="f" unicode="f" horiz-adv-x="324" 
d="M91 0v384h-91v96h91v71q0 97 45 157t149 60q36 0 61 -7l-8 -102q-23 7 -46 7q-81 0 -81 -108v-78h111v-96h-111v-384h-120z" />
    <glyph glyph-name="g" unicode="g" horiz-adv-x="632" 
d="M446 480h114v-437q0 -134 -67.5 -208.5t-203.5 -74.5q-61 0 -127 21t-111 58l69 93q71 -68 168 -68q152 0 152 165v35h-2q-54 -72 -157 -72q-105 0 -171 72.5t-66 177.5q0 107 64.5 179.5t170.5 72.5q113 0 165 -86h2v72zM304 396q-63 0 -100.5 -43.5t-37.5 -109.5
q0 -61 37.5 -106.5t99.5 -45.5q64 0 103.5 44.5t39.5 107.5q0 64 -39 108.5t-103 44.5z" />
    <glyph glyph-name="h" unicode="h" horiz-adv-x="584" 
d="M339 494q88 0 132.5 -56.5t44.5 -137.5v-300h-120v264q0 127 -89 127q-54 0 -83.5 -38.5t-29.5 -90.5v-262h-120v756h120v-343h2q16 33 54.5 57t88.5 24z" />
    <glyph glyph-name="i" unicode="i" horiz-adv-x="268" 
d="M74 0v480h120v-480h-120zM57 643q0 29 22 50.5t54 21.5q33 0 55.5 -20.5t22.5 -51.5t-22.5 -51.5t-55.5 -20.5q-32 0 -54 21.5t-22 50.5z" />
    <glyph glyph-name="j" unicode="j" horiz-adv-x="268" 
d="M74 480h120v-509q0 -47 -7.5 -82t-25.5 -66t-53.5 -47t-87.5 -16q-30 0 -54 6l10 102q15 -4 33 -4q39 0 52 26.5t13 75.5v514zM57 643q0 29 22 50.5t54 21.5q33 0 55.5 -20.5t22.5 -51.5t-22.5 -51.5t-55.5 -20.5q-32 0 -54 21.5t-22 50.5z" />
    <glyph glyph-name="k" unicode="k" horiz-adv-x="543" 
d="M74 0v756h120v-478h3l182 202h154l-208 -217l221 -263h-159l-190 246h-3v-246h-120z" />
    <glyph glyph-name="l" unicode="l" horiz-adv-x="268" 
d="M74 0v756h120v-756h-120z" />
    <glyph glyph-name="m" unicode="m" horiz-adv-x="890" 
d="M645 494q88 0 132.5 -56.5t44.5 -137.5v-300h-120v266q0 128 -90 128q-52 0 -79 -39.5t-27 -92.5v-262h-120v290q0 47 -22.5 75.5t-66.5 28.5q-51 0 -78 -38.5t-27 -91.5v-264h-120v480h114v-77h2q17 39 56 65t93 26q105 0 150 -91q50 91 158 91z" />
    <glyph glyph-name="n" unicode="n" horiz-adv-x="582" 
d="M72 0v480h114v-77h2q17 38 57.5 64.5t91.5 26.5q88 0 132.5 -56.5t44.5 -137.5v-300h-120v266q0 128 -90 128q-54 0 -83 -38.5t-29 -91.5v-264h-120z" />
    <glyph glyph-name="o" unicode="o" 
d="M44 242q0 111 75 181.5t186 70.5t186 -70.5t75 -181.5q0 -112 -75.5 -184t-185.5 -72t-185.5 72t-75.5 184zM166 242q0 -62 36 -109t103 -47t103 47t36 109t-36 108t-103 46t-103 -46t-36 -108z" />
    <glyph glyph-name="p" unicode="p" horiz-adv-x="633" 
d="M72 480h115v-67h3q21 33 63.5 57t102.5 24q102 0 167.5 -72t65.5 -180t-64.5 -182t-171.5 -74q-50 0 -93 21t-66 57h-2v-304h-120v720zM467 242q0 62 -36.5 108t-101.5 46q-63 0 -102 -48t-39 -108t39 -107t102 -47q65 0 101.5 47t36.5 109z" />
    <glyph glyph-name="q" unicode="q" horiz-adv-x="632" 
d="M560 480v-720h-120v304h-2q-23 -36 -66 -57t-93 -21q-107 0 -171.5 74t-64.5 182t65.5 180t167.5 72q60 0 102.5 -24t63.5 -57h3v67h115zM165 242q0 -62 36.5 -109t101.5 -47q63 0 102 47t39 107t-39 108t-102 48q-65 0 -101.5 -46t-36.5 -108z" />
    <glyph glyph-name="r" unicode="r" horiz-adv-x="364" 
d="M72 0v480h115v-80h2q20 43 57 68.5t83 25.5q17 0 29 -3v-110q-20 5 -37 5q-31 0 -55 -10t-37.5 -25t-22 -33.5t-11.5 -33.5t-3 -27v-257h-120z" />
    <glyph glyph-name="s" unicode="s" horiz-adv-x="444" 
d="M413 421l-78 -69q-17 22 -45 37t-60 15t-54.5 -13t-22.5 -39q0 -25 23 -37t81 -26q31 -7 55 -16.5t48.5 -25.5t38 -42t13.5 -59q0 -82 -56.5 -121t-143.5 -39q-57 0 -110 21t-87 58l79 74q46 -60 123 -60q31 0 54 14t23 43q0 28 -24.5 41.5t-85.5 27.5
q-65 16 -103.5 45.5t-38.5 90.5q0 75 56 114t135 39q54 0 103 -19t77 -54z" />
    <glyph glyph-name="t" unicode="t" horiz-adv-x="340" 
d="M87 384h-84v96h84v139h118v-139h120v-96h-120v-223q0 -36 13 -55t50 -19q31 0 51 10l4 -94q-34 -13 -80 -13q-88 0 -122 45.5t-34 124.5v224z" />
    <glyph glyph-name="u" unicode="u" horiz-adv-x="582" 
d="M510 480v-480h-114v77h-2q-17 -38 -57.5 -64.5t-91.5 -26.5q-88 0 -132.5 56.5t-44.5 137.5v300h120v-266q0 -128 90 -128q54 0 83 38.5t29 91.5v264h120z" />
    <glyph glyph-name="v" unicode="v" horiz-adv-x="513" 
d="M194 0l-194 480h131l126 -350h2l127 350h127l-191 -480h-128z" />
    <glyph glyph-name="w" unicode="w" horiz-adv-x="804" 
d="M171 0l-167 480h130l100 -344h2l103 344h128l104 -344h2l102 344h125l-166 -480h-122l-109 336h-2l-108 -336h-122z" />
    <glyph glyph-name="x" unicode="x" horiz-adv-x="537" 
d="M-1 0l195 255l-173 225h144l104 -149l107 149h138l-172 -225l196 -255h-146l-125 175l-126 -175h-142z" />
    <glyph glyph-name="y" unicode="y" horiz-adv-x="513" 
d="M206 0l-206 480h133l134 -349h2l119 349h125l-227 -583q-28 -71 -67.5 -104t-114.5 -33q-33 0 -62 7l10 104q22 -7 45 -7q36 0 52 16.5t33 58.5z" />
    <glyph glyph-name="z" unicode="z" horiz-adv-x="482" 
d="M34 0v106l259 278h-247v96h390v-106l-260 -276h272v-98h-414z" />
    <glyph glyph-name="braceleft" unicode="{" horiz-adv-x="330" 
d="M10 244v88q27 0 48 16t21 54v198q0 64 37 98t91 34h73v-84h-55q-44 0 -44 -60v-188q0 -52 -32.5 -79.5t-65.5 -31.5v-2q15 -1 29.5 -6.5t31 -17.5t27 -36t10.5 -57v-182q0 -60 44 -60h55v-84h-73q-54 0 -91 34t-37 98v191q0 42 -21 59.5t-48 17.5z" />
    <glyph glyph-name="bar" unicode="|" horiz-adv-x="222" 
d="M60 750h102v-1000h-102v1000z" />
    <glyph glyph-name="braceright" unicode="}" horiz-adv-x="330" 
d="M320 332v-88q-27 0 -48 -17.5t-21 -59.5v-191q0 -64 -37 -98t-91 -34h-73v84h55q44 0 44 60v182q0 33 10.5 57t27 36t31 17.5t29.5 6.5v2q-33 4 -65.5 31.5t-32.5 79.5v188q0 60 -44 60h-55v84h73q54 0 91 -34t37 -98v-198q0 -38 21 -54t48 -16z" />
    <glyph glyph-name="asciitilde" unicode="~" horiz-adv-x="666" 
d="M345 354q40 -25 55.5 -31t38.5 -6q45 0 78 63l77 -65q-62 -102 -153 -102q-58 0 -121 40q-58 36 -93 36q-44 0 -78 -63l-77 65q62 103 153 103q59 0 120 -40z" />
    <glyph glyph-name="uni00A0" unicode="&#xa0;" horiz-adv-x="250" 
 />
    <glyph glyph-name="exclamdown" unicode="&#xa1;" horiz-adv-x="340" 
d="M230 -214h-120v486h120v-486zM90 424q0 32 24 54t56 22q33 0 56.5 -23t23.5 -55t-23.5 -54t-56.5 -22t-56.5 23t-23.5 55z" />
    <glyph glyph-name="cent" unicode="&#xa2;" 
d="M354 559v-67q115 -4 170 -69l-77 -78q-40 42 -93 45v-300q56 0 97 46l73 -79q-60 -65 -170 -69v-72h-54v72q-101 9 -161.5 79.5t-60.5 173.5q0 104 59.5 170.5t162.5 80.5v67h54zM300 90v299q-53 -11 -80.5 -51.5t-27.5 -97.5q0 -54 28 -95.5t80 -54.5z" />
    <glyph glyph-name="sterling" unicode="&#xa3;" 
d="M66 0v107h98v208h-98v84h98v83q0 32 7.5 64t25.5 65t45 58t70 41t96 16q107 0 176 -60l-71 -83q-40 43 -105 43t-93.5 -45.5t-28.5 -103.5v-78h164v-84h-164v-208h265v-107h-485z" />
    <glyph glyph-name="currency" unicode="&#xa4;" horiz-adv-x="920" 
d="M687 462q45 -66 45 -153q0 -93 -48 -158l93 -93l-22 -22t-25.5 -26t-22.5 -22l-96 95q-65 -43 -150 -43q-81 0 -151 45q-32 -33 -98 -97l-22 22t-25.5 26t-22.5 22l95 96q-45 62 -45 155q0 87 43 150l-93 93l71 70l94 -93q68 46 154 46q88 0 153 -45l92 92l71 -70z
M461 459q-64 0 -104.5 -44t-40.5 -106q0 -64 40.5 -108t104.5 -44q65 0 105 44t40 108q0 62 -40.5 106t-104.5 44z" />
    <glyph glyph-name="yen" unicode="&#xa5;" 
d="M245 0v155h-176v78h176v77h-176v78h145l-198 320h140l155 -288l149 288h134l-193 -320h140v-78h-176v-77h176v-78h-176v-155h-120z" />
    <glyph glyph-name="brokenbar" unicode="&#xa6;" horiz-adv-x="222" 
d="M60 675h102v-350h-102v350zM60 175h102v-350h-102v350z" />
    <glyph glyph-name="section" unicode="&#xa7;" 
d="M529 640l-82 -73q-20 29 -51.5 46t-63.5 17q-34 0 -62 -17t-28 -49q0 -34 31 -56t99 -50q37 -15 62 -29t52.5 -35t41.5 -50t14 -64q0 -40 -23 -75t-58 -53q52 -39 52 -116q0 -85 -65.5 -132.5t-152.5 -47.5q-67 0 -129.5 29t-97.5 84l99 59q17 -34 52.5 -52t74.5 -18
q35 0 65 18.5t30 52.5q0 44 -49 71q-23 13 -101 43q-34 13 -56 24.5t-47 30.5t-37.5 45t-12.5 59q0 95 96 145q-61 39 -61 114q0 78 63 121.5t145 43.5q60 0 113.5 -22t86.5 -64zM281 239l104 -43q43 21 43 68q0 33 -21.5 52.5t-59.5 37.5l-89 40q-58 -24 -58 -70
q0 -23 14 -40.5t27.5 -25t39.5 -19.5z" />
    <glyph glyph-name="dieresis" unicode="&#xa8;" horiz-adv-x="260" 
d="M-40 644q0 28 20.5 49t50.5 21q31 0 52 -20t21 -50t-21 -50t-52 -20q-30 0 -50.5 21t-20.5 49zM156 644q0 28 20.5 49t50.5 21q31 0 52 -20t21 -50t-21 -50t-52 -20q-30 0 -50.5 21t-20.5 49z" />
    <glyph glyph-name="copyright" unicode="&#xa9;" horiz-adv-x="800" 
d="M577 506l-63 -63q-15 18 -41 30t-55 12q-58 0 -91 -39t-33 -93q0 -55 35 -95t96 -40q60 0 93 38l58 -68q-54 -60 -158 -60q-99 0 -164.5 59.5t-65.5 163.5q0 102 66 163t164 61q48 0 91 -18.5t68 -50.5zM20 353q0 157 111.5 267t269.5 110q157 0 268 -110t111 -267
q0 -156 -111 -265.5t-268 -109.5q-158 0 -269.5 109.5t-111.5 265.5zM80 353q0 -132 94 -225.5t227 -93.5q132 0 225.5 93.5t93.5 225.5q0 133 -93.5 227t-225.5 94q-133 0 -227 -94t-94 -227z" />
    <glyph glyph-name="ordfeminine" unicode="&#xaa;" horiz-adv-x="380" 
d="M244 431v30h-1q-22 -37 -89 -37q-43 0 -74 23t-31 63q0 33 16.5 54.5t48 30.5t59 12t65.5 3v6q0 42 -60 42q-41 0 -69 -31l-44 52q44 44 120 44q132 0 132 -118v-174h-73zM238 544v13h-14q-92 0 -92 -39q0 -16 12.5 -24t30.5 -8q30 0 46.5 16t16.5 42z" />
    <glyph glyph-name="guillemotleft" unicode="&#xab;" horiz-adv-x="519" 
d="M257 421l-115 -173l116 -175l-76 -51l-152 226l152 224zM480 421l-115 -173l116 -175l-76 -51l-152 226l152 224z" />
    <glyph glyph-name="logicalnot" unicode="&#xac;" horiz-adv-x="666" 
d="M502 147v195h-440v102h542v-297h-102z" />
    <glyph glyph-name="uni00AD" unicode="&#xad;" horiz-adv-x="320" 
d="M280 297v-102h-240v102h240z" />
    <glyph glyph-name="registered" unicode="&#xae;" horiz-adv-x="600" 
d="M528 493q0 -93 -66.5 -158.5t-160.5 -65.5q-95 0 -162 65.5t-67 158.5q0 94 67 160.5t162 66.5q94 0 160.5 -66.5t66.5 -160.5zM492 493q0 80 -56 136.5t-135 56.5q-80 0 -136.5 -56.5t-56.5 -136.5q0 -79 56.5 -135t136.5 -56q79 0 135 56t56 135zM432 368h-83l-50 96
h-29v-96h-71v260h112q44 0 75.5 -19.5t31.5 -62.5q0 -26 -14.5 -44.5t-37.5 -26.5zM343 545q0 12 -11 18.5t-24 6.5h-38v-54h38q14 0 24.5 8.5t10.5 20.5z" />
    <glyph glyph-name="macron" unicode="&#xaf;" horiz-adv-x="260" 
d="M290 673v-78h-320v78h320z" />
    <glyph glyph-name="degree" unicode="&#xb0;" horiz-adv-x="400" 
d="M40 560q0 66 47 113t113 47t113 -47t47 -113t-47 -113t-113 -47t-113 47t-47 113zM118 560q0 -34 24 -58t58 -24t58 24t24 58t-24 58t-58 24t-58 -24t-24 -58z" />
    <glyph glyph-name="plusminus" unicode="&#xb1;" horiz-adv-x="666" 
d="M286 431v143h96v-143h204v-102h-204v-143h-96v143h-206v102h206zM80 32v102h506v-102h-506z" />
    <glyph glyph-name="twosuperior" unicode="&#xb2;" horiz-adv-x="400" 
d="M347 448h-291v76l162 161q36 36 36 70q0 22 -15 35.5t-38 13.5q-25 0 -42 -18.5t-19 -48.5l-88 12q7 59 48 97t101 38q61 0 103.5 -33.5t42.5 -94.5q0 -62 -69 -129l-100 -97h169v-82z" />
    <glyph glyph-name="threesuperior" unicode="&#xb3;" horiz-adv-x="400" 
d="M354 573q0 -64 -45.5 -98t-107.5 -34q-125 0 -161 112l85 25q19 -58 73 -58q27 0 46 14t19 43q0 56 -88 56h-27v71h28q32 0 53.5 13.5t21.5 43.5q0 21 -14 33t-36 12q-47 0 -59 -53l-86 21q14 48 54 79t91 31q63 0 102.5 -30t39.5 -88q0 -62 -55 -93q66 -25 66 -100z" />
    <glyph glyph-name="acute" unicode="&#xb4;" horiz-adv-x="260" 
d="M83 564l99 144h136l-141 -144h-94z" />
    <glyph glyph-name="mu" unicode="&#xb5;" horiz-adv-x="611" 
d="M577 95l4 -93q-30 -10 -69 -10q-90 0 -102 79h-2q-43 -85 -125 -85q-67 0 -89 35h-2v-261h-120v720h120v-264q0 -130 92 -130q49 0 79.5 37.5t30.5 92.5v264h120v-354q0 -37 35 -37q13 0 28 6z" />
    <glyph glyph-name="paragraph" unicode="&#xb6;" horiz-adv-x="600" 
d="M246 -126v464q-96 0 -155.5 51t-59.5 131q0 97 61.5 142.5t171.5 45.5h269v-834h-90v762h-107v-762h-90z" />
    <glyph glyph-name="periodcentered" unicode="&#xb7;" horiz-adv-x="260" 
d="M50 291q0 32 23.5 55t56.5 23t56.5 -22t23.5 -54t-23.5 -55t-56.5 -23q-32 0 -56 22t-24 54z" />
    <glyph glyph-name="cedilla" unicode="&#xb8;" horiz-adv-x="260" 
d="M178 0l-45 -64q8 1 19 1q105 0 105 -83q0 -50 -41 -72t-95 -22q-61 0 -110 26l23 48q38 -20 82 -20q57 0 57 41q0 36 -53 36q-21 0 -39 -6l-23 25l62 90h58z" />
    <glyph glyph-name="onesuperior" unicode="&#xb9;" horiz-adv-x="400" 
d="M170 448v317l-73 -61l-53 62l137 111h83v-429h-94z" />
    <glyph glyph-name="ordmasculine" unicode="&#xba;" horiz-adv-x="380" 
d="M342 574q0 -64 -43 -106t-109 -42t-109 42t-43 106q0 65 43 106.5t109 41.5t109 -41.5t43 -106.5zM260 574q0 32 -18.5 53.5t-51.5 21.5t-51 -21.5t-18 -53.5q0 -31 18 -53t51 -22t51.5 22t18.5 53z" />
    <glyph glyph-name="guillemotright" unicode="&#xbb;" horiz-adv-x="519" 
d="M262 73l115 173l-116 175l76 51l152 -226l-152 -224zM39 73l115 173l-116 175l76 51l152 -226l-152 -224z" />
    <glyph glyph-name="onequarter" unicode="&#xbc;" horiz-adv-x="900" 
d="M682 0v85h-190v74l179 270h97v-265h58v-79h-58v-85h-86zM682 164v149h-1l-96 -149h97zM186 6l416 734l78 -38l-416 -734zM95 535l-53 62l137 111h83v-429h-94v317z" />
    <glyph glyph-name="onehalf" unicode="&#xbd;" horiz-adv-x="900" 
d="M186 6l416 734l78 -38l-416 -734zM771 179l-100 -97h169v-82h-291v76l162 161q36 36 36 70q0 22 -15 35.5t-38 13.5q-25 0 -42 -18.5t-19 -48.5l-88 12q7 59 48 97t101 38q61 0 103.5 -33.5t42.5 -94.5q0 -62 -69 -129zM95 535l-53 62l137 111h83v-429h-94v317z" />
    <glyph glyph-name="threequarters" unicode="&#xbe;" horiz-adv-x="900" 
d="M682 0v85h-190v74l179 270h97v-265h58v-79h-58v-85h-86zM682 164v149h-1l-96 -149h97zM186 6l416 734l78 -38l-416 -734zM354 409q0 -64 -45.5 -98t-107.5 -34q-125 0 -161 112l85 25q19 -58 73 -58q27 0 46 14t19 43q0 56 -88 56h-27v71h28q32 0 53.5 13.5t21.5 43.5
q0 21 -14 33t-36 12q-47 0 -59 -53l-86 21q14 48 54 79t91 31q63 0 102.5 -30t39.5 -88q0 -62 -55 -93q66 -25 66 -100z" />
    <glyph glyph-name="questiondown" unicode="&#xbf;" horiz-adv-x="519" 
d="M195 285h118v-38q0 -48 -14 -79t-52 -67l-45 -43q-46 -42 -46 -89q0 -40 25.5 -66t68.5 -26q45 0 72.5 30.5t29.5 73.5l123 -11q-11 -94 -75 -148t-158 -54q-91 0 -152 51t-61 142q0 58 23 94t77 83q41 36 53.5 57.5t12.5 63.5v26zM333 424q0 -32 -23.5 -55t-56.5 -23
t-56.5 22t-23.5 54t23.5 55t56.5 23q32 0 56 -22t24 -54z" />
    <glyph glyph-name="Agrave" unicode="&#xc0;" horiz-adv-x="706" 
d="M-8 0l308 708h109l305 -708h-144l-66 162h-307l-64 -162h-141zM240 270h220l-109 288zM304 908l99 -144h-94l-141 144h136z" />
    <glyph glyph-name="Aacute" unicode="&#xc1;" horiz-adv-x="706" 
d="M-8 0l308 708h109l305 -708h-144l-66 162h-307l-64 -162h-141zM240 270h220l-109 288zM301 764l99 144h136l-141 -144h-94z" />
    <glyph glyph-name="Acircumflex" unicode="&#xc2;" horiz-adv-x="706" 
d="M-8 0l308 708h109l305 -708h-144l-66 162h-307l-64 -162h-141zM240 270h220l-109 288zM537 764h-114l-69 90l-69 -90h-112l115 144h135z" />
    <glyph glyph-name="Atilde" unicode="&#xc3;" horiz-adv-x="706" 
d="M-8 0l308 708h109l305 -708h-144l-66 162h-307l-64 -162h-141zM240 270h220l-109 288zM236 768h-66q22 127 112 127q36 0 79 -18q45 -19 65 -19q33 0 46 42h66q-22 -127 -112 -127q-37 0 -82 20q-39 18 -62 18q-32 0 -46 -43z" />
    <glyph glyph-name="Adieresis" unicode="&#xc4;" horiz-adv-x="706" 
d="M-8 0l308 708h109l305 -708h-144l-66 162h-307l-64 -162h-141zM240 270h220l-109 288zM186 844q0 28 20.5 49t50.5 21q31 0 52 -20t21 -50t-21 -50t-52 -20q-30 0 -50.5 21t-20.5 49zM382 844q0 28 20.5 49t50.5 21q31 0 52 -20t21 -50t-21 -50t-52 -20q-30 0 -50.5 21
t-20.5 49z" />
    <glyph glyph-name="Aring" unicode="&#xc5;" horiz-adv-x="706" 
d="M-8 0l308 708h109l305 -708h-144l-66 162h-307l-64 -162h-141zM240 270h220l-109 288zM458 855q0 -44 -30 -73t-75 -29q-44 0 -74.5 29t-30.5 72q0 44 30 73.5t75 29.5t75 -29t30 -73zM412 855q0 25 -17 41t-42 16t-42 -16.5t-17 -41.5q0 -24 17 -40t42 -16t42 16t17 41z
" />
    <glyph glyph-name="AE" unicode="&#xc6;" horiz-adv-x="1046" 
d="M529 0v186h-268l-114 -186h-153l453 708h536v-110h-328v-180h310v-106h-310v-200h346v-112h-472zM327 294h202v304h-15z" />
    <glyph glyph-name="Ccedilla" unicode="&#xc7;" horiz-adv-x="696" 
d="M685 618l-96 -76q-26 36 -70.5 54.5t-90.5 18.5q-108 0 -176.5 -74t-68.5 -185q0 -116 65.5 -188.5t174.5 -72.5q112 0 172 82l101 -71q-92 -117 -258 -123l-32 -47q8 1 19 1q105 0 105 -83q0 -50 -41 -72t-95 -22q-61 0 -110 26l23 48q38 -20 82 -20q57 0 57 41
q0 36 -53 36q-21 0 -39 -6l-23 25l51 74q-151 13 -244.5 115t-93.5 257q0 167 108.5 268.5t275.5 101.5q74 0 145.5 -27.5t111.5 -80.5z" />
    <glyph glyph-name="Egrave" unicode="&#xc8;" 
d="M78 0v708h469v-110h-343v-180h325v-106h-325v-200h361v-112h-487zM296 908l99 -144h-94l-141 144h136z" />
    <glyph glyph-name="Eacute" unicode="&#xc9;" 
d="M78 0v708h469v-110h-343v-180h325v-106h-325v-200h361v-112h-487zM253 764l99 144h136l-141 -144h-94z" />
    <glyph glyph-name="Ecircumflex" unicode="&#xca;" 
d="M78 0v708h469v-110h-343v-180h325v-106h-325v-200h361v-112h-487zM499 764h-114l-69 90l-69 -90h-112l115 144h135z" />
    <glyph glyph-name="Edieresis" unicode="&#xcb;" 
d="M78 0v708h469v-110h-343v-180h325v-106h-325v-200h361v-112h-487zM148 844q0 28 20.5 49t50.5 21q31 0 52 -20t21 -50t-21 -50t-52 -20q-30 0 -50.5 21t-20.5 49zM344 844q0 28 20.5 49t50.5 21q31 0 52 -20t21 -50t-21 -50t-52 -20q-30 0 -50.5 21t-20.5 49z" />
    <glyph glyph-name="Igrave" unicode="&#xcc;" horiz-adv-x="282" 
d="M78 0v708h126v-708h-126zM104 908l99 -144h-94l-141 144h136z" />
    <glyph glyph-name="Iacute" unicode="&#xcd;" horiz-adv-x="282" 
d="M78 0v708h126v-708h-126zM78 764l99 144h136l-141 -144h-94z" />
    <glyph glyph-name="Icircumflex" unicode="&#xce;" horiz-adv-x="282" 
d="M78 0v708h126v-708h-126zM322 764h-114l-69 90l-69 -90h-112l115 144h135z" />
    <glyph glyph-name="Idieresis" unicode="&#xcf;" horiz-adv-x="282" 
d="M78 0v708h126v-708h-126zM-29 844q0 28 20.5 49t50.5 21q31 0 52 -20t21 -50t-21 -50t-52 -20q-30 0 -50.5 21t-20.5 49zM167 844q0 28 20.5 49t50.5 21q31 0 52 -20t21 -50t-21 -50t-52 -20q-30 0 -50.5 21t-20.5 49z" />
    <glyph glyph-name="Eth" unicode="&#xd0;" horiz-adv-x="764" 
d="M79 0v324h-66v84h66v300h279q150 0 255 -92t105 -262q0 -87 -34.5 -157t-90 -111.5t-120 -63.5t-130.5 -22h-264zM205 114h94q128 0 207.5 59t79.5 181q0 123 -71.5 181.5t-194.5 58.5h-115v-186h216v-84h-216v-210z" />
    <glyph glyph-name="Ntilde" unicode="&#xd1;" horiz-adv-x="780" 
d="M78 0v708h167l329 -530h2v530h126v-708h-160l-336 547h-2v-547h-126zM271 768h-66q22 127 112 127q36 0 79 -18q45 -19 65 -19q33 0 46 42h66q-22 -127 -112 -127q-37 0 -82 20q-39 18 -62 18q-32 0 -46 -43z" />
    <glyph glyph-name="Ograve" unicode="&#xd2;" horiz-adv-x="849" 
d="M44 356q0 168 106.5 269t272.5 101q168 0 275 -101t107 -269q0 -165 -107.5 -269.5t-274.5 -104.5q-165 0 -272 104.5t-107 269.5zM181 356q0 -114 68 -187.5t175 -73.5q108 0 176 73.5t68 187.5q0 111 -67.5 185t-176.5 74q-108 0 -175.5 -74t-67.5 -185zM395 908
l99 -144h-94l-141 144h136z" />
    <glyph glyph-name="Oacute" unicode="&#xd3;" horiz-adv-x="849" 
d="M44 356q0 168 106.5 269t272.5 101q168 0 275 -101t107 -269q0 -165 -107.5 -269.5t-274.5 -104.5q-165 0 -272 104.5t-107 269.5zM181 356q0 -114 68 -187.5t175 -73.5q108 0 176 73.5t68 187.5q0 111 -67.5 185t-176.5 74q-108 0 -175.5 -74t-67.5 -185zM361 764
l99 144h136l-141 -144h-94z" />
    <glyph glyph-name="Ocircumflex" unicode="&#xd4;" horiz-adv-x="849" 
d="M44 356q0 168 106.5 269t272.5 101q168 0 275 -101t107 -269q0 -165 -107.5 -269.5t-274.5 -104.5q-165 0 -272 104.5t-107 269.5zM181 356q0 -114 68 -187.5t175 -73.5q108 0 176 73.5t68 187.5q0 111 -67.5 185t-176.5 74q-108 0 -175.5 -74t-67.5 -185zM611 764h-114
l-69 90l-69 -90h-112l115 144h135z" />
    <glyph glyph-name="Otilde" unicode="&#xd5;" horiz-adv-x="849" 
d="M44 356q0 168 106.5 269t272.5 101q168 0 275 -101t107 -269q0 -165 -107.5 -269.5t-274.5 -104.5q-165 0 -272 104.5t-107 269.5zM181 356q0 -114 68 -187.5t175 -73.5q108 0 176 73.5t68 187.5q0 111 -67.5 185t-176.5 74q-108 0 -175.5 -74t-67.5 -185zM310 768h-66
q22 127 112 127q36 0 79 -18q45 -19 65 -19q33 0 46 42h66q-22 -127 -112 -127q-37 0 -82 20q-39 18 -62 18q-32 0 -46 -43z" />
    <glyph glyph-name="Odieresis" unicode="&#xd6;" horiz-adv-x="849" 
d="M44 356q0 168 106.5 269t272.5 101q168 0 275 -101t107 -269q0 -165 -107.5 -269.5t-274.5 -104.5q-165 0 -272 104.5t-107 269.5zM181 356q0 -114 68 -187.5t175 -73.5q108 0 176 73.5t68 187.5q0 111 -67.5 185t-176.5 74q-108 0 -175.5 -74t-67.5 -185zM257 844
q0 28 20.5 49t50.5 21q31 0 52 -20t21 -50t-21 -50t-52 -20q-30 0 -50.5 21t-20.5 49zM453 844q0 28 20.5 49t50.5 21q31 0 52 -20t21 -50t-21 -50t-52 -20q-30 0 -50.5 21t-20.5 49z" />
    <glyph glyph-name="multiply" unicode="&#xd7;" horiz-adv-x="666" 
d="M150 557l183 -183l182 182l70 -70l-181 -181l185 -186l-74 -74l-183 181l-181 -181l-74 73l185 182l-184 186z" />
    <glyph glyph-name="Oslash" unicode="&#xd8;" horiz-adv-x="849" 
d="M44 356q0 168 106.5 269t272.5 101q130 0 225 -62l85 93l49 -43l-83 -91q106 -103 106 -267t-107.5 -267.5t-274.5 -106.5q-141 0 -240 77l-85 -92l-50 43l87 94q-91 96 -91 252zM674 356q0 107 -57 174l-352 -383q60 -55 159 -55q110 0 180 74t70 190zM175 356
q0 -97 45 -159l349 378q-56 43 -145 43q-112 0 -180.5 -74t-68.5 -188z" />
    <glyph glyph-name="Ugrave" unicode="&#xd9;" horiz-adv-x="714" 
d="M642 708v-448q0 -126 -80.5 -202t-204.5 -76t-204.5 76t-80.5 202v448h126v-443q0 -71 38 -120.5t121 -49.5t121 49.5t38 120.5v443h126zM338 908l99 -144h-94l-141 144h136z" />
    <glyph glyph-name="Uacute" unicode="&#xda;" horiz-adv-x="714" 
d="M642 708v-448q0 -126 -80.5 -202t-204.5 -76t-204.5 76t-80.5 202v448h126v-443q0 -71 38 -120.5t121 -49.5t121 49.5t38 120.5v443h126zM291 764l99 144h136l-141 -144h-94z" />
    <glyph glyph-name="Ucircumflex" unicode="&#xdb;" horiz-adv-x="714" 
d="M642 708v-448q0 -126 -80.5 -202t-204.5 -76t-204.5 76t-80.5 202v448h126v-443q0 -71 38 -120.5t121 -49.5t121 49.5t38 120.5v443h126zM541 764h-114l-69 90l-69 -90h-112l115 144h135z" />
    <glyph glyph-name="Udieresis" unicode="&#xdc;" horiz-adv-x="714" 
d="M642 708v-448q0 -126 -80.5 -202t-204.5 -76t-204.5 76t-80.5 202v448h126v-443q0 -71 38 -120.5t121 -49.5t121 49.5t38 120.5v443h126zM189 844q0 28 20.5 49t50.5 21q31 0 52 -20t21 -50t-21 -50t-52 -20q-30 0 -50.5 21t-20.5 49zM385 844q0 28 20.5 49t50.5 21
q31 0 52 -20t21 -50t-21 -50t-52 -20q-30 0 -50.5 21t-20.5 49z" />
    <glyph glyph-name="Yacute" unicode="&#xdd;" horiz-adv-x="622" 
d="M249 0v307l-266 401h154l178 -298l180 298h146l-266 -401v-307h-126zM266 764l99 144h136l-141 -144h-94z" />
    <glyph glyph-name="Thorn" unicode="&#xde;" 
d="M78 0v708h126v-134h105q267 0 267 -205q0 -110 -76 -160t-199 -50h-97v-159h-126zM204 265h88q157 0 157 104q0 57 -41.5 78t-111.5 21h-92v-203z" />
    <glyph glyph-name="germandbls" unicode="&#xdf;" horiz-adv-x="627" 
d="M72 0v507q0 113 60.5 187t183.5 74q94 0 154 -56t60 -139q0 -52 -30.5 -94.5t-76.5 -54.5v-2q75 -13 119.5 -67.5t44.5 -132.5q0 -104 -67 -169t-180 -65q-44 0 -87 11v101q30 -10 70 -10q64 0 102.5 37.5t38.5 100.5q0 67 -43.5 101.5t-110.5 34.5h-13v102h15
q44 0 71.5 26.5t27.5 69.5q0 41 -25.5 71t-74.5 30q-65 0 -92 -48t-27 -114v-501h-120z" />
    <glyph glyph-name="agrave" unicode="&#xe0;" horiz-adv-x="550" 
d="M370 0v61h-3q-18 -32 -58.5 -52.5t-90.5 -20.5q-69 0 -124.5 36.5t-55.5 112.5q0 41 20.5 71.5t51.5 47.5t77.5 27.5t88 13.5t92.5 3v12q0 42 -31 65t-79 23q-76 0 -131 -55l-62 73q82 76 203 76q62 0 105.5 -17.5t66.5 -48t32.5 -64t9.5 -72.5v-292h-112zM368 202v17
h-27q-183 0 -183 -80q0 -32 24.5 -46t59.5 -14q61 0 93.5 32.5t32.5 90.5zM236 708l99 -144h-94l-141 144h136z" />
    <glyph glyph-name="aacute" unicode="&#xe1;" horiz-adv-x="550" 
d="M370 0v61h-3q-18 -32 -58.5 -52.5t-90.5 -20.5q-69 0 -124.5 36.5t-55.5 112.5q0 41 20.5 71.5t51.5 47.5t77.5 27.5t88 13.5t92.5 3v12q0 42 -31 65t-79 23q-76 0 -131 -55l-62 73q82 76 203 76q62 0 105.5 -17.5t66.5 -48t32.5 -64t9.5 -72.5v-292h-112zM368 202v17
h-27q-183 0 -183 -80q0 -32 24.5 -46t59.5 -14q61 0 93.5 32.5t32.5 90.5zM195 564l99 144h136l-141 -144h-94z" />
    <glyph glyph-name="acircumflex" unicode="&#xe2;" horiz-adv-x="550" 
d="M370 0v61h-3q-18 -32 -58.5 -52.5t-90.5 -20.5q-69 0 -124.5 36.5t-55.5 112.5q0 41 20.5 71.5t51.5 47.5t77.5 27.5t88 13.5t92.5 3v12q0 42 -31 65t-79 23q-76 0 -131 -55l-62 73q82 76 203 76q62 0 105.5 -17.5t66.5 -48t32.5 -64t9.5 -72.5v-292h-112zM368 202v17
h-27q-183 0 -183 -80q0 -32 24.5 -46t59.5 -14q61 0 93.5 32.5t32.5 90.5zM456 564h-114l-69 90l-69 -90h-112l115 144h135z" />
    <glyph glyph-name="atilde" unicode="&#xe3;" horiz-adv-x="550" 
d="M370 0v61h-3q-18 -32 -58.5 -52.5t-90.5 -20.5q-69 0 -124.5 36.5t-55.5 112.5q0 41 20.5 71.5t51.5 47.5t77.5 27.5t88 13.5t92.5 3v12q0 42 -31 65t-79 23q-76 0 -131 -55l-62 73q82 76 203 76q62 0 105.5 -17.5t66.5 -48t32.5 -64t9.5 -72.5v-292h-112zM368 202v17
h-27q-183 0 -183 -80q0 -32 24.5 -46t59.5 -14q61 0 93.5 32.5t32.5 90.5zM153 568h-66q22 127 112 127q36 0 79 -18q45 -19 65 -19q33 0 46 42h66q-22 -127 -112 -127q-37 0 -82 20q-39 18 -62 18q-32 0 -46 -43z" />
    <glyph glyph-name="adieresis" unicode="&#xe4;" horiz-adv-x="550" 
d="M370 0v61h-3q-18 -32 -58.5 -52.5t-90.5 -20.5q-69 0 -124.5 36.5t-55.5 112.5q0 41 20.5 71.5t51.5 47.5t77.5 27.5t88 13.5t92.5 3v12q0 42 -31 65t-79 23q-76 0 -131 -55l-62 73q82 76 203 76q62 0 105.5 -17.5t66.5 -48t32.5 -64t9.5 -72.5v-292h-112zM368 202v17
h-27q-183 0 -183 -80q0 -32 24.5 -46t59.5 -14q61 0 93.5 32.5t32.5 90.5zM103 644q0 28 20.5 49t50.5 21q31 0 52 -20t21 -50t-21 -50t-52 -20q-30 0 -50.5 21t-20.5 49zM299 644q0 28 20.5 49t50.5 21q31 0 52 -20t21 -50t-21 -50t-52 -20q-30 0 -50.5 21t-20.5 49z" />
    <glyph glyph-name="aring" unicode="&#xe5;" horiz-adv-x="550" 
d="M370 0v61h-3q-18 -32 -58.5 -52.5t-90.5 -20.5q-69 0 -124.5 36.5t-55.5 112.5q0 41 20.5 71.5t51.5 47.5t77.5 27.5t88 13.5t92.5 3v12q0 42 -31 65t-79 23q-76 0 -131 -55l-62 73q82 76 203 76q62 0 105.5 -17.5t66.5 -48t32.5 -64t9.5 -72.5v-292h-112zM368 202v17
h-27q-183 0 -183 -80q0 -32 24.5 -46t59.5 -14q61 0 93.5 32.5t32.5 90.5zM374 655q0 -44 -30 -73t-75 -29q-44 0 -74.5 29t-30.5 72q0 44 30 73.5t75 29.5t75 -29t30 -73zM328 655q0 25 -17 41t-42 16t-42 -16.5t-17 -41.5q0 -24 17 -40t42 -16t42 16t17 41z" />
    <glyph glyph-name="ae" unicode="&#xe6;" horiz-adv-x="887" 
d="M611 494q104 0 168 -67t64 -193q0 -21 -1 -32h-365q6 -52 45 -85t92 -33q82 0 127 63l79 -65q-70 -96 -206 -96q-130 0 -190 96q-51 -94 -201 -94q-44 0 -84.5 14t-70.5 49.5t-30 85.5q0 48 25 79.5t75 46.5t102 20t128 5v10q0 102 -109 102q-35 0 -71.5 -15.5
t-60.5 -39.5l-61 73q81 76 202 76q58 0 99.5 -23.5t63.5 -58.5q60 82 180 82zM368 186v16h-27q-94 0 -138.5 -12.5t-44.5 -50.5q0 -32 24.5 -46t59.5 -14q61 0 93.5 28t32.5 79zM477 288h246q0 50 -29 83t-84 33q-53 0 -91 -33t-42 -83z" />
    <glyph glyph-name="ccedilla" unicode="&#xe7;" horiz-adv-x="488" 
d="M482 419l-82 -72q-14 20 -42 33.5t-57 13.5q-62 0 -97 -46.5t-35 -107.5q0 -62 36 -108t100 -46q66 0 101 43l75 -76q-58 -62 -165 -67l-35 -50q8 1 19 1q105 0 105 -83q0 -50 -41 -72t-95 -22q-61 0 -110 26l23 48q38 -20 82 -20q57 0 57 41q0 36 -53 36q-21 0 -39 -6
l-23 25l54 79q-95 13 -155.5 79.5t-60.5 171.5q0 114 74 184t183 70q53 0 103 -20t78 -55z" />
    <glyph glyph-name="egrave" unicode="&#xe8;" horiz-adv-x="574" 
d="M164 288h246q0 50 -29 83t-84 33q-53 0 -91 -33t-42 -83zM530 234q0 -21 -1 -32h-365q4 -50 44 -84t93 -34q83 0 127 62l80 -64q-71 -96 -206 -96q-113 0 -185.5 68t-72.5 183t72 186t182 71q104 0 168 -67t64 -193zM260 708l99 -144h-94l-141 144h136z" />
    <glyph glyph-name="eacute" unicode="&#xe9;" horiz-adv-x="574" 
d="M164 288h246q0 50 -29 83t-84 33q-53 0 -91 -33t-42 -83zM530 234q0 -21 -1 -32h-365q4 -50 44 -84t93 -34q83 0 127 62l80 -64q-71 -96 -206 -96q-113 0 -185.5 68t-72.5 183t72 186t182 71q104 0 168 -67t64 -193zM231 564l99 144h136l-141 -144h-94z" />
    <glyph glyph-name="ecircumflex" unicode="&#xea;" horiz-adv-x="574" 
d="M164 288h246q0 50 -29 83t-84 33q-53 0 -91 -33t-42 -83zM530 234q0 -21 -1 -32h-365q4 -50 44 -84t93 -34q83 0 127 62l80 -64q-71 -96 -206 -96q-113 0 -185.5 68t-72.5 183t72 186t182 71q104 0 168 -67t64 -193zM484 564h-114l-69 90l-69 -90h-112l115 144h135z" />
    <glyph glyph-name="edieresis" unicode="&#xeb;" horiz-adv-x="574" 
d="M164 288h246q0 50 -29 83t-84 33q-53 0 -91 -33t-42 -83zM530 234q0 -21 -1 -32h-365q4 -50 44 -84t93 -34q83 0 127 62l80 -64q-71 -96 -206 -96q-113 0 -185.5 68t-72.5 183t72 186t182 71q104 0 168 -67t64 -193zM130 644q0 28 20.5 49t50.5 21q31 0 52 -20t21 -50
t-21 -50t-52 -20q-30 0 -50.5 21t-20.5 49zM326 644q0 28 20.5 49t50.5 21q31 0 52 -20t21 -50t-21 -50t-52 -20q-30 0 -50.5 21t-20.5 49z" />
    <glyph glyph-name="igrave" unicode="&#xec;" horiz-adv-x="268" 
d="M74 0v480h120v-480h-120zM94 708l99 -144h-94l-141 144h136z" />
    <glyph glyph-name="iacute" unicode="&#xed;" horiz-adv-x="268" 
d="M74 0v480h120v-480h-120zM75 564l99 144h136l-141 -144h-94z" />
    <glyph glyph-name="icircumflex" unicode="&#xee;" horiz-adv-x="268" 
d="M74 0v480h120v-480h-120zM317 564h-114l-69 90l-69 -90h-112l115 144h135z" />
    <glyph glyph-name="idieresis" unicode="&#xef;" horiz-adv-x="268" 
d="M74 0v480h120v-480h-120zM-35 644q0 28 20.5 49t50.5 21q31 0 52 -20t21 -50t-21 -50t-52 -20q-30 0 -50.5 21t-20.5 49zM161 644q0 28 20.5 49t50.5 21q31 0 52 -20t21 -50t-21 -50t-52 -20q-30 0 -50.5 21t-20.5 49z" />
    <glyph glyph-name="eth" unicode="&#xf0;" 
d="M442 768l64 -56l-117 -54q178 -195 178 -386q0 -127 -68.5 -206.5t-193.5 -79.5q-112 0 -186.5 71t-74.5 183q0 111 73.5 182.5t179.5 71.5q71 0 112 -40l2 2q-64 104 -127 156l-108 -50l-60 57l110 50q-21 23 -78 65l94 55q46 -36 87 -74zM305 86q67 0 104 46t37 108
t-37 108t-104 46t-104 -46t-37 -108t37 -108t104 -46z" />
    <glyph glyph-name="ntilde" unicode="&#xf1;" horiz-adv-x="582" 
d="M72 0v480h114v-77h2q17 38 57.5 64.5t91.5 26.5q88 0 132.5 -56.5t44.5 -137.5v-300h-120v266q0 128 -90 128q-54 0 -83 -38.5t-29 -91.5v-264h-120zM175 568h-66q22 127 112 127q36 0 79 -18q45 -19 65 -19q33 0 46 42h66q-22 -127 -112 -127q-37 0 -82 20
q-39 18 -62 18q-32 0 -46 -43z" />
    <glyph glyph-name="ograve" unicode="&#xf2;" 
d="M44 242q0 111 75 181.5t186 70.5t186 -70.5t75 -181.5q0 -112 -75.5 -184t-185.5 -72t-185.5 72t-75.5 184zM166 242q0 -62 36 -109t103 -47t103 47t36 109t-36 108t-103 46t-103 -46t-36 -108zM280 708l99 -144h-94l-141 144h136z" />
    <glyph glyph-name="oacute" unicode="&#xf3;" 
d="M44 242q0 111 75 181.5t186 70.5t186 -70.5t75 -181.5q0 -112 -75.5 -184t-185.5 -72t-185.5 72t-75.5 184zM166 242q0 -62 36 -109t103 -47t103 47t36 109t-36 108t-103 46t-103 -46t-36 -108zM233 564l99 144h136l-141 -144h-94z" />
    <glyph glyph-name="ocircumflex" unicode="&#xf4;" 
d="M44 242q0 111 75 181.5t186 70.5t186 -70.5t75 -181.5q0 -112 -75.5 -184t-185.5 -72t-185.5 72t-75.5 184zM166 242q0 -62 36 -109t103 -47t103 47t36 109t-36 108t-103 46t-103 -46t-36 -108zM489 564h-114l-69 90l-69 -90h-112l115 144h135z" />
    <glyph glyph-name="otilde" unicode="&#xf5;" 
d="M44 242q0 111 75 181.5t186 70.5t186 -70.5t75 -181.5q0 -112 -75.5 -184t-185.5 -72t-185.5 72t-75.5 184zM166 242q0 -62 36 -109t103 -47t103 47t36 109t-36 108t-103 46t-103 -46t-36 -108zM189 568h-66q22 127 112 127q36 0 79 -18q45 -19 65 -19q33 0 46 42h66
q-22 -127 -112 -127q-37 0 -82 20q-39 18 -62 18q-32 0 -46 -43z" />
    <glyph glyph-name="odieresis" unicode="&#xf6;" 
d="M44 242q0 111 75 181.5t186 70.5t186 -70.5t75 -181.5q0 -112 -75.5 -184t-185.5 -72t-185.5 72t-75.5 184zM166 242q0 -62 36 -109t103 -47t103 47t36 109t-36 108t-103 46t-103 -46t-36 -108zM137 644q0 28 20.5 49t50.5 21q31 0 52 -20t21 -50t-21 -50t-52 -20
q-30 0 -50.5 21t-20.5 49zM333 644q0 28 20.5 49t50.5 21q31 0 52 -20t21 -50t-21 -50t-52 -20q-30 0 -50.5 21t-20.5 49z" />
    <glyph glyph-name="divide" unicode="&#xf7;" horiz-adv-x="666" 
d="M258 483q0 31 22 53t53 22t53 -22t22 -53t-22 -53t-53 -22t-53 22t-22 53zM258 123q0 31 22 53t53 22t53 -22t22 -53t-22 -53t-53 -22t-53 22t-22 53zM586 250h-506v107h506v-107z" />
    <glyph glyph-name="oslash" unicode="&#xf8;" 
d="M184 156l207 213q-36 31 -86 31q-68 0 -105.5 -49t-37.5 -112q0 -54 22 -83zM427 326l-209 -212q32 -31 87 -31q71 0 107 47.5t36 111.5q0 51 -21 84zM533 516l42 -40l-69 -71q60 -69 60 -165q0 -112 -75 -183t-186 -71q-94 0 -159 51l-70 -71l-40 41l67 68
q-59 67 -59 165q0 112 75 183t186 71q94 0 158 -50z" />
    <glyph glyph-name="ugrave" unicode="&#xf9;" horiz-adv-x="582" 
d="M510 480v-480h-114v77h-2q-17 -38 -57.5 -64.5t-91.5 -26.5q-88 0 -132.5 56.5t-44.5 137.5v300h120v-266q0 -128 90 -128q54 0 83 38.5t29 91.5v264h120zM264 708l99 -144h-94l-141 144h136z" />
    <glyph glyph-name="uacute" unicode="&#xfa;" horiz-adv-x="582" 
d="M510 480v-480h-114v77h-2q-17 -38 -57.5 -64.5t-91.5 -26.5q-88 0 -132.5 56.5t-44.5 137.5v300h120v-266q0 -128 90 -128q54 0 83 38.5t29 91.5v264h120zM225 564l99 144h136l-141 -144h-94z" />
    <glyph glyph-name="ucircumflex" unicode="&#xfb;" horiz-adv-x="582" 
d="M510 480v-480h-114v77h-2q-17 -38 -57.5 -64.5t-91.5 -26.5q-88 0 -132.5 56.5t-44.5 137.5v300h120v-266q0 -128 90 -128q54 0 83 38.5t29 91.5v264h120zM475 564h-114l-69 90l-69 -90h-112l115 144h135z" />
    <glyph glyph-name="udieresis" unicode="&#xfc;" horiz-adv-x="582" 
d="M510 480v-480h-114v77h-2q-17 -38 -57.5 -64.5t-91.5 -26.5q-88 0 -132.5 56.5t-44.5 137.5v300h120v-266q0 -128 90 -128q54 0 83 38.5t29 91.5v264h120zM122 644q0 28 20.5 49t50.5 21q31 0 52 -20t21 -50t-21 -50t-52 -20q-30 0 -50.5 21t-20.5 49zM318 644
q0 28 20.5 49t50.5 21q31 0 52 -20t21 -50t-21 -50t-52 -20q-30 0 -50.5 21t-20.5 49z" />
    <glyph glyph-name="yacute" unicode="&#xfd;" horiz-adv-x="513" 
d="M206 0l-206 480h133l134 -349h2l119 349h125l-227 -583q-28 -71 -67.5 -104t-114.5 -33q-33 0 -62 7l10 104q22 -7 45 -7q36 0 52 16.5t33 58.5zM205 564l99 144h136l-141 -144h-94z" />
    <glyph glyph-name="thorn" unicode="&#xfe;" horiz-adv-x="635" 
d="M74 756h120v-337h3q60 75 161 75q102 0 167.5 -72t65.5 -180t-64.5 -182t-171.5 -74q-51 0 -95 22t-64 58h-2v-294h-120v984zM469 242q0 62 -36.5 108t-101.5 46q-63 0 -102 -48t-39 -108t39 -107t102 -47q65 0 101.5 47t36.5 109z" />
    <glyph glyph-name="ydieresis" unicode="&#xff;" horiz-adv-x="513" 
d="M206 0l-206 480h133l134 -349h2l119 349h125l-227 -583q-28 -71 -67.5 -104t-114.5 -33q-33 0 -62 7l10 104q22 -7 45 -7q36 0 52 16.5t33 58.5zM98 644q0 28 20.5 49t50.5 21q31 0 52 -20t21 -50t-21 -50t-52 -20q-30 0 -50.5 21t-20.5 49zM294 644q0 28 20.5 49
t50.5 21q31 0 52 -20t21 -50t-21 -50t-52 -20q-30 0 -50.5 21t-20.5 49z" />
    <glyph glyph-name="Amacron" unicode="&#x100;" horiz-adv-x="706" 
d="M-8 0l308 708h109l305 -708h-144l-66 162h-307l-64 -162h-141zM240 270h220l-109 288zM515 873v-78h-320v78h320z" />
    <glyph glyph-name="amacron" unicode="&#x101;" horiz-adv-x="550" 
d="M370 0v61h-3q-18 -32 -58.5 -52.5t-90.5 -20.5q-69 0 -124.5 36.5t-55.5 112.5q0 41 20.5 71.5t51.5 47.5t77.5 27.5t88 13.5t92.5 3v12q0 42 -31 65t-79 23q-76 0 -131 -55l-62 73q82 76 203 76q62 0 105.5 -17.5t66.5 -48t32.5 -64t9.5 -72.5v-292h-112zM368 202v17
h-27q-183 0 -183 -80q0 -32 24.5 -46t59.5 -14q61 0 93.5 32.5t32.5 90.5zM444 673v-78h-320v78h320z" />
    <glyph glyph-name="Abreve" unicode="&#x102;" horiz-adv-x="706" 
d="M-8 0l308 708h109l305 -708h-144l-66 162h-307l-64 -162h-141zM240 270h220l-109 288zM184 908h67q12 -66 103 -66q46 0 70 13t34 53h66q-7 -72 -52.5 -108t-118.5 -36q-74 0 -119.5 36t-49.5 108z" />
    <glyph glyph-name="abreve" unicode="&#x103;" horiz-adv-x="550" 
d="M370 0v61h-3q-18 -32 -58.5 -52.5t-90.5 -20.5q-69 0 -124.5 36.5t-55.5 112.5q0 41 20.5 71.5t51.5 47.5t77.5 27.5t88 13.5t92.5 3v12q0 42 -31 65t-79 23q-76 0 -131 -55l-62 73q82 76 203 76q62 0 105.5 -17.5t66.5 -48t32.5 -64t9.5 -72.5v-292h-112zM368 202v17
h-27q-183 0 -183 -80q0 -32 24.5 -46t59.5 -14q61 0 93.5 32.5t32.5 90.5zM109 708h67q12 -66 103 -66q46 0 70 13t34 53h66q-7 -72 -52.5 -108t-118.5 -36q-74 0 -119.5 36t-49.5 108z" />
    <glyph glyph-name="Aogonek" unicode="&#x104;" horiz-adv-x="706" 
d="M653 -147l25 -49q-48 -38 -100 -38q-42 0 -72.5 24t-30.5 65q0 38 28.5 77.5t65.5 68.5l-65 161h-307l-64 -162h-141l308 708h109l305 -708h-85q-76 -71 -76 -122q0 -19 13.5 -32.5t32.5 -13.5q29 0 54 21zM240 270h220l-109 288z" />
    <glyph glyph-name="aogonek" unicode="&#x105;" horiz-adv-x="550" 
d="M447 -147l25 -49q-48 -38 -100 -38q-42 0 -72.5 24t-30.5 65q0 39 30.5 80t69.5 71h1v55h-3q-18 -32 -58.5 -52.5t-90.5 -20.5q-69 0 -124.5 36.5t-55.5 112.5q0 41 20.5 71.5t51.5 47.5t77.5 27.5t88 13.5t92.5 3v12q0 42 -31 65t-79 23q-76 0 -131 -55l-62 73
q82 76 203 76q62 0 105.5 -17.5t66.5 -48t32.5 -64t9.5 -72.5v-292h-59q-76 -71 -76 -122q0 -19 13.5 -32.5t32.5 -13.5q29 0 54 21zM368 202v17h-27q-183 0 -183 -80q0 -32 24.5 -46t59.5 -14q61 0 93.5 32.5t32.5 90.5z" />
    <glyph glyph-name="Cacute" unicode="&#x106;" horiz-adv-x="696" 
d="M685 618l-96 -76q-26 36 -70.5 54.5t-90.5 18.5q-108 0 -176.5 -74t-68.5 -185q0 -116 65.5 -188.5t174.5 -72.5q112 0 172 82l101 -71q-99 -124 -274 -124q-166 0 -272 104.5t-106 269.5q0 167 108.5 268.5t275.5 101.5q74 0 145.5 -27.5t111.5 -80.5zM330 764l99 144
h136l-141 -144h-94z" />
    <glyph glyph-name="cacute" unicode="&#x107;" horiz-adv-x="488" 
d="M482 419l-82 -72q-14 20 -42 33.5t-57 13.5q-62 0 -97 -46.5t-35 -107.5q0 -62 36 -108t100 -46q66 0 101 43l75 -76q-62 -67 -177 -67q-110 0 -185 69t-75 185q0 114 74 184t183 70q53 0 103 -20t78 -55zM229 564l99 144h136l-141 -144h-94z" />
    <glyph glyph-name="Ccircumflex" unicode="&#x108;" horiz-adv-x="696" 
d="M685 618l-96 -76q-26 36 -70.5 54.5t-90.5 18.5q-108 0 -176.5 -74t-68.5 -185q0 -116 65.5 -188.5t174.5 -72.5q112 0 172 82l101 -71q-99 -124 -274 -124q-166 0 -272 104.5t-106 269.5q0 167 108.5 268.5t275.5 101.5q74 0 145.5 -27.5t111.5 -80.5zM611 764h-114
l-69 90l-69 -90h-112l115 144h135z" />
    <glyph glyph-name="ccircumflex" unicode="&#x109;" horiz-adv-x="488" 
d="M482 419l-82 -72q-14 20 -42 33.5t-57 13.5q-62 0 -97 -46.5t-35 -107.5q0 -62 36 -108t100 -46q66 0 101 43l75 -76q-62 -67 -177 -67q-110 0 -185 69t-75 185q0 114 74 184t183 70q53 0 103 -20t78 -55zM483 564h-114l-69 90l-69 -90h-112l115 144h135z" />
    <glyph glyph-name="Cdotaccent" unicode="&#x10a;" horiz-adv-x="696" 
d="M685 618l-96 -76q-26 36 -70.5 54.5t-90.5 18.5q-108 0 -176.5 -74t-68.5 -185q0 -116 65.5 -188.5t174.5 -72.5q112 0 172 82l101 -71q-99 -124 -274 -124q-166 0 -272 104.5t-106 269.5q0 167 108.5 268.5t275.5 101.5q74 0 145.5 -27.5t111.5 -80.5zM349 843
q0 29 22 50.5t54 21.5q33 0 55.5 -20.5t22.5 -51.5t-22.5 -51.5t-55.5 -20.5q-32 0 -54 21.5t-22 50.5z" />
    <glyph glyph-name="cdotaccent" unicode="&#x10b;" horiz-adv-x="488" 
d="M482 419l-82 -72q-14 20 -42 33.5t-57 13.5q-62 0 -97 -46.5t-35 -107.5q0 -62 36 -108t100 -46q66 0 101 43l75 -76q-62 -67 -177 -67q-110 0 -185 69t-75 185q0 114 74 184t183 70q53 0 103 -20t78 -55zM222 643q0 29 22 50.5t54 21.5q33 0 55.5 -20.5t22.5 -51.5
t-22.5 -51.5t-55.5 -20.5q-32 0 -54 21.5t-22 50.5z" />
    <glyph glyph-name="Ccaron" unicode="&#x10c;" horiz-adv-x="696" 
d="M685 618l-96 -76q-26 36 -70.5 54.5t-90.5 18.5q-108 0 -176.5 -74t-68.5 -185q0 -116 65.5 -188.5t174.5 -72.5q112 0 172 82l101 -71q-99 -124 -274 -124q-166 0 -272 104.5t-106 269.5q0 167 108.5 268.5t275.5 101.5q74 0 145.5 -27.5t111.5 -80.5zM243 908h114
l69 -90l69 90h110l-115 -144h-133z" />
    <glyph glyph-name="ccaron" unicode="&#x10d;" horiz-adv-x="488" 
d="M482 419l-82 -72q-14 20 -42 33.5t-57 13.5q-62 0 -97 -46.5t-35 -107.5q0 -62 36 -108t100 -46q66 0 101 43l75 -76q-62 -67 -177 -67q-110 0 -185 69t-75 185q0 114 74 184t183 70q53 0 103 -20t78 -55zM121 708h114l69 -90l69 90h110l-115 -144h-133z" />
    <glyph glyph-name="Dcaron" unicode="&#x10e;" horiz-adv-x="764" 
d="M78 0v708h251q74 0 140 -18.5t124 -58t92.5 -111t34.5 -166.5q0 -89 -34.5 -159t-92 -111.5t-125 -62.5t-139.5 -21h-251zM204 110h105q41 0 78.5 7t74.5 24.5t63.5 44t43 70t16.5 98.5q0 246 -276 246h-105v-490zM163 908h114l69 -90l69 90h110l-115 -144h-133z" />
    <glyph glyph-name="dcaron" unicode="&#x10f;" horiz-adv-x="720" 
d="M560 756v-756h-114v72h-2q-24 -41 -69 -63.5t-96 -22.5q-107 0 -171.5 74t-64.5 182t65.5 180t167.5 72q101 0 161 -75h3v337h120zM165 242q0 -62 36.5 -109t101.5 -47q63 0 102 47t39 107t-39 108t-102 48q-65 0 -101.5 -46t-36.5 -108zM587 513l65 195h106l-80 -195
h-91z" />
    <glyph glyph-name="Dcroat" unicode="&#x110;" horiz-adv-x="764" 
d="M79 0v324h-66v84h66v300h279q150 0 255 -92t105 -262q0 -87 -34.5 -157t-90 -111.5t-120 -63.5t-130.5 -22h-264zM205 114h94q128 0 207.5 59t79.5 181q0 123 -71.5 181.5t-194.5 58.5h-115v-186h216v-84h-216v-210z" />
    <glyph glyph-name="dcroat" unicode="&#x111;" horiz-adv-x="634" 
d="M614 645v-75h-54v-570h-114v72h-2q-24 -41 -69 -63.5t-96 -22.5q-107 0 -171.5 74t-64.5 182t65.5 180t167.5 72q101 0 161 -75h3v151h-170v75h170v111h120v-111h54zM165 242q0 -62 36.5 -109t101.5 -47q63 0 102 47t39 107t-39 108t-102 48q-65 0 -101.5 -46t-36.5 -108
z" />
    <glyph glyph-name="Emacron" unicode="&#x112;" 
d="M78 0v708h469v-110h-343v-180h325v-106h-325v-200h361v-112h-487zM477 873v-78h-320v78h320z" />
    <glyph glyph-name="emacron" unicode="&#x113;" horiz-adv-x="574" 
d="M164 288h246q0 50 -29 83t-84 33q-53 0 -91 -33t-42 -83zM530 234q0 -21 -1 -32h-365q4 -50 44 -84t93 -34q83 0 127 62l80 -64q-71 -96 -206 -96q-113 0 -185.5 68t-72.5 183t72 186t182 71q104 0 168 -67t64 -193zM459 673v-78h-320v78h320z" />
    <glyph glyph-name="Ebreve" unicode="&#x114;" 
d="M78 0v708h469v-110h-343v-180h325v-106h-325v-200h361v-112h-487zM146 908h67q12 -66 103 -66q46 0 70 13t34 53h66q-7 -72 -52.5 -108t-118.5 -36q-74 0 -119.5 36t-49.5 108z" />
    <glyph glyph-name="ebreve" unicode="&#x115;" horiz-adv-x="574" 
d="M164 288h246q0 50 -29 83t-84 33q-53 0 -91 -33t-42 -83zM530 234q0 -21 -1 -32h-365q4 -50 44 -84t93 -34q83 0 127 62l80 -64q-71 -96 -206 -96q-113 0 -185.5 68t-72.5 183t72 186t182 71q104 0 168 -67t64 -193zM131 708h67q12 -66 103 -66q46 0 70 13t34 53h66
q-7 -72 -52.5 -108t-118.5 -36q-74 0 -119.5 36t-49.5 108z" />
    <glyph glyph-name="Edotaccent" unicode="&#x116;" 
d="M78 0v708h469v-110h-343v-180h325v-106h-325v-200h361v-112h-487zM244 843q0 29 22 50.5t54 21.5q33 0 55.5 -20.5t22.5 -51.5t-22.5 -51.5t-55.5 -20.5q-32 0 -54 21.5t-22 50.5z" />
    <glyph glyph-name="edotaccent" unicode="&#x117;" horiz-adv-x="574" 
d="M164 288h246q0 50 -29 83t-84 33q-53 0 -91 -33t-42 -83zM530 234q0 -21 -1 -32h-365q4 -50 44 -84t93 -34q83 0 127 62l80 -64q-71 -96 -206 -96q-113 0 -185.5 68t-72.5 183t72 186t182 71q104 0 168 -67t64 -193zM222 643q0 29 22 50.5t54 21.5q33 0 55.5 -20.5
t22.5 -51.5t-22.5 -51.5t-55.5 -20.5q-32 0 -54 21.5t-22 50.5z" />
    <glyph glyph-name="Eogonek" unicode="&#x118;" 
d="M78 0v708h469v-110h-343v-180h325v-106h-325v-200h361v-112h-26q-76 -71 -76 -122q0 -19 13.5 -32.5t32.5 -13.5q29 0 54 21l25 -49q-48 -38 -100 -38q-42 0 -72.5 24t-30.5 65q0 37 27.5 76t64.5 69h-399z" />
    <glyph glyph-name="eogonek" unicode="&#x119;" horiz-adv-x="574" 
d="M395 -147l25 -49q-48 -38 -100 -38q-42 0 -72.5 24t-30.5 65q0 63 76 131q-110 3 -179.5 70.5t-69.5 180.5q0 115 72 186t182 71q104 0 168 -67t64 -193q0 -21 -1 -32h-365q4 -50 44 -84t93 -34q83 0 127 62l80 -64q-54 -73 -146 -90q-67 -67 -67 -114q0 -19 13.5 -32.5
t32.5 -13.5q29 0 54 21zM164 288h246q0 50 -29 83t-84 33q-53 0 -91 -33t-42 -83z" />
    <glyph glyph-name="Ecaron" unicode="&#x11a;" 
d="M78 0v708h469v-110h-343v-180h325v-106h-325v-200h361v-112h-487zM135 908h114l69 -90l69 90h110l-115 -144h-133z" />
    <glyph glyph-name="ecaron" unicode="&#x11b;" horiz-adv-x="574" 
d="M164 288h246q0 50 -29 83t-84 33q-53 0 -91 -33t-42 -83zM530 234q0 -21 -1 -32h-365q4 -50 44 -84t93 -34q83 0 127 62l80 -64q-71 -96 -206 -96q-113 0 -185.5 68t-72.5 183t72 186t182 71q104 0 168 -67t64 -193zM120 708h114l69 -90l69 90h110l-115 -144h-133z" />
    <glyph glyph-name="Gcircumflex" unicode="&#x11c;" horiz-adv-x="773" 
d="M698 404v-367q-115 -55 -267 -55q-171 0 -279 104t-108 270q0 167 108.5 268.5t275.5 101.5q82 0 153.5 -24t115.5 -65l-87 -94q-28 31 -77 51.5t-104 20.5q-110 0 -178 -74t-68 -185q0 -115 68.5 -188t183.5 -73q81 0 141 25v180h-149v104h271zM613 764h-114l-69 90
l-69 -90h-112l115 144h135z" />
    <glyph glyph-name="gcircumflex" unicode="&#x11d;" horiz-adv-x="632" 
d="M446 480h114v-437q0 -134 -67.5 -208.5t-203.5 -74.5q-61 0 -127 21t-111 58l69 93q71 -68 168 -68q152 0 152 165v35h-2q-54 -72 -157 -72q-105 0 -171 72.5t-66 177.5q0 107 64.5 179.5t170.5 72.5q113 0 165 -86h2v72zM304 396q-63 0 -100.5 -43.5t-37.5 -109.5
q0 -61 37.5 -106.5t99.5 -45.5q64 0 103.5 44.5t39.5 107.5q0 64 -39 108.5t-103 44.5zM507 564h-114l-69 90l-69 -90h-112l115 144h135z" />
    <glyph glyph-name="Gbreve" unicode="&#x11e;" horiz-adv-x="773" 
d="M698 404v-367q-115 -55 -267 -55q-171 0 -279 104t-108 270q0 167 108.5 268.5t275.5 101.5q82 0 153.5 -24t115.5 -65l-87 -94q-28 31 -77 51.5t-104 20.5q-110 0 -178 -74t-68 -185q0 -115 68.5 -188t183.5 -73q81 0 141 25v180h-149v104h271zM260 908h67
q12 -66 103 -66q46 0 70 13t34 53h66q-7 -72 -52.5 -108t-118.5 -36q-74 0 -119.5 36t-49.5 108z" />
    <glyph glyph-name="gbreve" unicode="&#x11f;" horiz-adv-x="632" 
d="M446 480h114v-437q0 -134 -67.5 -208.5t-203.5 -74.5q-61 0 -127 21t-111 58l69 93q71 -68 168 -68q152 0 152 165v35h-2q-54 -72 -157 -72q-105 0 -171 72.5t-66 177.5q0 107 64.5 179.5t170.5 72.5q113 0 165 -86h2v72zM304 396q-63 0 -100.5 -43.5t-37.5 -109.5
q0 -61 37.5 -106.5t99.5 -45.5q64 0 103.5 44.5t39.5 107.5q0 64 -39 108.5t-103 44.5zM143 708h67q12 -66 103 -66q46 0 70 13t34 53h66q-7 -72 -52.5 -108t-118.5 -36q-74 0 -119.5 36t-49.5 108z" />
    <glyph glyph-name="Gdotaccent" unicode="&#x120;" horiz-adv-x="773" 
d="M698 404v-367q-115 -55 -267 -55q-171 0 -279 104t-108 270q0 167 108.5 268.5t275.5 101.5q82 0 153.5 -24t115.5 -65l-87 -94q-28 31 -77 51.5t-104 20.5q-110 0 -178 -74t-68 -185q0 -115 68.5 -188t183.5 -73q81 0 141 25v180h-149v104h271zM354 843q0 29 22 50.5
t54 21.5q33 0 55.5 -20.5t22.5 -51.5t-22.5 -51.5t-55.5 -20.5q-32 0 -54 21.5t-22 50.5z" />
    <glyph glyph-name="gdotaccent" unicode="&#x121;" horiz-adv-x="632" 
d="M446 480h114v-437q0 -134 -67.5 -208.5t-203.5 -74.5q-61 0 -127 21t-111 58l69 93q71 -68 168 -68q152 0 152 165v35h-2q-54 -72 -157 -72q-105 0 -171 72.5t-66 177.5q0 107 64.5 179.5t170.5 72.5q113 0 165 -86h2v72zM304 396q-63 0 -100.5 -43.5t-37.5 -109.5
q0 -61 37.5 -106.5t99.5 -45.5q64 0 103.5 44.5t39.5 107.5q0 64 -39 108.5t-103 44.5zM239 643q0 29 22 50.5t54 21.5q33 0 55.5 -20.5t22.5 -51.5t-22.5 -51.5t-55.5 -20.5q-32 0 -54 21.5t-22 50.5z" />
    <glyph glyph-name="Gcommaaccent" unicode="&#x122;" horiz-adv-x="773" 
d="M698 404v-367q-115 -55 -267 -55q-171 0 -279 104t-108 270q0 167 108.5 268.5t275.5 101.5q82 0 153.5 -24t115.5 -65l-87 -94q-28 31 -77 51.5t-104 20.5q-110 0 -178 -74t-68 -185q0 -115 68.5 -188t183.5 -73q81 0 141 25v180h-149v104h271zM321 -240l65 195h106
l-80 -195h-91z" />
    <glyph glyph-name="gcommaaccent" unicode="&#x123;" horiz-adv-x="632" 
d="M446 480h114v-437q0 -134 -67.5 -208.5t-203.5 -74.5q-61 0 -127 21t-111 58l69 93q71 -68 168 -68q152 0 152 165v35h-2q-54 -72 -157 -72q-105 0 -171 72.5t-66 177.5q0 107 64.5 179.5t170.5 72.5q113 0 165 -86h2v72zM304 396q-63 0 -100.5 -43.5t-37.5 -109.5
q0 -61 37.5 -106.5t99.5 -45.5q64 0 103.5 44.5t39.5 107.5q0 64 -39 108.5t-103 44.5zM400 759l-65 -195h-106l80 195h91z" />
    <glyph glyph-name="Hcircumflex" unicode="&#x124;" horiz-adv-x="739" 
d="M78 0v708h126v-286h331v286h126v-708h-126v314h-331v-314h-126zM553 764h-114l-69 90l-69 -90h-112l115 144h135z" />
    <glyph glyph-name="hcircumflex" unicode="&#x125;" horiz-adv-x="584" 
d="M339 494q88 0 132.5 -56.5t44.5 -137.5v-300h-120v264q0 127 -89 127q-54 0 -83.5 -38.5t-29.5 -90.5v-262h-120v756h120v-343h2q16 33 54.5 57t88.5 24zM476 796h-114l-69 90l-69 -90h-112l115 144h135z" />
    <glyph glyph-name="Hbar" unicode="&#x126;" horiz-adv-x="739" 
d="M78 0v708h126v-133h331v133h126v-708h-126v314h-331v-314h-126zM204 422h331v78h-331v-78z" />
    <glyph glyph-name="hbar" unicode="&#x127;" horiz-adv-x="584" 
d="M364 645v-75h-170v-157h2q16 33 54.5 57t88.5 24q88 0 132.5 -56.5t44.5 -137.5v-300h-120v264q0 127 -89 127q-54 0 -83.5 -38.5t-29.5 -90.5v-262h-120v570h-54v75h54v111h120v-111h170z" />
    <glyph glyph-name="Itilde" unicode="&#x128;" horiz-adv-x="282" 
d="M78 0v708h126v-708h-126zM23 768h-66q22 127 112 127q36 0 79 -18q45 -19 65 -19q33 0 46 42h66q-22 -127 -112 -127q-37 0 -82 20q-39 18 -62 18q-32 0 -46 -43z" />
    <glyph glyph-name="itilde" unicode="&#x129;" horiz-adv-x="268" 
d="M74 0v480h120v-480h-120zM18 568h-66q22 127 112 127q36 0 79 -18q45 -19 65 -19q33 0 46 42h66q-22 -127 -112 -127q-37 0 -82 20q-39 18 -62 18q-32 0 -46 -43z" />
    <glyph glyph-name="Imacron" unicode="&#x12a;" horiz-adv-x="282" 
d="M78 0v708h126v-708h-126zM301 873v-78h-320v78h320z" />
    <glyph glyph-name="imacron" unicode="&#x12b;" horiz-adv-x="268" 
d="M74 0v480h120v-480h-120zM296 673v-78h-320v78h320z" />
    <glyph glyph-name="Ibreve" unicode="&#x12c;" horiz-adv-x="282" 
d="M78 0v708h126v-708h-126zM-29 908h67q12 -66 103 -66q46 0 70 13t34 53h66q-7 -72 -52.5 -108t-118.5 -36q-74 0 -119.5 36t-49.5 108z" />
    <glyph glyph-name="ibreve" unicode="&#x12d;" horiz-adv-x="268" 
d="M74 0v480h120v-480h-120zM-36 708h67q12 -66 103 -66q46 0 70 13t34 53h66q-7 -72 -52.5 -108t-118.5 -36q-74 0 -119.5 36t-49.5 108z" />
    <glyph glyph-name="Iogonek" unicode="&#x12e;" horiz-adv-x="282" 
d="M78 0v708h126v-708h-13q-76 -71 -76 -122q0 -19 13.5 -32.5t32.5 -13.5q29 0 54 21l25 -49q-48 -38 -100 -38q-42 0 -72.5 24t-30.5 65q0 37 27.5 76t64.5 69h-51z" />
    <glyph glyph-name="iogonek" unicode="&#x12f;" horiz-adv-x="268" 
d="M74 0v480h120v-480h-19q-76 -71 -76 -122q0 -19 13.5 -32.5t32.5 -13.5q29 0 54 21l25 -49q-48 -38 -100 -38q-42 0 -72.5 24t-30.5 65q0 37 27.5 76t64.5 69h-39zM57 643q0 29 22 50.5t54 21.5q33 0 55.5 -20.5t22.5 -51.5t-22.5 -51.5t-55.5 -20.5q-32 0 -54 21.5
t-22 50.5z" />
    <glyph glyph-name="Idotaccent" unicode="&#x130;" horiz-adv-x="282" 
d="M78 0v708h126v-708h-126zM63 843q0 29 22 50.5t54 21.5q33 0 55.5 -20.5t22.5 -51.5t-22.5 -51.5t-55.5 -20.5q-32 0 -54 21.5t-22 50.5z" />
    <glyph glyph-name="dotlessi" unicode="&#x131;" horiz-adv-x="268" 
d="M74 0v480h120v-480h-120z" />
    <glyph glyph-name="IJ" unicode="&#x132;" horiz-adv-x="770" 
d="M78 0v708h126v-708h-126zM698 708v-479q0 -34 -5 -65.5t-19.5 -65.5t-37 -59t-61.5 -41t-90 -16q-83 0 -136 42t-72 114l116 33q9 -35 33 -55.5t57 -20.5q51 0 70 35.5t19 102.5v475h126z" />
    <glyph glyph-name="ij" unicode="&#x133;" horiz-adv-x="536" 
d="M74 0v480h120v-480h-120zM57 643q0 29 22 50.5t54 21.5q33 0 55.5 -20.5t22.5 -51.5t-22.5 -51.5t-55.5 -20.5q-32 0 -54 21.5t-22 50.5zM342 480h120v-509q0 -47 -7.5 -82t-25.5 -66t-53.5 -47t-87.5 -16q-30 0 -54 6l10 102q15 -4 33 -4q39 0 52 26.5t13 75.5v514z
M325 643q0 29 22 50.5t54 21.5q33 0 55.5 -20.5t22.5 -51.5t-22.5 -51.5t-55.5 -20.5q-32 0 -54 21.5t-22 50.5z" />
    <glyph glyph-name="Jcircumflex" unicode="&#x134;" horiz-adv-x="498" 
d="M426 708v-479q0 -34 -5 -65.5t-19.5 -65.5t-37 -59t-61.5 -41t-90 -16q-83 0 -136 42t-72 114l116 33q9 -35 33 -55.5t57 -20.5q51 0 70 35.5t19 102.5v475h126zM544 764h-114l-69 90l-69 -90h-112l115 144h135z" />
    <glyph glyph-name="jcircumflex" unicode="&#x135;" horiz-adv-x="268" 
d="M74 480h120v-509q0 -47 -7.5 -82t-25.5 -66t-53.5 -47t-87.5 -16q-30 0 -54 6l10 102q15 -4 33 -4q39 0 52 26.5t13 75.5v514zM316 564h-114l-69 90l-69 -90h-112l115 144h135z" />
    <glyph glyph-name="Kcommaaccent" unicode="&#x136;" horiz-adv-x="689" 
d="M78 0v708h126v-306h3l296 306h170l-331 -327l353 -381h-177l-311 355h-3v-355h-126zM249 -240l65 195h106l-80 -195h-91z" />
    <glyph glyph-name="kcommaaccent" unicode="&#x137;" horiz-adv-x="543" 
d="M74 0v756h120v-478h3l182 202h154l-208 -217l221 -263h-159l-190 246h-3v-246h-120zM181 -240l65 195h106l-80 -195h-91z" />
    <glyph glyph-name="kgreenlandic" unicode="&#x138;" horiz-adv-x="543" 
d="M74 0v480h120v-202h3l182 202h154l-208 -217l221 -263h-159l-190 246h-3v-246h-120z" />
    <glyph glyph-name="Lacute" unicode="&#x139;" horiz-adv-x="511" 
d="M78 0v708h126v-596h301v-112h-427zM93 764l99 144h136l-141 -144h-94z" />
    <glyph glyph-name="lacute" unicode="&#x13a;" horiz-adv-x="268" 
d="M74 0v756h120v-756h-120zM74 792l99 144h136l-141 -144h-94z" />
    <glyph glyph-name="Lcommaaccent" unicode="&#x13b;" horiz-adv-x="511" 
d="M78 0v708h126v-596h301v-112h-427zM187 -240l65 195h106l-80 -195h-91z" />
    <glyph glyph-name="lcommaaccent" unicode="&#x13c;" horiz-adv-x="268" 
d="M74 0v756h120v-756h-120zM29 -240l65 195h106l-80 -195h-91z" />
    <glyph glyph-name="Lcaron" unicode="&#x13d;" horiz-adv-x="511" 
d="M78 0v708h126v-596h301v-112h-427zM266 513l65 195h106l-80 -195h-91z" />
    <glyph glyph-name="lcaron" unicode="&#x13e;" horiz-adv-x="352" 
d="M74 0v756h120v-756h-120zM219 513l65 195h106l-80 -195h-91z" />
    <glyph glyph-name="Ldot" unicode="&#x13f;" horiz-adv-x="511" 
d="M78 0v708h126v-596h301v-112h-427zM288 423q0 29 22 50.5t54 21.5q33 0 55.5 -20.5t22.5 -51.5t-22.5 -51.5t-55.5 -20.5q-32 0 -54 21.5t-22 50.5z" />
    <glyph glyph-name="ldot" unicode="&#x140;" horiz-adv-x="391" 
d="M74 0v756h120v-756h-120zM237 453q0 29 22 50.5t54 21.5q33 0 55.5 -20.5t22.5 -51.5t-22.5 -51.5t-55.5 -20.5q-32 0 -54 21.5t-22 50.5z" />
    <glyph glyph-name="Lslash" unicode="&#x141;" horiz-adv-x="511" 
d="M78 0v201l-70 -62v110l70 62v397h126v-300l206 181v-109l-206 -182v-186h301v-112h-427z" />
    <glyph glyph-name="lslash" unicode="&#x142;" horiz-adv-x="268" 
d="M74 0v298l-69 -69v109l69 69v349h120v-255l69 69v-107l-69 -68v-395h-120z" />
    <glyph glyph-name="Nacute" unicode="&#x143;" horiz-adv-x="780" 
d="M78 0v708h167l329 -530h2v530h126v-708h-160l-336 547h-2v-547h-126zM309 764l99 144h136l-141 -144h-94z" />
    <glyph glyph-name="nacute" unicode="&#x144;" horiz-adv-x="582" 
d="M72 0v480h114v-77h2q17 38 57.5 64.5t91.5 26.5q88 0 132.5 -56.5t44.5 -137.5v-300h-120v266q0 128 -90 128q-54 0 -83 -38.5t-29 -91.5v-264h-120zM217 564l99 144h136l-141 -144h-94z" />
    <glyph glyph-name="Ncommaaccent" unicode="&#x145;" horiz-adv-x="780" 
d="M78 0v708h167l329 -530h2v530h126v-708h-160l-336 547h-2v-547h-126zM289 -240l65 195h106l-80 -195h-91z" />
    <glyph glyph-name="ncommaaccent" unicode="&#x146;" horiz-adv-x="582" 
d="M72 0v480h114v-77h2q17 38 57.5 64.5t91.5 26.5q88 0 132.5 -56.5t44.5 -137.5v-300h-120v266q0 128 -90 128q-54 0 -83 -38.5t-29 -91.5v-264h-120zM189 -240l65 195h106l-80 -195h-91z" />
    <glyph glyph-name="Ncaron" unicode="&#x147;" horiz-adv-x="780" 
d="M78 0v708h167l329 -530h2v530h126v-708h-160l-336 547h-2v-547h-126zM208 908h114l69 -90l69 90h110l-115 -144h-133z" />
    <glyph glyph-name="ncaron" unicode="&#x148;" horiz-adv-x="582" 
d="M72 0v480h114v-77h2q17 38 57.5 64.5t91.5 26.5q88 0 132.5 -56.5t44.5 -137.5v-300h-120v266q0 128 -90 128q-54 0 -83 -38.5t-29 -91.5v-264h-120zM107 708h114l69 -90l69 90h110l-115 -144h-133z" />
    <glyph glyph-name="Eng" unicode="&#x14a;" horiz-adv-x="780" 
d="M78 0v708h167l329 -491h2v491h126v-737q0 -47 -7.5 -82t-25.5 -66t-53.5 -47t-87.5 -16q-30 0 -54 6l10 102q15 -4 33 -4q39 0 52 26.5t13 75.5v24l-376 557h-2v-547h-126z" />
    <glyph glyph-name="eng" unicode="&#x14b;" horiz-adv-x="582" 
d="M394 266q0 128 -90 128q-54 0 -83 -38.5t-29 -91.5v-264h-120v480h114v-77h2q17 38 57.5 64.5t91.5 26.5q88 0 132.5 -56.5t44.5 -137.5v-329q0 -47 -7.5 -82t-25.5 -66t-53.5 -47t-87.5 -16q-30 0 -54 6l10 102q15 -4 33 -4q39 0 52 26.5t13 75.5v300z" />
    <glyph glyph-name="Omacron" unicode="&#x14c;" horiz-adv-x="849" 
d="M44 356q0 168 106.5 269t272.5 101q168 0 275 -101t107 -269q0 -165 -107.5 -269.5t-274.5 -104.5q-165 0 -272 104.5t-107 269.5zM181 356q0 -114 68 -187.5t175 -73.5q108 0 176 73.5t68 187.5q0 111 -67.5 185t-176.5 74q-108 0 -175.5 -74t-67.5 -185zM585 873v-78
h-320v78h320z" />
    <glyph glyph-name="omacron" unicode="&#x14d;" 
d="M44 242q0 111 75 181.5t186 70.5t186 -70.5t75 -181.5q0 -112 -75.5 -184t-185.5 -72t-185.5 72t-75.5 184zM166 242q0 -62 36 -109t103 -47t103 47t36 109t-36 108t-103 46t-103 -46t-36 -108zM465 673v-78h-320v78h320z" />
    <glyph glyph-name="Obreve" unicode="&#x14e;" horiz-adv-x="849" 
d="M44 356q0 168 106.5 269t272.5 101q168 0 275 -101t107 -269q0 -165 -107.5 -269.5t-274.5 -104.5q-165 0 -272 104.5t-107 269.5zM181 356q0 -114 68 -187.5t175 -73.5q108 0 176 73.5t68 187.5q0 111 -67.5 185t-176.5 74q-108 0 -175.5 -74t-67.5 -185zM255 908h67
q12 -66 103 -66q46 0 70 13t34 53h66q-7 -72 -52.5 -108t-118.5 -36q-74 0 -119.5 36t-49.5 108z" />
    <glyph glyph-name="obreve" unicode="&#x14f;" 
d="M44 242q0 111 75 181.5t186 70.5t186 -70.5t75 -181.5q0 -112 -75.5 -184t-185.5 -72t-185.5 72t-75.5 184zM166 242q0 -62 36 -109t103 -47t103 47t36 109t-36 108t-103 46t-103 -46t-36 -108zM135 708h67q12 -66 103 -66q46 0 70 13t34 53h66q-7 -72 -52.5 -108
t-118.5 -36q-74 0 -119.5 36t-49.5 108z" />
    <glyph glyph-name="Ohungarumlaut" unicode="&#x150;" horiz-adv-x="849" 
d="M44 356q0 168 106.5 269t272.5 101q168 0 275 -101t107 -269q0 -165 -107.5 -269.5t-274.5 -104.5q-165 0 -272 104.5t-107 269.5zM181 356q0 -114 68 -187.5t175 -73.5q108 0 176 73.5t68 187.5q0 111 -67.5 185t-176.5 74q-108 0 -175.5 -74t-67.5 -185zM272 764
l99 144h136l-141 -144h-94zM477 764l99 144h136l-141 -144h-94z" />
    <glyph glyph-name="ohungarumlaut" unicode="&#x151;" 
d="M44 242q0 111 75 181.5t186 70.5t186 -70.5t75 -181.5q0 -112 -75.5 -184t-185.5 -72t-185.5 72t-75.5 184zM166 242q0 -62 36 -109t103 -47t103 47t36 109t-36 108t-103 46t-103 -46t-36 -108zM159 564l99 144h136l-141 -144h-94zM364 564l99 144h136l-141 -144h-94z
" />
    <glyph glyph-name="OE" unicode="&#x152;" horiz-adv-x="1027" 
d="M455 112h55v486h-55q-276 0 -276 -244q0 -68 24 -117.5t66 -75.5t87.5 -37.5t98.5 -11.5zM435 708h529v-110h-328v-180h310v-106h-310v-200h346v-112h-547q-72 0 -139.5 21t-125 62.5t-92 111.5t-34.5 159q0 95 34.5 166.5t92.5 111t124 58t140 18.5z" />
    <glyph glyph-name="oe" unicode="&#x153;" horiz-adv-x="959" 
d="M683 494q104 0 168 -67t64 -193q0 -21 -1 -32h-365q6 -52 45 -85t92 -33q82 0 127 63l79 -65q-70 -96 -206 -96q-62 0 -113 24.5t-82 66.5q-31 -42 -81 -66.5t-109 -24.5q-110 0 -183.5 72t-73.5 184t73.5 182t183.5 70q60 0 111 -25.5t82 -67.5q72 93 189 93zM166 242
q0 -62 36 -109t103 -47t103 47t36 109t-36 108t-103 46t-103 -46t-36 -108zM549 288h246q0 50 -29 83t-84 33q-53 0 -91 -33t-42 -83z" />
    <glyph glyph-name="Racute" unicode="&#x154;" horiz-adv-x="629" 
d="M78 0v708h246q71 0 127.5 -18.5t95 -66t38.5 -118.5q0 -75 -43 -124.5t-119 -66.5l189 -314h-152l-164 300h-92v-300h-126zM204 403h103q152 0 152 103q0 52 -41 74t-100 22h-114v-199zM224 764l99 144h136l-141 -144h-94z" />
    <glyph glyph-name="racute" unicode="&#x155;" horiz-adv-x="364" 
d="M72 0v480h115v-80h2q20 43 57 68.5t83 25.5q17 0 29 -3v-110q-20 5 -37 5q-31 0 -55 -10t-37.5 -25t-22 -33.5t-11.5 -33.5t-3 -27v-257h-120zM103 564l99 144h136l-141 -144h-94z" />
    <glyph glyph-name="Rcommaaccent" unicode="&#x156;" horiz-adv-x="629" 
d="M78 0v708h246q71 0 127.5 -18.5t95 -66t38.5 -118.5q0 -75 -43 -124.5t-119 -66.5l189 -314h-152l-164 300h-92v-300h-126zM204 403h103q152 0 152 103q0 52 -41 74t-100 22h-114v-199zM212 -240l65 195h106l-80 -195h-91z" />
    <glyph glyph-name="rcommaaccent" unicode="&#x157;" horiz-adv-x="364" 
d="M72 0v480h115v-80h2q20 43 57 68.5t83 25.5q17 0 29 -3v-110q-20 5 -37 5q-31 0 -55 -10t-37.5 -25t-22 -33.5t-11.5 -33.5t-3 -27v-257h-120zM28 -240l65 195h106l-80 -195h-91z" />
    <glyph glyph-name="Rcaron" unicode="&#x158;" horiz-adv-x="629" 
d="M78 0v708h246q71 0 127.5 -18.5t95 -66t38.5 -118.5q0 -75 -43 -124.5t-119 -66.5l189 -314h-152l-164 300h-92v-300h-126zM204 403h103q152 0 152 103q0 52 -41 74t-100 22h-114v-199zM124 908h114l69 -90l69 90h110l-115 -144h-133z" />
    <glyph glyph-name="rcaron" unicode="&#x159;" horiz-adv-x="364" 
d="M72 0v480h115v-80h2q20 43 57 68.5t83 25.5q17 0 29 -3v-110q-20 5 -37 5q-31 0 -55 -10t-37.5 -25t-22 -33.5t-11.5 -33.5t-3 -27v-257h-120zM29 708h114l69 -90l69 90h110l-115 -144h-133z" />
    <glyph glyph-name="Sacute" unicode="&#x15a;" horiz-adv-x="574" 
d="M521 650l-82 -90q-20 27 -56.5 44t-73.5 17q-49 0 -87 -24.5t-38 -72.5q0 -24 8.5 -40.5t30 -29.5t40.5 -20t56 -19q35 -11 57.5 -19t54 -25.5t50 -37.5t32 -52.5t13.5 -72.5q0 -109 -73.5 -167.5t-184.5 -58.5q-71 0 -136.5 26.5t-106.5 74.5l90 84q26 -35 69 -56.5
t86 -21.5q51 0 89.5 26t38.5 79q0 18 -5 32.5t-18.5 26.5t-23.5 19.5t-35.5 17t-36.5 13.5t-44 14q-38 12 -65 25t-55.5 35.5t-43.5 58t-15 82.5q0 101 76.5 154.5t182.5 53.5q56 0 111.5 -19.5t94.5 -56.5zM233 764l99 144h136l-141 -144h-94z" />
    <glyph glyph-name="sacute" unicode="&#x15b;" horiz-adv-x="444" 
d="M413 421l-78 -69q-17 22 -45 37t-60 15t-54.5 -13t-22.5 -39q0 -25 23 -37t81 -26q31 -7 55 -16.5t48.5 -25.5t38 -42t13.5 -59q0 -82 -56.5 -121t-143.5 -39q-57 0 -110 21t-87 58l79 74q46 -60 123 -60q31 0 54 14t23 43q0 28 -24.5 41.5t-85.5 27.5
q-65 16 -103.5 45.5t-38.5 90.5q0 75 56 114t135 39q54 0 103 -19t77 -54zM158 564l99 144h136l-141 -144h-94z" />
    <glyph glyph-name="Scircumflex" unicode="&#x15c;" horiz-adv-x="574" 
d="M521 650l-82 -90q-20 27 -56.5 44t-73.5 17q-49 0 -87 -24.5t-38 -72.5q0 -24 8.5 -40.5t30 -29.5t40.5 -20t56 -19q35 -11 57.5 -19t54 -25.5t50 -37.5t32 -52.5t13.5 -72.5q0 -109 -73.5 -167.5t-184.5 -58.5q-71 0 -136.5 26.5t-106.5 74.5l90 84q26 -35 69 -56.5
t86 -21.5q51 0 89.5 26t38.5 79q0 18 -5 32.5t-18.5 26.5t-23.5 19.5t-35.5 17t-36.5 13.5t-44 14q-38 12 -65 25t-55.5 35.5t-43.5 58t-15 82.5q0 101 76.5 154.5t182.5 53.5q56 0 111.5 -19.5t94.5 -56.5zM494 764h-114l-69 90l-69 -90h-112l115 144h135z" />
    <glyph glyph-name="scircumflex" unicode="&#x15d;" horiz-adv-x="444" 
d="M413 421l-78 -69q-17 22 -45 37t-60 15t-54.5 -13t-22.5 -39q0 -25 23 -37t81 -26q31 -7 55 -16.5t48.5 -25.5t38 -42t13.5 -59q0 -82 -56.5 -121t-143.5 -39q-57 0 -110 21t-87 58l79 74q46 -60 123 -60q31 0 54 14t23 43q0 28 -24.5 41.5t-85.5 27.5
q-65 16 -103.5 45.5t-38.5 90.5q0 75 56 114t135 39q54 0 103 -19t77 -54zM418 564h-114l-69 90l-69 -90h-112l115 144h135z" />
    <glyph glyph-name="Scedilla" unicode="&#x15e;" horiz-adv-x="574" 
d="M521 650l-82 -90q-20 27 -56.5 44t-73.5 17q-49 0 -87 -24.5t-38 -72.5q0 -24 8.5 -40.5t30 -29.5t40.5 -20t56 -19q35 -11 57.5 -19t54 -25.5t50 -37.5t32 -52.5t13.5 -72.5q0 -100 -63.5 -157.5t-162.5 -66.5l-33 -48q8 1 19 1q105 0 105 -83q0 -50 -41 -72t-95 -22
q-61 0 -110 26l23 48q38 -20 82 -20q57 0 57 41q0 36 -53 36q-21 0 -39 -6l-23 25l50 73q-65 5 -123 30.5t-94 69.5l90 84q26 -35 69 -56.5t86 -21.5q51 0 89.5 26t38.5 79q0 18 -5 32.5t-18.5 26.5t-23.5 19.5t-35.5 17t-36.5 13.5t-44 14q-38 12 -65 25t-55.5 35.5
t-43.5 58t-15 82.5q0 101 76.5 154.5t182.5 53.5q56 0 111.5 -19.5t94.5 -56.5z" />
    <glyph glyph-name="scedilla" unicode="&#x15f;" horiz-adv-x="444" 
d="M413 421l-78 -69q-17 22 -45 37t-60 15t-54.5 -13t-22.5 -39q0 -25 23 -37t81 -26q31 -7 55 -16.5t48.5 -25.5t38 -42t13.5 -59q0 -75 -47.5 -113.5t-123.5 -45.5l-36 -51q8 1 19 1q105 0 105 -83q0 -50 -41 -72t-95 -22q-61 0 -110 26l23 48q38 -20 82 -20q57 0 57 41
q0 36 -53 36q-21 0 -39 -6l-23 25l53 78q-108 10 -168 77l79 74q46 -60 123 -60q31 0 54 14t23 43q0 28 -24.5 41.5t-85.5 27.5q-65 16 -103.5 45.5t-38.5 90.5q0 75 56 114t135 39q54 0 103 -19t77 -54z" />
    <glyph glyph-name="Scaron" unicode="&#x160;" horiz-adv-x="574" 
d="M521 650l-82 -90q-20 27 -56.5 44t-73.5 17q-49 0 -87 -24.5t-38 -72.5q0 -24 8.5 -40.5t30 -29.5t40.5 -20t56 -19q35 -11 57.5 -19t54 -25.5t50 -37.5t32 -52.5t13.5 -72.5q0 -109 -73.5 -167.5t-184.5 -58.5q-71 0 -136.5 26.5t-106.5 74.5l90 84q26 -35 69 -56.5
t86 -21.5q51 0 89.5 26t38.5 79q0 18 -5 32.5t-18.5 26.5t-23.5 19.5t-35.5 17t-36.5 13.5t-44 14q-38 12 -65 25t-55.5 35.5t-43.5 58t-15 82.5q0 101 76.5 154.5t182.5 53.5q56 0 111.5 -19.5t94.5 -56.5zM128 908h114l69 -90l69 90h110l-115 -144h-133z" />
    <glyph glyph-name="scaron" unicode="&#x161;" horiz-adv-x="444" 
d="M413 421l-78 -69q-17 22 -45 37t-60 15t-54.5 -13t-22.5 -39q0 -25 23 -37t81 -26q31 -7 55 -16.5t48.5 -25.5t38 -42t13.5 -59q0 -82 -56.5 -121t-143.5 -39q-57 0 -110 21t-87 58l79 74q46 -60 123 -60q31 0 54 14t23 43q0 28 -24.5 41.5t-85.5 27.5
q-65 16 -103.5 45.5t-38.5 90.5q0 75 56 114t135 39q54 0 103 -19t77 -54zM47 708h114l69 -90l69 90h110l-115 -144h-133z" />
    <glyph glyph-name="uni0162" unicode="&#x162;" horiz-adv-x="568" 
d="M221 0v598h-217v110h560v-110h-217v-598h-126zM179 -240l65 195h106l-80 -195h-91z" />
    <glyph glyph-name="uni0163" unicode="&#x163;" horiz-adv-x="340" 
d="M87 384h-84v96h84v139h118v-139h120v-96h-120v-223q0 -36 13 -55t50 -19q31 0 51 10l4 -94q-34 -13 -80 -13q-88 0 -122 45.5t-34 124.5v224zM98 -240l65 195h106l-80 -195h-91z" />
    <glyph glyph-name="Tcaron" unicode="&#x164;" horiz-adv-x="568" 
d="M221 0v598h-217v110h560v-110h-217v-598h-126zM105 908h114l69 -90l69 90h110l-115 -144h-133z" />
    <glyph glyph-name="tcaron" unicode="&#x165;" horiz-adv-x="360" 
d="M87 384h-84v96h84v139h118v-139h120v-96h-120v-223q0 -36 13 -55t50 -19q31 0 51 10l4 -94q-34 -13 -80 -13q-88 0 -122 45.5t-34 124.5v224zM232 536l65 195h106l-80 -195h-91z" />
    <glyph glyph-name="Tbar" unicode="&#x166;" horiz-adv-x="568" 
d="M506 507v-75h-159v-432h-126v432h-149v75h149v91h-217v110h560v-110h-217v-91h159z" />
    <glyph glyph-name="tbar" unicode="&#x167;" horiz-adv-x="340" 
d="M305 294v-75h-100v-58q0 -36 13 -55t50 -19q31 0 51 10l4 -94q-34 -13 -80 -13q-88 0 -122 45.5t-34 124.5v59h-75v75h75v90h-84v96h84v139h118v-139h120v-96h-120v-90h100z" />
    <glyph glyph-name="Utilde" unicode="&#x168;" horiz-adv-x="714" 
d="M642 708v-448q0 -126 -80.5 -202t-204.5 -76t-204.5 76t-80.5 202v448h126v-443q0 -71 38 -120.5t121 -49.5t121 49.5t38 120.5v443h126zM243 768h-66q22 127 112 127q36 0 79 -18q45 -19 65 -19q33 0 46 42h66q-22 -127 -112 -127q-37 0 -82 20q-39 18 -62 18
q-32 0 -46 -43z" />
    <glyph glyph-name="utilde" unicode="&#x169;" horiz-adv-x="582" 
d="M510 480v-480h-114v77h-2q-17 -38 -57.5 -64.5t-91.5 -26.5q-88 0 -132.5 56.5t-44.5 137.5v300h120v-266q0 -128 90 -128q54 0 83 38.5t29 91.5v264h120zM173 568h-66q22 127 112 127q36 0 79 -18q45 -19 65 -19q33 0 46 42h66q-22 -127 -112 -127q-37 0 -82 20
q-39 18 -62 18q-32 0 -46 -43z" />
    <glyph glyph-name="Umacron" unicode="&#x16a;" horiz-adv-x="714" 
d="M642 708v-448q0 -126 -80.5 -202t-204.5 -76t-204.5 76t-80.5 202v448h126v-443q0 -71 38 -120.5t121 -49.5t121 49.5t38 120.5v443h126zM521 873v-78h-320v78h320z" />
    <glyph glyph-name="umacron" unicode="&#x16b;" horiz-adv-x="582" 
d="M510 480v-480h-114v77h-2q-17 -38 -57.5 -64.5t-91.5 -26.5q-88 0 -132.5 56.5t-44.5 137.5v300h120v-266q0 -128 90 -128q54 0 83 38.5t29 91.5v264h120zM450 673v-78h-320v78h320z" />
    <glyph glyph-name="Ubreve" unicode="&#x16c;" horiz-adv-x="714" 
d="M642 708v-448q0 -126 -80.5 -202t-204.5 -76t-204.5 76t-80.5 202v448h126v-443q0 -71 38 -120.5t121 -49.5t121 49.5t38 120.5v443h126zM186 908h67q12 -66 103 -66q46 0 70 13t34 53h66q-7 -72 -52.5 -108t-118.5 -36q-74 0 -119.5 36t-49.5 108z" />
    <glyph glyph-name="ubreve" unicode="&#x16d;" horiz-adv-x="582" 
d="M510 480v-480h-114v77h-2q-17 -38 -57.5 -64.5t-91.5 -26.5q-88 0 -132.5 56.5t-44.5 137.5v300h120v-266q0 -128 90 -128q54 0 83 38.5t29 91.5v264h120zM119 708h67q12 -66 103 -66q46 0 70 13t34 53h66q-7 -72 -52.5 -108t-118.5 -36q-74 0 -119.5 36t-49.5 108z" />
    <glyph glyph-name="Uring" unicode="&#x16e;" horiz-adv-x="714" 
d="M642 708v-448q0 -126 -80.5 -202t-204.5 -76t-204.5 76t-80.5 202v448h126v-443q0 -71 38 -120.5t121 -49.5t121 49.5t38 120.5v443h126zM466 855q0 -44 -30 -73t-75 -29q-44 0 -74.5 29t-30.5 72q0 44 30 73.5t75 29.5t75 -29t30 -73zM420 855q0 25 -17 41t-42 16
t-42 -16.5t-17 -41.5q0 -24 17 -40t42 -16t42 16t17 41z" />
    <glyph glyph-name="uring" unicode="&#x16f;" horiz-adv-x="582" 
d="M510 480v-480h-114v77h-2q-17 -38 -57.5 -64.5t-91.5 -26.5q-88 0 -132.5 56.5t-44.5 137.5v300h120v-266q0 -128 90 -128q54 0 83 38.5t29 91.5v264h120zM393 655q0 -44 -30 -73t-75 -29q-44 0 -74.5 29t-30.5 72q0 44 30 73.5t75 29.5t75 -29t30 -73zM347 655
q0 25 -17 41t-42 16t-42 -16.5t-17 -41.5q0 -24 17 -40t42 -16t42 16t17 41z" />
    <glyph glyph-name="Uhungarumlaut" unicode="&#x170;" horiz-adv-x="714" 
d="M642 708v-448q0 -126 -80.5 -202t-204.5 -76t-204.5 76t-80.5 202v448h126v-443q0 -71 38 -120.5t121 -49.5t121 49.5t38 120.5v443h126zM203 764l99 144h136l-141 -144h-94zM408 764l99 144h136l-141 -144h-94z" />
    <glyph glyph-name="uhungarumlaut" unicode="&#x171;" horiz-adv-x="582" 
d="M510 480v-480h-114v77h-2q-17 -38 -57.5 -64.5t-91.5 -26.5q-88 0 -132.5 56.5t-44.5 137.5v300h120v-266q0 -128 90 -128q54 0 83 38.5t29 91.5v264h120zM134 564l99 144h136l-141 -144h-94zM339 564l99 144h136l-141 -144h-94z" />
    <glyph glyph-name="Uogonek" unicode="&#x172;" horiz-adv-x="714" 
d="M447 -147l25 -49q-48 -38 -100 -38q-42 0 -72.5 24t-30.5 65q0 60 72 128q-118 5 -193.5 80t-75.5 197v448h126v-443q0 -71 38 -120.5t121 -49.5t121 49.5t38 120.5v443h126v-448q0 -112 -65 -185.5t-169 -88.5q-61 -63 -61 -108q0 -19 13.5 -32.5t32.5 -13.5q29 0 54 21
z" />
    <glyph glyph-name="uogonek" unicode="&#x173;" horiz-adv-x="582" 
d="M477 -147l25 -49q-48 -38 -100 -38q-42 0 -72.5 24t-30.5 65q0 38 29.5 79t67.5 70v73h-2q-17 -38 -57.5 -64.5t-91.5 -26.5q-88 0 -132.5 56.5t-44.5 137.5v300h120v-266q0 -128 90 -128q54 0 83 38.5t29 91.5v264h120v-480h-57q-76 -71 -76 -122q0 -19 13.5 -32.5
t32.5 -13.5q29 0 54 21z" />
    <glyph glyph-name="Wcircumflex" unicode="&#x174;" horiz-adv-x="1004" 
d="M213 0l-207 708h138l137 -520h2l156 520h130l153 -520h2l140 520h134l-207 -708h-122l-166 531h-2l-166 -531h-122zM685 764h-114l-69 90l-69 -90h-112l115 144h135z" />
    <glyph glyph-name="wcircumflex" unicode="&#x175;" horiz-adv-x="804" 
d="M171 0l-167 480h130l100 -344h2l103 344h128l104 -344h2l102 344h125l-166 -480h-122l-109 336h-2l-108 -336h-122zM586 564h-114l-69 90l-69 -90h-112l115 144h135z" />
    <glyph glyph-name="Ycircumflex" unicode="&#x176;" horiz-adv-x="622" 
d="M249 0v307l-266 401h154l178 -298l180 298h146l-266 -401v-307h-126zM497 764h-114l-69 90l-69 -90h-112l115 144h135z" />
    <glyph glyph-name="ycircumflex" unicode="&#x177;" horiz-adv-x="513" 
d="M206 0l-206 480h133l134 -349h2l119 349h125l-227 -583q-28 -71 -67.5 -104t-114.5 -33q-33 0 -62 7l10 104q22 -7 45 -7q36 0 52 16.5t33 58.5zM448 564h-114l-69 90l-69 -90h-112l115 144h135z" />
    <glyph glyph-name="Ydieresis" unicode="&#x178;" horiz-adv-x="622" 
d="M249 0v307l-266 401h154l178 -298l180 298h146l-266 -401v-307h-126zM145 844q0 28 20.5 49t50.5 21q31 0 52 -20t21 -50t-21 -50t-52 -20q-30 0 -50.5 21t-20.5 49zM341 844q0 28 20.5 49t50.5 21q31 0 52 -20t21 -50t-21 -50t-52 -20q-30 0 -50.5 21t-20.5 49z" />
    <glyph glyph-name="Zacute" unicode="&#x179;" horiz-adv-x="611" 
d="M35 0v114l385 484h-379v110h529v-114l-387 -482h393v-112h-541zM234 764l99 144h136l-141 -144h-94z" />
    <glyph glyph-name="zacute" unicode="&#x17a;" horiz-adv-x="482" 
d="M34 0v106l259 278h-247v96h390v-106l-260 -276h272v-98h-414zM174 564l99 144h136l-141 -144h-94z" />
    <glyph glyph-name="Zdotaccent" unicode="&#x17b;" horiz-adv-x="611" 
d="M35 0v114l385 484h-379v110h529v-114l-387 -482h393v-112h-541zM232 843q0 29 22 50.5t54 21.5q33 0 55.5 -20.5t22.5 -51.5t-22.5 -51.5t-55.5 -20.5q-32 0 -54 21.5t-22 50.5z" />
    <glyph glyph-name="zdotaccent" unicode="&#x17c;" horiz-adv-x="482" 
d="M34 0v106l259 278h-247v96h390v-106l-260 -276h272v-98h-414zM166 643q0 29 22 50.5t54 21.5q33 0 55.5 -20.5t22.5 -51.5t-22.5 -51.5t-55.5 -20.5q-32 0 -54 21.5t-22 50.5z" />
    <glyph glyph-name="Zcaron" unicode="&#x17d;" horiz-adv-x="611" 
d="M35 0v114l385 484h-379v110h529v-114l-387 -482h393v-112h-541zM126 908h114l69 -90l69 90h110l-115 -144h-133z" />
    <glyph glyph-name="zcaron" unicode="&#x17e;" horiz-adv-x="482" 
d="M34 0v106l259 278h-247v96h390v-106l-260 -276h272v-98h-414zM65 708h114l69 -90l69 90h110l-115 -144h-133z" />
    <glyph glyph-name="florin" unicode="&#x192;" 
d="M480 426v-90h-138l-57 -288q-19 -96 -64 -141.5t-123 -45.5q-55 0 -102 24l45 92q20 -14 47 -14q36 0 53 26t27 78l53 269h-113v90h131l22 111q17 85 58 134t122 49q60 0 117 -31l-46 -93q-27 16 -55 16q-21 0 -35.5 -8.5t-23.5 -26t-13 -30.5t-9 -37l-18 -84h122z" />
    <glyph glyph-name="Scommaaccent" unicode="&#x218;" horiz-adv-x="574" 
d="M521 650l-82 -90q-20 27 -56.5 44t-73.5 17q-49 0 -87 -24.5t-38 -72.5q0 -24 8.5 -40.5t30 -29.5t40.5 -20t56 -19q35 -11 57.5 -19t54 -25.5t50 -37.5t32 -52.5t13.5 -72.5q0 -109 -73.5 -167.5t-184.5 -58.5q-71 0 -136.5 26.5t-106.5 74.5l90 84q26 -35 69 -56.5
t86 -21.5q51 0 89.5 26t38.5 79q0 18 -5 32.5t-18.5 26.5t-23.5 19.5t-35.5 17t-36.5 13.5t-44 14q-38 12 -65 25t-55.5 35.5t-43.5 58t-15 82.5q0 101 76.5 154.5t182.5 53.5q56 0 111.5 -19.5t94.5 -56.5zM177 -240l65 195h106l-80 -195h-91z" />
    <glyph glyph-name="scommaaccent" unicode="&#x219;" horiz-adv-x="444" 
d="M413 421l-78 -69q-17 22 -45 37t-60 15t-54.5 -13t-22.5 -39q0 -25 23 -37t81 -26q31 -7 55 -16.5t48.5 -25.5t38 -42t13.5 -59q0 -82 -56.5 -121t-143.5 -39q-57 0 -110 21t-87 58l79 74q46 -60 123 -60q31 0 54 14t23 43q0 28 -24.5 41.5t-85.5 27.5
q-65 16 -103.5 45.5t-38.5 90.5q0 75 56 114t135 39q54 0 103 -19t77 -54zM117 -240l65 195h106l-80 -195h-91z" />
    <glyph glyph-name="uni021A" unicode="&#x21a;" horiz-adv-x="568" 
d="M221 0v598h-217v110h560v-110h-217v-598h-126zM179 -240l65 195h106l-80 -195h-91z" />
    <glyph glyph-name="uni021B" unicode="&#x21b;" horiz-adv-x="340" 
d="M87 384h-84v96h84v139h118v-139h120v-96h-120v-223q0 -36 13 -55t50 -19q31 0 51 10l4 -94q-34 -13 -80 -13q-88 0 -122 45.5t-34 124.5v224zM98 -240l65 195h106l-80 -195h-91z" />
    <glyph glyph-name="dotlessj" unicode="&#x237;" horiz-adv-x="268" 
d="M74 480h120v-509q0 -47 -7.5 -82t-25.5 -66t-53.5 -47t-87.5 -16q-30 0 -54 6l10 102q15 -4 33 -4q39 0 52 26.5t13 75.5v514z" />
    <glyph glyph-name="circumflex" unicode="&#x2c6;" horiz-adv-x="260" 
d="M312 564h-114l-69 90l-69 -90h-112l115 144h135z" />
    <glyph glyph-name="caron" unicode="&#x2c7;" horiz-adv-x="260" 
d="M-51 708h114l69 -90l69 90h110l-115 -144h-133z" />
    <glyph glyph-name="uni02C9" unicode="&#x2c9;" horiz-adv-x="260" 
d="M290 873v-78h-320v78h320z" />
    <glyph glyph-name="breve" unicode="&#x2d8;" horiz-adv-x="260" 
d="M-40 708h67q12 -66 103 -66q46 0 70 13t34 53h66q-7 -72 -52.5 -108t-118.5 -36q-74 0 -119.5 36t-49.5 108z" />
    <glyph glyph-name="dotaccent" unicode="&#x2d9;" horiz-adv-x="260" 
d="M54 643q0 29 22 50.5t54 21.5q33 0 55.5 -20.5t22.5 -51.5t-22.5 -51.5t-55.5 -20.5q-32 0 -54 21.5t-22 50.5z" />
    <glyph glyph-name="ring" unicode="&#x2da;" horiz-adv-x="260" 
d="M235 655q0 -44 -30 -73t-75 -29q-44 0 -74.5 29t-30.5 72q0 44 30 73.5t75 29.5t75 -29t30 -73zM189 655q0 25 -17 41t-42 16t-42 -16.5t-17 -41.5q0 -24 17 -40t42 -16t42 16t17 41z" />
    <glyph glyph-name="ogonek" unicode="&#x2db;" horiz-adv-x="260" 
d="M177 -147l25 -49q-48 -38 -100 -38q-42 0 -72.5 24t-30.5 65q0 39 30.5 80t69.5 71h61q-30 -26 -56.5 -62.5t-26.5 -65.5q0 -19 13.5 -32.5t32.5 -13.5q29 0 54 21z" />
    <glyph glyph-name="tilde" unicode="&#x2dc;" horiz-adv-x="260" 
d="M12 568h-66q22 127 112 127q36 0 79 -18q45 -19 65 -19q33 0 46 42h66q-22 -127 -112 -127q-37 0 -82 20q-39 18 -62 18q-32 0 -46 -43z" />
    <glyph glyph-name="hungarumlaut" unicode="&#x2dd;" horiz-adv-x="260" 
d="M-20 564l99 144h136l-141 -144h-94zM185 564l99 144h136l-141 -144h-94z" />
    <glyph glyph-name="uni0374" unicode="&#x374;" horiz-adv-x="357" 
d="M274 738l-87 -194h-104l43 194h148z" />
    <glyph glyph-name="uni0375" unicode="&#x375;" horiz-adv-x="357" 
d="M83 -172l87 194h104l-43 -194h-148z" />
    <glyph glyph-name="uni037E" unicode="&#x37e;" horiz-adv-x="300" 
d="M40 -126l70 264h122l-85 -264h-107zM70 409q0 32 23.5 55t56.5 23t56.5 -22t23.5 -54t-23.5 -55t-56.5 -23q-32 0 -56 22t-24 54z" />
    <glyph glyph-name="tonos" unicode="&#x384;" horiz-adv-x="357" 
d="M274 718l-87 -154h-104l43 154h148z" />
    <glyph glyph-name="dieresistonos" unicode="&#x385;" horiz-adv-x="388" 
d="M-40 641q0 28 19.5 47.5t48.5 19.5t49 -19t20 -48q0 -28 -20 -47.5t-49 -19.5t-48.5 20t-19.5 47zM290 641q0 27 19.5 47t48.5 20q30 0 50 -19t20 -48q0 -28 -20.5 -47.5t-49.5 -19.5t-48.5 20t-19.5 47zM286 718l-70 -154h-94l23 154h141z" />
    <glyph glyph-name="Alphatonos" unicode="&#x386;" horiz-adv-x="706" 
d="M-8 0l308 708h109l305 -708h-144l-66 162h-307l-64 -162h-141zM240 270h220l-109 288zM191 708l-87 -154h-104l43 154h148z" />
    <glyph glyph-name="anoteleia" unicode="&#x387;" horiz-adv-x="260" 
d="M50 291q0 32 23.5 55t56.5 23t56.5 -22t23.5 -54t-23.5 -55t-56.5 -23q-32 0 -56 22t-24 54z" />
    <glyph glyph-name="Epsilontonos" unicode="&#x388;" 
d="M78 0v708h469v-110h-343v-180h325v-106h-325v-200h361v-112h-487zM0 708l-87 -154h-104l43 154h148z" />
    <glyph glyph-name="Etatonos" unicode="&#x389;" horiz-adv-x="739" 
d="M78 0v708h126v-286h331v286h126v-708h-126v314h-331v-314h-126zM0 708l-87 -154h-104l43 154h148z" />
    <glyph glyph-name="Iotatonos" unicode="&#x38a;" horiz-adv-x="282" 
d="M78 0v708h126v-708h-126zM0 708l-87 -154h-104l43 154h148z" />
    <glyph glyph-name="Omicrontonos" unicode="&#x38c;" horiz-adv-x="849" 
d="M44 356q0 168 106.5 269t272.5 101q168 0 275 -101t107 -269q0 -165 -107.5 -269.5t-274.5 -104.5q-165 0 -272 104.5t-107 269.5zM181 356q0 -114 68 -187.5t175 -73.5q108 0 176 73.5t68 187.5q0 111 -67.5 185t-176.5 74q-108 0 -175.5 -74t-67.5 -185zM96 708
l-87 -154h-104l43 154h148z" />
    <glyph glyph-name="Upsilontonos" unicode="&#x38e;" horiz-adv-x="622" 
d="M249 0v307l-266 401h154l178 -298l180 298h146l-266 -401v-307h-126zM-60 708l-87 -154h-104l43 154h148z" />
    <glyph glyph-name="Omegatonos" unicode="&#x38f;" horiz-adv-x="777" 
d="M718 0h-283v191q75 19 116.5 77.5t41.5 135.5q0 38 -11.5 74t-35 67.5t-64 50.5t-93.5 19q-101 0 -153 -62t-52 -149q0 -82 43.5 -138.5t114.5 -74.5v-191h-283v102h183v19q-94 30 -143 107t-49 176q0 148 97.5 235t241.5 87q147 0 242.5 -88.5t95.5 -232.5
q0 -104 -50.5 -179.5t-141.5 -104.5v-19h183v-102zM82 708l-87 -154h-104l43 154h148z" />
    <glyph glyph-name="iotadieresistonos" unicode="&#x390;" horiz-adv-x="333" 
d="M304 99l4 -94q-37 -13 -85 -13q-155 0 -155 167v321h120v-317q0 -38 15 -56t50 -18q28 0 51 10zM-82 641q0 28 19.5 47.5t48.5 19.5t49 -19t20 -48q0 -28 -20 -47.5t-49 -19.5t-48.5 20t-19.5 47zM248 641q0 27 19.5 47t48.5 20q30 0 50 -19t20 -48q0 -28 -20.5 -47.5
t-49.5 -19.5t-48.5 20t-19.5 47zM244 718l-70 -154h-94l23 154h141z" />
    <glyph glyph-name="Alpha" unicode="&#x391;" horiz-adv-x="706" 
d="M-8 0l308 708h109l305 -708h-144l-66 162h-307l-64 -162h-141zM240 270h220l-109 288z" />
    <glyph glyph-name="Beta" unicode="&#x392;" horiz-adv-x="647" 
d="M78 0v708h276q90 0 153.5 -44t63.5 -134q0 -58 -33 -98t-90 -57v-2q69 -9 111 -53t42 -114q0 -55 -22.5 -96.5t-61.5 -64.5t-85 -34t-99 -11h-255zM204 604v-184h112q63 0 96 25t33 71q0 47 -34 67.5t-106 20.5h-101zM204 312v-206h113q158 0 158 106q0 54 -37 77
t-116 23h-118z" />
    <glyph glyph-name="Gamma" unicode="&#x393;" horiz-adv-x="553" 
d="M204 598v-598h-126v708h437v-110h-311z" />
    <glyph glyph-name="uni0394" unicode="&#x394;" horiz-adv-x="713" 
d="M675 0h-637v107l265 601h109l263 -601v-107zM354 558l-180 -451h361z" />
    <glyph glyph-name="Epsilon" unicode="&#x395;" 
d="M78 0v708h469v-110h-343v-180h325v-106h-325v-200h361v-112h-487z" />
    <glyph glyph-name="Zeta" unicode="&#x396;" horiz-adv-x="611" 
d="M35 0v114l385 484h-379v110h529v-114l-387 -482h393v-112h-541z" />
    <glyph glyph-name="Eta" unicode="&#x397;" horiz-adv-x="739" 
d="M78 0v708h126v-286h331v286h126v-708h-126v314h-331v-314h-126z" />
    <glyph glyph-name="Theta" unicode="&#x398;" horiz-adv-x="849" 
d="M594 408v-101h-338v101h338zM44 356q0 168 106.5 269t272.5 101q168 0 275 -101t107 -269q0 -165 -107.5 -269.5t-274.5 -104.5q-165 0 -272 104.5t-107 269.5zM181 356q0 -114 68 -187.5t175 -73.5q108 0 176 73.5t68 187.5q0 111 -67.5 185t-176.5 74
q-108 0 -175.5 -74t-67.5 -185z" />
    <glyph glyph-name="Iota" unicode="&#x399;" horiz-adv-x="282" 
d="M78 0v708h126v-708h-126z" />
    <glyph glyph-name="Kappa" unicode="&#x39a;" horiz-adv-x="689" 
d="M78 0v708h126v-306h3l296 306h170l-331 -327l353 -381h-177l-311 355h-3v-355h-126z" />
    <glyph glyph-name="Lambda" unicode="&#x39b;" horiz-adv-x="706" 
d="M351 558l-208 -558h-141l298 708h109l295 -708h-144z" />
    <glyph glyph-name="Mu" unicode="&#x39c;" horiz-adv-x="920" 
d="M78 0v708h197l184 -503h3l182 503h198v-708h-125v569h-2l-215 -569h-88l-212 569h-2v-569h-120z" />
    <glyph glyph-name="Nu" unicode="&#x39d;" horiz-adv-x="780" 
d="M78 0v708h167l329 -530h2v530h126v-708h-160l-336 547h-2v-547h-126z" />
    <glyph glyph-name="Xi" unicode="&#x39e;" horiz-adv-x="623" 
d="M578 594h-533v114h533v-114zM578 0h-533v114h533v-114zM534 308h-445v112h445v-112z" />
    <glyph glyph-name="Omicron" unicode="&#x39f;" horiz-adv-x="849" 
d="M44 356q0 168 106.5 269t272.5 101q168 0 275 -101t107 -269q0 -165 -107.5 -269.5t-274.5 -104.5q-165 0 -272 104.5t-107 269.5zM181 356q0 -114 68 -187.5t175 -73.5q108 0 176 73.5t68 187.5q0 111 -67.5 185t-176.5 74q-108 0 -175.5 -74t-67.5 -185z" />
    <glyph glyph-name="Pi" unicode="&#x3a0;" horiz-adv-x="729" 
d="M78 0v708h573v-708h-126v598h-321v-598h-126z" />
    <glyph glyph-name="Rho" unicode="&#x3a1;" 
d="M78 0v708h231q267 0 267 -205q0 -110 -76 -160t-199 -50h-97v-293h-126zM204 399h88q157 0 157 104q0 57 -41.5 78t-111.5 21h-92v-203z" />
    <glyph glyph-name="Sigma" unicode="&#x3a3;" horiz-adv-x="616" 
d="M198 598l182 -225l-197 -261h398v-112h-541v86l201 273v2l-196 244v103h527v-110h-374z" />
    <glyph glyph-name="Tau" unicode="&#x3a4;" horiz-adv-x="568" 
d="M221 0v598h-217v110h560v-110h-217v-598h-126z" />
    <glyph glyph-name="Upsilon" unicode="&#x3a5;" horiz-adv-x="622" 
d="M249 0v307l-266 401h154l178 -298l180 298h146l-266 -401v-307h-126z" />
    <glyph glyph-name="Phi" unicode="&#x3a6;" horiz-adv-x="905" 
d="M515 11v-60h-126v60q-89 4 -155.5 33.5t-101 67.5t-55.5 88.5t-26 85.5t-5 70q0 42 7.5 82.5t30 88t58.5 83.5t100 61.5t147 29.5v60h126v-60q83 -4 146.5 -29.5t100 -61t59 -82.5t30 -88t7.5 -84q0 -36 -5.5 -72t-26.5 -86t-56 -87.5t-101 -66.5t-154 -33zM731 356
q0 107 -55 171t-161 69v-480q109 6 162.5 69.5t53.5 170.5zM173 356q0 -105 53.5 -169.5t162.5 -70.5v480q-106 -5 -161 -69t-55 -171z" />
    <glyph glyph-name="Chi" unicode="&#x3a7;" horiz-adv-x="658" 
d="M4 0l245 378l-220 330h152l146 -242l144 242h145l-216 -333l254 -375h-159l-173 278l-166 -278h-152z" />
    <glyph glyph-name="Psi" unicode="&#x3a8;" horiz-adv-x="843" 
d="M484 87v-87h-126v87q-298 14 -298 268v353h126v-332q0 -100 43.5 -136t128.5 -40v508h126v-508q88 4 130.5 42.5t42.5 134.5v331h126v-353q0 -254 -299 -268z" />
    <glyph glyph-name="uni03A9" unicode="&#x3a9;" horiz-adv-x="777" 
d="M718 0h-283v191q75 19 116.5 77.5t41.5 135.5q0 38 -11.5 74t-35 67.5t-64 50.5t-93.5 19q-101 0 -153 -62t-52 -149q0 -82 43.5 -138.5t114.5 -74.5v-191h-283v102h183v19q-94 30 -143 107t-49 176q0 148 97.5 235t241.5 87q147 0 242.5 -88.5t95.5 -232.5
q0 -104 -50.5 -179.5t-141.5 -104.5v-19h183v-102z" />
    <glyph glyph-name="Iotadieresis" unicode="&#x3aa;" horiz-adv-x="282" 
d="M78 0v708h126v-708h-126zM-29 844q0 28 20.5 49t50.5 21q31 0 52 -20t21 -50t-21 -50t-52 -20q-30 0 -50.5 21t-20.5 49zM167 844q0 28 20.5 49t50.5 21q31 0 52 -20t21 -50t-21 -50t-52 -20q-30 0 -50.5 21t-20.5 49z" />
    <glyph glyph-name="Upsilondieresis" unicode="&#x3ab;" horiz-adv-x="622" 
d="M249 0v307l-266 401h154l178 -298l180 298h146l-266 -401v-307h-126zM145 844q0 28 20.5 49t50.5 21q31 0 52 -20t21 -50t-21 -50t-52 -20q-30 0 -50.5 21t-20.5 49zM341 844q0 28 20.5 49t50.5 21q31 0 52 -20t21 -50t-21 -50t-52 -20q-30 0 -50.5 21t-20.5 49z" />
    <glyph glyph-name="alphatonos" unicode="&#x3ac;" horiz-adv-x="706" 
d="M568 218l27 -81q16 -48 43 -48q16 0 28 6l4 -94q-27 -9 -59 -9q-26 0 -42 4.5t-28.5 19.5t-19 27.5t-20.5 45.5h-2q-26 -44 -79.5 -73.5t-124.5 -29.5q-108 0 -178.5 71t-70.5 183q0 111 70.5 182.5t181.5 71.5q87 0 139 -35t72 -88h2l45 109h120zM168 241
q0 -61 37 -108.5t103 -47.5q63 0 102.5 47.5t39.5 106.5q0 60 -39.5 108.5t-102.5 48.5q-66 0 -103 -46.5t-37 -108.5zM469 718l-87 -154h-104l43 154h148z" />
    <glyph glyph-name="epsilontonos" unicode="&#x3ad;" horiz-adv-x="496" 
d="M53 129q0 79 87 113v2q-70 31 -70 100q0 70 55.5 110t154.5 40q68 0 112.5 -13.5t78.5 -47.5l-78 -69q-41 36 -116 36q-93 0 -93 -62q0 -51 84 -51h98v-90h-116q-80 0 -80 -54q0 -62 94 -62q92 0 153 55l69 -69q-71 -81 -225 -81q-208 0 -208 143zM426 718l-87 -154h-104
l43 154h148z" />
    <glyph glyph-name="etatonos" unicode="&#x3ae;" horiz-adv-x="591" 
d="M75 480h114q7 -27 7 -78h2q18 42 58.5 67t90.5 25q89 0 132.5 -57.5t43.5 -137.5v-539h-120v506q0 128 -91 128q-48 0 -79.5 -35.5t-31.5 -98.5v-260h-120v378q0 68 -6 102zM414 718l-87 -154h-104l43 154h148z" />
    <glyph glyph-name="iotatonos" unicode="&#x3af;" horiz-adv-x="333" 
d="M304 99l4 -94q-37 -13 -85 -13q-155 0 -155 167v321h120v-317q0 -38 15 -56t50 -18q28 0 51 10zM272 718l-87 -154h-104l43 154h148z" />
    <glyph glyph-name="upsilondieresistonos" unicode="&#x3b0;" horiz-adv-x="585" 
d="M530 265q0 -48 -7.5 -89t-25.5 -76.5t-45 -60.5t-68.5 -39t-94.5 -14q-221 0 -221 219v275h120v-262q0 -132 104 -132q114 0 114 178q0 111 -38 216h124q38 -88 38 -215zM54 641q0 28 19.5 47.5t48.5 19.5t49 -19t20 -48q0 -28 -20 -47.5t-49 -19.5t-48.5 20t-19.5 47z
M384 641q0 27 19.5 47t48.5 20q30 0 50 -19t20 -48q0 -28 -20.5 -47.5t-49.5 -19.5t-48.5 20t-19.5 47zM380 718l-70 -154h-94l23 154h141z" />
    <glyph glyph-name="alpha" unicode="&#x3b1;" horiz-adv-x="706" 
d="M568 218l27 -81q16 -48 43 -48q16 0 28 6l4 -94q-27 -9 -59 -9q-26 0 -42 4.5t-28.5 19.5t-19 27.5t-20.5 45.5h-2q-26 -44 -79.5 -73.5t-124.5 -29.5q-108 0 -178.5 71t-70.5 183q0 111 70.5 182.5t181.5 71.5q87 0 139 -35t72 -88h2l45 109h120zM168 241
q0 -61 37 -108.5t103 -47.5q63 0 102.5 47.5t39.5 106.5q0 60 -39.5 108.5t-102.5 48.5q-66 0 -103 -46.5t-37 -108.5z" />
    <glyph glyph-name="beta" unicode="&#x3b2;" horiz-adv-x="640" 
d="M358 -14q-52 0 -97.5 20.5t-65.5 56.5h-3v-303h-120v720q0 148 57.5 218t179.5 70q112 0 171 -52t59 -132q0 -51 -22.5 -91.5t-61.5 -59.5v-3q70 -17 106.5 -71.5t36.5 -128.5q0 -43 -13.5 -84.5t-40 -78t-75 -59t-111.5 -22.5zM189 500v-255q0 -71 37.5 -115t106.5 -44
t104.5 40.5t35.5 98.5q0 66 -38.5 102.5t-100.5 36.5h-89v98h62q48 0 81 29t33 82q0 47 -28.5 73t-81.5 26q-71 0 -96.5 -44.5t-25.5 -127.5z" />
    <glyph glyph-name="gamma" unicode="&#x3b3;" horiz-adv-x="577" 
d="M445 480h127l-220 -522v-173h-115v174l-135 326q-31 77 -45 93t-52 16l21 98h17q37 0 60 -6t39.5 -23.5t26.5 -37.5t25 -60l98 -259h3z" />
    <glyph glyph-name="delta" unicode="&#x3b4;" horiz-adv-x="591" 
d="M46 233q0 99 54.5 163t133.5 78v2l-15 9q-81 49 -81 128q0 63 49 109t158 46q112 0 179 -43l-45 -95q-61 37 -131 37q-35 0 -60.5 -15.5t-25.5 -45.5q0 -25 18 -40.5t72 -43.5q98 -52 147.5 -115.5t49.5 -158.5q0 -127 -76.5 -194.5t-174.5 -67.5q-113 0 -182.5 69.5
t-69.5 177.5zM297 85q65 0 103.5 45.5t38.5 109.5q0 66 -39 110t-101 44q-65 0 -104 -44t-39 -110q0 -64 38 -109.5t103 -45.5z" />
    <glyph glyph-name="epsilon" unicode="&#x3b5;" horiz-adv-x="496" 
d="M53 129q0 79 87 113v2q-70 31 -70 100q0 70 55.5 110t154.5 40q68 0 112.5 -13.5t78.5 -47.5l-78 -69q-41 36 -116 36q-93 0 -93 -62q0 -51 84 -51h98v-90h-116q-80 0 -80 -54q0 -62 94 -62q92 0 153 55l69 -69q-71 -81 -225 -81q-208 0 -208 143z" />
    <glyph glyph-name="zeta" unicode="&#x3b6;" horiz-adv-x="480" 
d="M170 276q0 -60 31.5 -93.5t98.5 -61.5q101 -41 140.5 -78.5t39.5 -107.5q0 -79 -58 -122t-168 -45v93q119 7 119 64q0 29 -22 45t-94 45q-118 47 -165 101.5t-47 148.5q0 121 76 227t171 162v3h-214v99h400v-99q-111 -53 -182.5 -122t-98.5 -132t-27 -127z" />
    <glyph glyph-name="eta" unicode="&#x3b7;" horiz-adv-x="591" 
d="M75 480h114q7 -27 7 -78h2q18 42 58.5 67t90.5 25q89 0 132.5 -57.5t43.5 -137.5v-539h-120v506q0 128 -91 128q-48 0 -79.5 -35.5t-31.5 -98.5v-260h-120v378q0 68 -6 102z" />
    <glyph glyph-name="theta" unicode="&#x3b8;" horiz-adv-x="628" 
d="M314 -14q-262 0 -262 396q0 55 6 104t23.5 102.5t45.5 91.5t76 63t111 25q75 0 128.5 -33.5t81.5 -91.5t40 -122t12 -139q0 -396 -262 -396zM314 670q-137 0 -146 -239h292q-5 117 -39 178t-107 61zM315 86q75 0 108 61t37 186h-292q4 -128 38.5 -187.5t108.5 -59.5z" />
    <glyph glyph-name="iota" unicode="&#x3b9;" horiz-adv-x="333" 
d="M304 99l4 -94q-37 -13 -85 -13q-155 0 -155 167v321h120v-317q0 -38 15 -56t50 -18q28 0 51 10z" />
    <glyph glyph-name="kappa" unicode="&#x3ba;" horiz-adv-x="572" 
d="M358 279l199 -279h-129l-143 200l-93 -96v-104h-120v480h120v-222h2l169 184q47 50 104 50q39 0 65 -12l-17 -101q-15 6 -31 6q-29 0 -53 -27z" />
    <glyph glyph-name="lambda" unicode="&#x3bb;" horiz-adv-x="617" 
d="M425 86l-102 287h-2l-177 -373h-119l250 503l-33 89q-17 47 -28.5 60.5t-31.5 13.5q-18 0 -31 -7l-21 95q30 14 75 14q51 0 80 -21.5t55 -92.5l187 -510q13 -35 21 -45t26 -10q13 0 24 6l4 -93q-28 -10 -64 -10q-47 0 -71 21.5t-42 72.5z" />
    <glyph glyph-name="uni03BC" unicode="&#x3bc;" horiz-adv-x="611" 
d="M577 95l4 -93q-30 -10 -69 -10q-90 0 -102 79h-2q-43 -85 -125 -85q-67 0 -89 35h-2v-261h-120v720h120v-264q0 -130 92 -130q49 0 79.5 37.5t30.5 92.5v264h120v-354q0 -37 35 -37q13 0 28 6z" />
    <glyph glyph-name="nu" unicode="&#x3bd;" horiz-adv-x="517" 
d="M367 480h115q0 -77 -13 -135t-58 -160l-82 -185h-130l-194 480h127l131 -373h4l43 105q36 87 46.5 137t10.5 131z" />
    <glyph glyph-name="xi" unicode="&#x3be;" horiz-adv-x="499" 
d="M489 756v-102q-170 0 -234 -21t-64 -81q0 -88 154 -88h103v-99h-102q-99 0 -138 -31t-39 -84q0 -45 31 -70.5t118 -63.5q98 -42 133 -77.5t35 -105.5q0 -80 -60 -121.5t-166 -43.5v93q119 7 119 66q0 27 -24 44t-103 48q-119 47 -162.5 96.5t-43.5 122.5q0 59 31 105
t93 68v3q-88 34 -88 123q0 42 21.5 73.5t58.5 44.5v2h-78v99h405z" />
    <glyph glyph-name="omicron" unicode="&#x3bf;" horiz-adv-x="614" 
d="M46 242q0 111 75 181.5t186 70.5t186 -70.5t75 -181.5q0 -112 -75.5 -184t-185.5 -72t-185.5 72t-75.5 184zM168 242q0 -62 36 -109t103 -47t103 47t36 109t-36 108t-103 46t-103 -46t-36 -108z" />
    <glyph glyph-name="pi" unicode="&#x3c0;" horiz-adv-x="663" 
d="M594 1q-32 -9 -68 -9q-68 0 -98 32t-30 108v249h-149l-60 -381h-115l63 381h-107v99h588v-99h-108v-248q0 -44 45 -44q22 0 35 4z" />
    <glyph glyph-name="rho" unicode="&#x3c1;" horiz-adv-x="621" 
d="M340 -14q-47 0 -89.5 21t-66.5 57h-2v-304h-120v474q0 111 68 185.5t188 74.5t190.5 -72.5t70.5 -180.5q0 -111 -65.5 -183t-173.5 -72zM457 242q0 62 -36.5 108t-101.5 46q-63 0 -102 -48t-39 -108t39 -107t102 -47q65 0 101.5 47t36.5 109z" />
    <glyph glyph-name="sigma1" unicode="&#x3c2;" horiz-adv-x="516" 
d="M46 255q0 25 5.5 52t22.5 61.5t44.5 61.5t76.5 45.5t112 18.5q66 0 114 -18t89 -60l-75 -77q-56 49 -133 49q-65 0 -98 -38.5t-33 -92.5q0 -47 25.5 -75.5t95.5 -58.5q104 -43 144 -79t40 -109q0 -79 -58 -122t-168 -45v93q119 7 119 64q0 29 -22 45t-94 45
q-117 46 -162 99t-45 141z" />
    <glyph glyph-name="sigma" unicode="&#x3c3;" horiz-adv-x="637" 
d="M549 236q0 -60 -22 -109t-58 -79t-80 -46t-90 -16q-116 0 -184.5 73t-68.5 173q0 109 70 178.5t182 69.5h314v-99h-119v-2q56 -48 56 -143zM165 236q0 -60 35 -105t99 -45q65 0 100 45t35 105q0 59 -35 103t-100 44t-99.5 -44t-34.5 -103z" />
    <glyph glyph-name="tau" unicode="&#x3c4;" horiz-adv-x="521" 
d="M352 -8q-168 0 -168 154v235h-164v99h476v-99h-198v-217q0 -39 19.5 -57.5t65.5 -18.5q40 0 64 11l2 -93q-34 -14 -97 -14z" />
    <glyph glyph-name="upsilon" unicode="&#x3c5;" horiz-adv-x="585" 
d="M530 265q0 -48 -7.5 -89t-25.5 -76.5t-45 -60.5t-68.5 -39t-94.5 -14q-221 0 -221 219v275h120v-262q0 -132 104 -132q114 0 114 178q0 111 -38 216h124q38 -88 38 -215z" />
    <glyph glyph-name="phi" unicode="&#x3c6;" horiz-adv-x="752" 
d="M438 -20v-220h-120v220q-122 2 -197 73t-75 189q0 109 69 184t203 78v149h120v-149q133 -3 202.5 -77t69.5 -185q0 -120 -75.5 -190t-196.5 -72zM164 242q0 -82 43.5 -122t110.5 -40v326q-80 -1 -117 -48t-37 -116zM592 242q0 69 -37 116t-117 48v-326q67 0 110.5 40
t43.5 122z" />
    <glyph glyph-name="chi" unicode="&#x3c7;" horiz-adv-x="575" 
d="M298 13h-2l-144 -253h-132l218 359l-115 216q-18 35 -35.5 46t-58.5 12l23 99h14q62 0 90 -15.5t50 -57.5l100 -188h2l132 249h130l-204 -355l131 -252q13 -24 38 -24q15 0 25 6l4 -94q-27 -9 -54 -9q-46 0 -70 16.5t-46 57.5z" />
    <glyph glyph-name="psi" unicode="&#x3c8;" horiz-adv-x="758" 
d="M438 -20v-220h-120v220q-126 0 -188 54.5t-62 173.5v272h120v-262q0 -79 31 -108.5t99 -29.5v573h120v-573q76 -1 108.5 43.5t32.5 144.5q0 106 -38 212h122q40 -87 40 -212q0 -288 -265 -288z" />
    <glyph glyph-name="omega" unicode="&#x3c9;" horiz-adv-x="796" 
d="M338 373h120v-165q0 -122 80 -122q37 0 58.5 31.5t21.5 92.5q0 128 -74 237l104 45q92 -113 92 -281q0 -111 -51 -168t-135 -57q-64 0 -102 31.5t-53 75.5h-2q-16 -45 -54.5 -76t-92.5 -31q-99 0 -146.5 61t-47.5 166q0 83 25 156t67 123l104 -45q-35 -53 -54.5 -107
t-19.5 -130q0 -62 22 -93t56 -31q82 0 82 122v165z" />
    <glyph glyph-name="iotadieresis" unicode="&#x3ca;" horiz-adv-x="333" 
d="M304 99l4 -94q-37 -13 -85 -13q-155 0 -155 167v321h120v-317q0 -38 15 -56t50 -18q28 0 51 10zM-37 644q0 28 20.5 49t50.5 21q31 0 52 -20t21 -50t-21 -50t-52 -20q-30 0 -50.5 21t-20.5 49zM159 644q0 28 20.5 49t50.5 21q31 0 52 -20t21 -50t-21 -50t-52 -20
q-30 0 -50.5 21t-20.5 49z" />
    <glyph glyph-name="upsilondieresis" unicode="&#x3cb;" horiz-adv-x="585" 
d="M530 265q0 -48 -7.5 -89t-25.5 -76.5t-45 -60.5t-68.5 -39t-94.5 -14q-221 0 -221 219v275h120v-262q0 -132 104 -132q114 0 114 178q0 111 -38 216h124q38 -88 38 -215zM112 644q0 28 20.5 49t50.5 21q31 0 52 -20t21 -50t-21 -50t-52 -20q-30 0 -50.5 21t-20.5 49z
M308 644q0 28 20.5 49t50.5 21q31 0 52 -20t21 -50t-21 -50t-52 -20q-30 0 -50.5 21t-20.5 49z" />
    <glyph glyph-name="omicrontonos" unicode="&#x3cc;" horiz-adv-x="614" 
d="M46 242q0 111 75 181.5t186 70.5t186 -70.5t75 -181.5q0 -112 -75.5 -184t-185.5 -72t-185.5 72t-75.5 184zM168 242q0 -62 36 -109t103 -47t103 47t36 109t-36 108t-103 46t-103 -46t-36 -108zM446 718l-87 -154h-104l43 154h148z" />
    <glyph glyph-name="upsilontonos" unicode="&#x3cd;" horiz-adv-x="585" 
d="M530 265q0 -48 -7.5 -89t-25.5 -76.5t-45 -60.5t-68.5 -39t-94.5 -14q-221 0 -221 219v275h120v-262q0 -132 104 -132q114 0 114 178q0 111 -38 216h124q38 -88 38 -215zM416 718l-87 -154h-104l43 154h148z" />
    <glyph glyph-name="omegatonos" unicode="&#x3ce;" horiz-adv-x="796" 
d="M338 373h120v-165q0 -122 80 -122q37 0 58.5 31.5t21.5 92.5q0 128 -74 237l104 45q92 -113 92 -281q0 -111 -51 -168t-135 -57q-64 0 -102 31.5t-53 75.5h-2q-16 -45 -54.5 -76t-92.5 -31q-99 0 -146.5 61t-47.5 166q0 83 25 156t67 123l104 -45q-35 -53 -54.5 -107
t-19.5 -130q0 -62 22 -93t56 -31q82 0 82 122v165zM542 718l-87 -154h-104l43 154h148z" />
    <glyph glyph-name="uni0400" unicode="&#x400;" 
d="M78 0v708h469v-110h-343v-180h325v-106h-325v-200h361v-112h-487zM279 908l99 -144h-94l-141 144h136z" />
    <glyph glyph-name="uni0401" unicode="&#x401;" 
d="M78 0v708h469v-110h-343v-180h325v-106h-325v-200h361v-112h-487zM148 844q0 28 20.5 49t50.5 21q31 0 52 -20t21 -50t-21 -50t-52 -20q-30 0 -50.5 21t-20.5 49zM344 844q0 28 20.5 49t50.5 21q31 0 52 -20t21 -50t-21 -50t-52 -20q-30 0 -50.5 21t-20.5 49z" />
    <glyph glyph-name="uni0402" unicode="&#x402;" horiz-adv-x="802" 
d="M519 -10q-47 0 -95 10l13 103q23 -7 58 -7q144 0 144 107q0 116 -158 116q-78 0 -134 -24v-295h-126v598h-217v110h559v-110h-216v-198q79 22 163 22q122 0 189.5 -57t67.5 -164q0 -104 -69 -157.5t-179 -53.5z" />
    <glyph glyph-name="uni0403" unicode="&#x403;" horiz-adv-x="507" 
d="M215 764l99 144h136l-141 -144h-94zM78 0v708h425v-110h-299v-598h-126z" />
    <glyph glyph-name="uni0404" unicode="&#x404;" horiz-adv-x="696" 
d="M601 179l95 -73q-41 -57 -113.5 -91t-163.5 -34q-161 0 -268 105t-107 268t107 267.5t268 104.5q81 0 152.5 -27t111.5 -76l-86 -81q-24 32 -71.5 52.5t-107.5 20.5q-92 0 -155 -56t-77 -141h303v-106h-305q6 -95 70.5 -156t163.5 -61q119 0 183 84z" />
    <glyph glyph-name="uni0405" unicode="&#x405;" horiz-adv-x="574" 
d="M521 650l-82 -90q-20 27 -56.5 44t-73.5 17q-49 0 -87 -24.5t-38 -72.5q0 -24 8.5 -40.5t30 -29.5t40.5 -20t56 -19q35 -11 57.5 -19t54 -25.5t50 -37.5t32 -52.5t13.5 -72.5q0 -109 -73.5 -167.5t-184.5 -58.5q-71 0 -136.5 26.5t-106.5 74.5l90 84q26 -35 69 -56.5
t86 -21.5q51 0 89.5 26t38.5 79q0 18 -5 32.5t-18.5 26.5t-23.5 19.5t-35.5 17t-36.5 13.5t-44 14q-38 12 -65 25t-55.5 35.5t-43.5 58t-15 82.5q0 101 76.5 154.5t182.5 53.5q56 0 111.5 -19.5t94.5 -56.5z" />
    <glyph glyph-name="uni0406" unicode="&#x406;" horiz-adv-x="282" 
d="M78 0v708h126v-708h-126z" />
    <glyph glyph-name="uni0407" unicode="&#x407;" horiz-adv-x="282" 
d="M78 0v708h126v-708h-126zM-29 844q0 28 20.5 49t50.5 21q31 0 52 -20t21 -50t-21 -50t-52 -20q-30 0 -50.5 21t-20.5 49zM167 844q0 28 20.5 49t50.5 21q31 0 52 -20t21 -50t-21 -50t-52 -20q-30 0 -50.5 21t-20.5 49z" />
    <glyph glyph-name="uni0408" unicode="&#x408;" horiz-adv-x="498" 
d="M426 708v-479q0 -34 -5 -65.5t-19.5 -65.5t-37 -59t-61.5 -41t-90 -16q-83 0 -136 42t-72 114l116 33q9 -35 33 -55.5t57 -20.5q51 0 70 35.5t19 102.5v475h126z" />
    <glyph glyph-name="uni0409" unicode="&#x409;" horiz-adv-x="1099" 
d="M566 0v598h-240v-109q0 -261 -54.5 -378.5t-180.5 -117.5q-51 0 -84 10l13 111q21 -7 43 -7q75 0 108.5 88t33.5 311v202h487v-281h105q120 0 193.5 -53t73.5 -160q0 -106 -73.5 -160t-191.5 -54h-233zM692 106h95q150 0 150 107q0 53 -39 80.5t-111 27.5h-95v-215z" />
    <glyph glyph-name="uni040A" unicode="&#x40a;" horiz-adv-x="1070" 
d="M78 0v708h126v-285h331v285h126v-285h112q118 0 190 -52t72 -159q0 -105 -72 -158.5t-188 -53.5h-240v319h-331v-319h-126zM661 106h99q70 0 109 26.5t39 79.5t-38.5 80t-109.5 27h-99v-213z" />
    <glyph glyph-name="uni040B" unicode="&#x40b;" horiz-adv-x="811" 
d="M221 0v598h-217v110h559v-110h-216v-196q79 22 162 22q119 0 175.5 -48.5t56.5 -151.5v-224h-126v193q0 62 -30.5 91.5t-99.5 29.5q-91 0 -138 -20v-294h-126z" />
    <glyph glyph-name="uni040C" unicode="&#x40c;" horiz-adv-x="689" 
d="M281 764l99 144h136l-141 -144h-94zM78 0v708h126v-306h3l296 306h170l-331 -327l353 -381h-177l-311 355h-3v-355h-126z" />
    <glyph glyph-name="uni040D" unicode="&#x40d;" horiz-adv-x="753" 
d="M78 0v708h126v-518h3l332 518h136v-708h-126v514h-2l-331 -514h-138zM332 908l99 -144h-94l-141 144h136z" />
    <glyph glyph-name="uni040E" unicode="&#x40e;" horiz-adv-x="650" 
d="M146 -10q-52 0 -90 9l16 112q29 -9 59 -9q39 0 62.5 19t46.5 64l22 42l-272 481h146l197 -364l186 364h141l-294 -545q-48 -90 -93.5 -131.5t-126.5 -41.5zM333 764q-65 0 -109 37t-52 102l67 13q5 -34 30.5 -54t63.5 -20t63.5 20t30.5 54l68 -13q-9 -65 -52.5 -102
t-109.5 -37z" />
    <glyph glyph-name="uni040F" unicode="&#x40f;" horiz-adv-x="733" 
d="M310 -161v161h-232v708h126v-596h325v596h126v-708h-232v-161h-113z" />
    <glyph glyph-name="uni0410" unicode="&#x410;" horiz-adv-x="706" 
d="M-8 0l308 708h109l305 -708h-144l-66 162h-307l-64 -162h-141zM240 270h220l-109 288z" />
    <glyph glyph-name="uni0411" unicode="&#x411;" horiz-adv-x="637" 
d="M78 0v708h464v-106h-338v-182h125q118 0 190 -52t72 -158q0 -104 -72 -157t-189 -53h-252zM204 106h112q148 0 148 104q0 51 -38.5 77.5t-109.5 26.5h-112v-208z" />
    <glyph glyph-name="uni0412" unicode="&#x412;" horiz-adv-x="647" 
d="M78 0v708h276q90 0 153.5 -44t63.5 -134q0 -58 -33 -98t-90 -57v-2q69 -9 111 -53t42 -114q0 -55 -22.5 -96.5t-61.5 -64.5t-85 -34t-99 -11h-255zM204 604v-184h112q63 0 96 25t33 71q0 47 -34 67.5t-106 20.5h-101zM204 312v-206h113q158 0 158 106q0 54 -37 77
t-116 23h-118z" />
    <glyph glyph-name="uni0413" unicode="&#x413;" horiz-adv-x="507" 
d="M78 0v708h425v-110h-299v-598h-126z" />
    <glyph glyph-name="uni0414" unicode="&#x414;" horiz-adv-x="778" 
d="M14 -161v273h60q108 123 108 414v182h495v-596h79v-273h-113v161h-516v-161h-113zM216 112h335v486h-247v-85q0 -274 -88 -401z" />
    <glyph glyph-name="uni0415" unicode="&#x415;" 
d="M78 0v708h469v-110h-343v-180h325v-106h-325v-200h361v-112h-487z" />
    <glyph glyph-name="uni0416" unicode="&#x416;" horiz-adv-x="1024" 
d="M575 0h-126v352h-1l-287 -352h-167l319 386l-302 322h162l275 -306h1v306h126v-306h1l275 306h162l-302 -322l319 -386h-167l-287 352h-1v-352z" />
    <glyph glyph-name="uni0417" unicode="&#x417;" horiz-adv-x="592" 
d="M278 -18q-166 0 -258 103l85 85q63 -81 167 -81q58 0 101 31.5t43 85.5q0 106 -166 106h-50v106h52q145 0 145 105q0 43 -37.5 70.5t-86.5 27.5q-94 0 -148 -67l-79 78q83 94 234 94q110 0 176 -50.5t66 -139.5q0 -62 -34 -105t-88 -57v-3q64 -15 105 -60t41 -113
q0 -101 -78.5 -158.5t-189.5 -57.5z" />
    <glyph glyph-name="uni0418" unicode="&#x418;" horiz-adv-x="753" 
d="M78 0v708h126v-518h3l332 518h136v-708h-126v514h-2l-331 -514h-138z" />
    <glyph glyph-name="uni0419" unicode="&#x419;" horiz-adv-x="753" 
d="M78 0v708h126v-518h3l332 518h136v-708h-126v514h-2l-331 -514h-138zM372 764q-65 0 -109 37t-52 102l67 13q5 -34 30.5 -54t63.5 -20t63.5 20t30.5 54l68 -13q-9 -65 -52.5 -102t-109.5 -37z" />
    <glyph glyph-name="uni041A" unicode="&#x41a;" horiz-adv-x="689" 
d="M78 0v708h126v-306h3l296 306h170l-331 -327l353 -381h-177l-311 355h-3v-355h-126z" />
    <glyph glyph-name="uni041B" unicode="&#x41b;" horiz-adv-x="770" 
d="M91 -7q-51 0 -84 10l13 111q21 -7 43 -7q75 0 108.5 88t33.5 311v202h487v-708h-126v598h-240v-109q0 -261 -54.5 -378.5t-180.5 -117.5z" />
    <glyph glyph-name="uni041C" unicode="&#x41c;" horiz-adv-x="920" 
d="M78 0v708h197l184 -503h3l182 503h198v-708h-125v569h-2l-215 -569h-88l-212 569h-2v-569h-120z" />
    <glyph glyph-name="uni041D" unicode="&#x41d;" horiz-adv-x="739" 
d="M78 0v708h126v-286h331v286h126v-708h-126v314h-331v-314h-126z" />
    <glyph glyph-name="uni041E" unicode="&#x41e;" horiz-adv-x="849" 
d="M44 356q0 168 106.5 269t272.5 101q168 0 275 -101t107 -269q0 -165 -107.5 -269.5t-274.5 -104.5q-165 0 -272 104.5t-107 269.5zM181 356q0 -114 68 -187.5t175 -73.5q108 0 176 73.5t68 187.5q0 111 -67.5 185t-176.5 74q-108 0 -175.5 -74t-67.5 -185z" />
    <glyph glyph-name="uni041F" unicode="&#x41f;" horiz-adv-x="733" 
d="M78 0v708h577v-708h-126v598h-325v-598h-126z" />
    <glyph glyph-name="uni0420" unicode="&#x420;" 
d="M78 0v708h231q267 0 267 -205q0 -110 -76 -160t-199 -50h-97v-293h-126zM204 399h88q157 0 157 104q0 57 -41.5 78t-111.5 21h-92v-203z" />
    <glyph glyph-name="uni0421" unicode="&#x421;" horiz-adv-x="696" 
d="M685 618l-96 -76q-26 36 -70.5 54.5t-90.5 18.5q-108 0 -176.5 -74t-68.5 -185q0 -116 65.5 -188.5t174.5 -72.5q112 0 172 82l101 -71q-99 -124 -274 -124q-166 0 -272 104.5t-106 269.5q0 167 108.5 268.5t275.5 101.5q74 0 145.5 -27.5t111.5 -80.5z" />
    <glyph glyph-name="uni0422" unicode="&#x422;" horiz-adv-x="568" 
d="M221 0v598h-217v110h560v-110h-217v-598h-126z" />
    <glyph glyph-name="uni0423" unicode="&#x423;" horiz-adv-x="650" 
d="M146 -10q-52 0 -90 9l16 112q29 -9 59 -9q39 0 62.5 19t46.5 64l22 42l-272 481h146l197 -364l186 364h141l-294 -545q-48 -90 -93.5 -131.5t-126.5 -41.5z" />
    <glyph glyph-name="uni0424" unicode="&#x424;" horiz-adv-x="868" 
d="M369 -18v86q-143 2 -236 83.5t-93 213.5q0 140 88.5 216t240.5 81v64h130v-64q152 -5 240.5 -81t88.5 -216q0 -132 -93 -213.5t-236 -83.5v-86h-130zM369 179v373q-97 -7 -145 -57t-48 -131q0 -166 193 -185zM499 179q193 19 193 185q0 81 -48 131t-145 57v-373z" />
    <glyph glyph-name="uni0425" unicode="&#x425;" horiz-adv-x="658" 
d="M4 0l245 378l-220 330h152l146 -242l144 242h145l-216 -333l254 -375h-159l-173 278l-166 -278h-152z" />
    <glyph glyph-name="uni0426" unicode="&#x426;" horiz-adv-x="755" 
d="M620 -161v161h-542v708h126v-596h325v596h126v-596h78v-273h-113z" />
    <glyph glyph-name="uni0427" unicode="&#x427;" horiz-adv-x="667" 
d="M463 0v277q-79 -22 -161 -22q-119 0 -176 48.5t-57 151.5v253h126v-224q0 -62 31 -91t101 -29q89 0 136 19v325h126v-708h-126z" />
    <glyph glyph-name="uni0428" unicode="&#x428;" horiz-adv-x="1072" 
d="M78 0v708h126v-596h269v596h126v-596h269v596h126v-708h-916z" />
    <glyph glyph-name="uni0429" unicode="&#x429;" horiz-adv-x="1094" 
d="M994 708v-596h78v-273h-113v161h-881v708h126v-596h269v596h126v-596h269v596h126z" />
    <glyph glyph-name="uni042A" unicode="&#x42a;" horiz-adv-x="704" 
d="M171 0v598h-163v110h289v-281h105q120 0 193.5 -53t73.5 -160q0 -106 -73.5 -160t-191.5 -54h-233zM297 106h95q150 0 150 107q0 53 -39 80.5t-111 27.5h-95v-215z" />
    <glyph glyph-name="uni042B" unicode="&#x42b;" horiz-adv-x="878" 
d="M674 0v708h126v-708h-126zM78 0v708h126v-281h105q120 0 193.5 -53t73.5 -160q0 -106 -73.5 -160t-191.5 -54h-233zM204 106h95q150 0 150 107q0 53 -39 80.5t-111 27.5h-95v-215z" />
    <glyph glyph-name="uni042C" unicode="&#x42c;" horiz-adv-x="611" 
d="M78 0v708h126v-281h105q120 0 193.5 -53t73.5 -160q0 -106 -73.5 -160t-191.5 -54h-233zM204 106h95q150 0 150 107q0 53 -39 80.5t-111 27.5h-95v-215z" />
    <glyph glyph-name="uni042D" unicode="&#x42d;" horiz-adv-x="696" 
d="M0 106l95 73q64 -84 183 -84q99 0 163.5 61t70.5 156h-305v106h303q-14 85 -77 141t-155 56q-60 0 -107.5 -20.5t-71.5 -52.5l-86 81q40 49 111.5 76t152.5 27q161 0 268 -104.5t107 -267.5t-107 -268t-268 -105q-91 0 -163.5 34t-113.5 91z" />
    <glyph glyph-name="uni042E" unicode="&#x42e;" horiz-adv-x="1084" 
d="M684 -19q-148 0 -245 92.5t-109 240.5h-126v-314h-126v708h126v-286h129q17 134 113.5 219.5t237.5 85.5q158 0 257 -106t99 -266t-99.5 -267t-256.5 -107zM684 96q100 0 159.5 75.5t59.5 183.5t-59 183t-160 75t-160 -75t-59 -183q0 -109 59 -184t160 -75z" />
    <glyph glyph-name="uni042F" unicode="&#x42f;" horiz-adv-x="630" 
d="M19 0l190 300q-74 19 -115 70t-41 128q0 108 70.5 159t196.5 51h232v-708h-126v283h-88l-166 -283h-153zM332 386h94v216h-98q-150 0 -150 -107q0 -55 41 -82t113 -27z" />
    <glyph glyph-name="uni0430" unicode="&#x430;" horiz-adv-x="550" 
d="M370 0v61h-3q-18 -32 -58.5 -52.5t-90.5 -20.5q-69 0 -124.5 36.5t-55.5 112.5q0 41 20.5 71.5t51.5 47.5t77.5 27.5t88 13.5t92.5 3v12q0 42 -31 65t-79 23q-76 0 -131 -55l-62 73q82 76 203 76q62 0 105.5 -17.5t66.5 -48t32.5 -64t9.5 -72.5v-292h-112zM368 202v17
h-27q-183 0 -183 -80q0 -32 24.5 -46t59.5 -14q61 0 93.5 32.5t32.5 90.5z" />
    <glyph glyph-name="uni0431" unicode="&#x431;" horiz-adv-x="620" 
d="M317 -14q-125 0 -199 83q-35 40 -50.5 94t-15.5 144q0 75 4.5 127t18 104t38 84.5t66 55.5t99.5 31l123 16q43 6 62 15t25 32l86 -25q-13 -58 -43.5 -84.5t-89.5 -34.5l-130 -17q-44 -6 -72.5 -17t-52 -35.5t-35 -67.5t-13.5 -109h3q59 109 200 109q98 0 167 -70t69 -181
q0 -113 -75 -183.5t-185 -70.5zM315 87q64 0 102.5 45.5t38.5 110.5q0 64 -38.5 109.5t-103.5 45.5q-64 0 -100.5 -45t-36.5 -110t37 -110.5t101 -45.5z" />
    <glyph glyph-name="uni0432" unicode="&#x432;" horiz-adv-x="553" 
d="M72 0v480h248q43 0 77.5 -9t62.5 -38.5t28 -77.5q0 -37 -22.5 -64.5t-58.5 -36.5v-2q45 -7 73.5 -37.5t28.5 -78.5q0 -64 -50 -100t-132 -36h-255zM192 86h113q83 0 83 58t-80 58h-116v-116zM192 288h114q66 0 66 53q0 54 -75 54h-105v-107z" />
    <glyph glyph-name="uni0433" unicode="&#x433;" horiz-adv-x="429" 
d="M72 0v480h337v-96h-217v-384h-120z" />
    <glyph glyph-name="uni0434" unicode="&#x434;" horiz-adv-x="611" 
d="M13 -137v235h50q67 87 67 258v124h390v-382h71v-235h-101v137h-376v-137h-101zM190 98h210v286h-156v-59q0 -133 -54 -227z" />
    <glyph glyph-name="uni0435" unicode="&#x435;" horiz-adv-x="574" 
d="M164 288h246q0 50 -29 83t-84 33q-53 0 -91 -33t-42 -83zM530 234q0 -21 -1 -32h-365q4 -50 44 -84t93 -34q83 0 127 62l80 -64q-71 -96 -206 -96q-113 0 -185.5 68t-72.5 183t72 186t182 71q104 0 168 -67t64 -193z" />
    <glyph glyph-name="uni0436" unicode="&#x436;" horiz-adv-x="784" 
d="M-5 0l208 252l-191 228h148l169 -219h3v219h120v-219h3l170 219h148l-192 -228l208 -252h-148l-186 232h-3v-232h-120v232h-3l-185 -232h-149z" />
    <glyph glyph-name="uni0437" unicode="&#x437;" horiz-adv-x="480" 
d="M225 -16q-135 0 -210 87l72 70q21 -28 55.5 -46t73.5 -18q95 0 95 61q0 37 -29.5 51t-81.5 14h-38v86h38q99 0 99 61q0 53 -81 53q-73 0 -115 -55l-67 65q64 81 196 81q85 0 136.5 -35t51.5 -96q0 -41 -27 -71.5t-69 -39.5v-2q49 -9 79 -40t30 -77q0 -70 -59.5 -109.5
t-148.5 -39.5z" />
    <glyph glyph-name="uni0438" unicode="&#x438;" horiz-adv-x="606" 
d="M72 0v480h120v-310h2l210 310h130v-480h-120v308h-2l-208 -308h-132z" />
    <glyph glyph-name="uni0439" unicode="&#x439;" horiz-adv-x="606" 
d="M301 564q-67 0 -107 37.5t-49 103.5l65 7q5 -34 29.5 -52t61.5 -18t62 18t30 52l64 -13q-8 -64 -48 -99.5t-108 -35.5zM72 0v480h120v-310h2l210 310h130v-480h-120v308h-2l-208 -308h-132z" />
    <glyph glyph-name="uni043A" unicode="&#x43a;" horiz-adv-x="543" 
d="M72 0v480h120v-213h3l185 213h152l-211 -226l227 -254h-154l-199 228h-3v-228h-120z" />
    <glyph glyph-name="uni043B" unicode="&#x43b;" horiz-adv-x="605" 
d="M77 -6q-48 0 -72 8l9 98q15 -5 32 -5q46 0 70 47t24 167v171h393v-480h-120v384h-158v-102q0 -148 -43 -218t-135 -70z" />
    <glyph glyph-name="uni043C" unicode="&#x43c;" horiz-adv-x="758" 
d="M72 0v480h168l140 -324h1l135 324h170v-480h-118v340h-2l-149 -340h-80l-145 341h-2v-341h-118z" />
    <glyph glyph-name="uni043D" unicode="&#x43d;" horiz-adv-x="586" 
d="M72 0v480h120v-181h202v181h120v-480h-120v203h-202v-203h-120z" />
    <glyph glyph-name="uni043E" unicode="&#x43e;" 
d="M44 242q0 111 75 181.5t186 70.5t186 -70.5t75 -181.5q0 -112 -75.5 -184t-185.5 -72t-185.5 72t-75.5 184zM166 242q0 -62 36 -109t103 -47t103 47t36 109t-36 108t-103 46t-103 -46t-36 -108z" />
    <glyph glyph-name="uni043F" unicode="&#x43f;" horiz-adv-x="586" 
d="M72 0v480h442v-480h-120v384h-202v-384h-120z" />
    <glyph glyph-name="uni0440" unicode="&#x440;" horiz-adv-x="633" 
d="M72 480h115v-67h3q21 33 63.5 57t102.5 24q102 0 167.5 -72t65.5 -180t-64.5 -182t-171.5 -74q-50 0 -93 21t-66 57h-2v-304h-120v720zM467 242q0 62 -36.5 108t-101.5 46q-63 0 -102 -48t-39 -108t39 -107t102 -47q65 0 101.5 47t36.5 109z" />
    <glyph glyph-name="uni0441" unicode="&#x441;" horiz-adv-x="488" 
d="M482 419l-82 -72q-14 20 -42 33.5t-57 13.5q-62 0 -97 -46.5t-35 -107.5q0 -62 36 -108t100 -46q66 0 101 43l75 -76q-62 -67 -177 -67q-110 0 -185 69t-75 185q0 114 74 184t183 70q53 0 103 -20t78 -55z" />
    <glyph glyph-name="uni0442" unicode="&#x442;" horiz-adv-x="467" 
d="M174 0v384h-154v96h427v-96h-153v-384h-120z" />
    <glyph glyph-name="uni0443" unicode="&#x443;" horiz-adv-x="513" 
d="M206 0l-206 480h133l134 -349h2l119 349h125l-227 -583q-28 -71 -67.5 -104t-114.5 -33q-33 0 -62 7l10 104q22 -7 45 -7q36 0 52 16.5t33 58.5z" />
    <glyph glyph-name="uni0444" unicode="&#x444;" horiz-adv-x="770" 
d="M445 83q76 1 117.5 43t41.5 113q0 70 -42 111t-117 42v-309zM445 -240h-120v224q-131 1 -206 71t-75 183q0 117 74 184t207 69v265h120v-265q133 -2 207 -69t74 -184q0 -113 -75 -183t-206 -71v-224zM325 83v309q-75 -1 -117 -42t-42 -111q0 -71 41.5 -113t117.5 -43z
" />
    <glyph glyph-name="uni0445" unicode="&#x445;" horiz-adv-x="537" 
d="M-1 0l195 255l-173 225h144l104 -149l107 149h138l-172 -225l196 -255h-146l-125 175l-126 -175h-142z" />
    <glyph glyph-name="uni0446" unicode="&#x446;" horiz-adv-x="604" 
d="M484 -137v137h-412v480h120v-382h202v382h120v-382h70v-235h-100z" />
    <glyph glyph-name="uni0447" unicode="&#x447;" horiz-adv-x="540" 
d="M348 0v179q-58 -15 -127 -15q-166 0 -166 151v165h115v-131q0 -52 21.5 -70.5t68.5 -18.5q37 0 88 12v208h120v-480h-120z" />
    <glyph glyph-name="uni0448" unicode="&#x448;" horiz-adv-x="867" 
d="M72 0v480h120v-382h179v382h120v-382h178v382h120v-480h-717z" />
    <glyph glyph-name="uni0449" unicode="&#x449;" horiz-adv-x="879" 
d="M789 480v-382h70v-235h-100v137h-687v480h120v-382h179v382h120v-382h178v382h120z" />
    <glyph glyph-name="uni044A" unicode="&#x44a;" horiz-adv-x="602" 
d="M149 0v384h-129v96h249v-168h104q89 0 141.5 -38.5t52.5 -116.5q0 -76 -53 -116.5t-141 -40.5h-224zM269 91h73q54 0 79.5 15t25.5 50q0 36 -24 51t-81 15h-73v-131z" />
    <glyph glyph-name="uni044B" unicode="&#x44b;" horiz-adv-x="767" 
d="M575 0v480h120v-480h-120zM72 0v480h120v-168h104q89 0 141.5 -38.5t52.5 -116.5q0 -76 -53 -116.5t-141 -40.5h-224zM192 91h73q54 0 79.5 15t25.5 50q0 36 -24 51t-81 15h-73v-131z" />
    <glyph glyph-name="uni044C" unicode="&#x44c;" horiz-adv-x="515" 
d="M72 0v480h120v-168h104q89 0 141.5 -38.5t52.5 -116.5q0 -76 -53 -116.5t-141 -40.5h-224zM192 91h73q54 0 79.5 15t25.5 50q0 36 -24 51t-81 15h-73v-131z" />
    <glyph glyph-name="uni044D" unicode="&#x44d;" horiz-adv-x="493" 
d="M4 57l69 71q42 -45 112 -45q58 0 96.5 32.5t45.5 88.5h-191v86h188q-11 51 -47 80t-90 29q-68 0 -111 -48l-69 74q28 31 79 50t103 19q116 0 188 -70.5t72 -184.5t-71.5 -184t-188.5 -70q-118 0 -185 72z" />
    <glyph glyph-name="uni044E" unicode="&#x44e;" horiz-adv-x="828" 
d="M528 -15q-98 0 -167.5 60t-82.5 158h-86v-203h-120v480h120v-184h88q18 89 86 143.5t162 54.5q110 0 183 -71t73 -183q0 -113 -73 -184t-183 -71zM528 87q62 0 98 43t36 110t-36 110.5t-98 43.5q-61 0 -97 -43.5t-36 -110.5t36.5 -110t96.5 -43z" />
    <glyph glyph-name="uni044F" unicode="&#x44f;" horiz-adv-x="556" 
d="M36 0l121 182q-107 31 -107 143q0 76 53.5 115.5t138.5 39.5h242v-480h-120v170h-89l-98 -170h-141zM271 259h93v131h-93q-57 0 -81 -15t-24 -51q0 -35 25.5 -50t79.5 -15z" />
    <glyph glyph-name="uni0450" unicode="&#x450;" horiz-adv-x="574" 
d="M234 708l99 -144h-94l-141 144h136zM164 288h246q0 50 -29 83t-84 33q-53 0 -91 -33t-42 -83zM530 234q0 -21 -1 -32h-365q4 -50 44 -84t93 -34q83 0 127 62l80 -64q-71 -96 -206 -96q-113 0 -185.5 68t-72.5 183t72 186t182 71q104 0 168 -67t64 -193z" />
    <glyph glyph-name="uni0451" unicode="&#x451;" horiz-adv-x="574" 
d="M164 288h246q0 50 -29 83t-84 33q-53 0 -91 -33t-42 -83zM530 234q0 -21 -1 -32h-365q4 -50 44 -84t93 -34q83 0 127 62l80 -64q-71 -96 -206 -96q-113 0 -185.5 68t-72.5 183t72 186t182 71q104 0 168 -67t64 -193zM130 644q0 28 20.5 49t50.5 21q31 0 52 -20t21 -50
t-21 -50t-52 -20q-30 0 -50.5 21t-20.5 49zM326 644q0 28 20.5 49t50.5 21q31 0 52 -20t21 -50t-21 -50t-52 -20q-30 0 -50.5 21t-20.5 49z" />
    <glyph glyph-name="uni0452" unicode="&#x452;" horiz-adv-x="584" 
d="M516 290v-333q0 -91 -45 -144t-139 -53q-38 0 -70 8l12 97q26 -6 42 -6q45 0 62.5 27.5t17.5 77.5v290q0 127 -89 127q-54 0 -83.5 -38.5t-29.5 -90.5v-252h-120v562h-74v86h74v108h120v-108h145v-86h-145v-159h2q16 33 54.5 57t88.5 24q88 0 132.5 -56.5t44.5 -137.5z
" />
    <glyph glyph-name="uni0453" unicode="&#x453;" horiz-adv-x="429" 
d="M158 564l99 144h136l-141 -144h-94zM72 0v480h337v-96h-217v-384h-120z" />
    <glyph glyph-name="uni0454" unicode="&#x454;" horiz-adv-x="493" 
d="M420 128l69 -71q-67 -72 -185 -72q-117 0 -188.5 70t-71.5 184t72 184.5t188 70.5q52 0 103 -19t79 -50l-69 -74q-43 48 -111 48q-54 0 -90 -29t-47 -80h188v-86h-191q7 -56 45.5 -88.5t96.5 -32.5q70 0 112 45z" />
    <glyph glyph-name="uni0455" unicode="&#x455;" horiz-adv-x="444" 
d="M413 421l-78 -69q-17 22 -45 37t-60 15t-54.5 -13t-22.5 -39q0 -25 23 -37t81 -26q31 -7 55 -16.5t48.5 -25.5t38 -42t13.5 -59q0 -82 -56.5 -121t-143.5 -39q-57 0 -110 21t-87 58l79 74q46 -60 123 -60q31 0 54 14t23 43q0 28 -24.5 41.5t-85.5 27.5
q-65 16 -103.5 45.5t-38.5 90.5q0 75 56 114t135 39q54 0 103 -19t77 -54z" />
    <glyph glyph-name="uni0456" unicode="&#x456;" horiz-adv-x="268" 
d="M74 0v480h120v-480h-120zM57 643q0 29 22 50.5t54 21.5q33 0 55.5 -20.5t22.5 -51.5t-22.5 -51.5t-55.5 -20.5q-32 0 -54 21.5t-22 50.5z" />
    <glyph glyph-name="uni0457" unicode="&#x457;" horiz-adv-x="268" 
d="M-36 644q0 28 20.5 49t50.5 21q31 0 52 -20t21 -50t-21 -50t-52 -20q-30 0 -50.5 21t-20.5 49zM160 644q0 28 20.5 49t50.5 21q31 0 52 -20t21 -50t-21 -50t-52 -20q-30 0 -50.5 21t-20.5 49zM74 0v480h120v-480h-120z" />
    <glyph glyph-name="uni0458" unicode="&#x458;" horiz-adv-x="268" 
d="M74 480h120v-509q0 -47 -7.5 -82t-25.5 -66t-53.5 -47t-87.5 -16q-30 0 -54 6l10 102q15 -4 33 -4q39 0 52 26.5t13 75.5v514zM57 643q0 29 22 50.5t54 21.5q33 0 55.5 -20.5t22.5 -51.5t-22.5 -51.5t-55.5 -20.5q-32 0 -54 21.5t-22 50.5z" />
    <glyph glyph-name="uni0459" unicode="&#x459;" horiz-adv-x="856" 
d="M77 -6q-48 0 -72 8l9 98q15 -5 32 -5q46 0 70 47t24 167v171h393v-168h104q89 0 141.5 -38.5t52.5 -116.5q0 -76 -53 -116.5t-141 -40.5h-224v384h-158v-102q0 -148 -43 -218t-135 -70zM533 91h73q54 0 79.5 15t25.5 50q0 36 -24 51t-81 15h-73v-131z" />
    <glyph glyph-name="uni045A" unicode="&#x45a;" horiz-adv-x="841" 
d="M72 0v480h120v-175h202v175h120v-175h106q90 0 143 -37.5t53 -115.5q0 -75 -53 -113.5t-142 -38.5h-227v215h-202v-215h-120zM514 90h91q90 0 90 62q0 63 -90 63h-91v-125z" />
    <glyph glyph-name="uni045B" unicode="&#x45b;" horiz-adv-x="584" 
d="M0 648h74v108h120v-108h145v-86h-145v-159h2q16 33 54.5 57t88.5 24q88 0 132.5 -56.5t44.5 -137.5v-290h-120v254q0 127 -89 127q-54 0 -83.5 -38.5t-29.5 -90.5v-252h-120v562h-74v86z" />
    <glyph glyph-name="uni045C" unicode="&#x45c;" horiz-adv-x="543" 
d="M229 564l99 144h136l-141 -144h-94zM72 0v480h120v-213h3l185 213h152l-211 -226l227 -254h-154l-199 228h-3v-228h-120z" />
    <glyph glyph-name="uni045D" unicode="&#x45d;" horiz-adv-x="606" 
d="M276 708l99 -144h-94l-141 144h136zM72 0v480h120v-310h2l210 310h130v-480h-120v308h-2l-208 -308h-132z" />
    <glyph glyph-name="uni045E" unicode="&#x45e;" horiz-adv-x="513" 
d="M268 564q-67 0 -107 37.5t-49 103.5l65 7q5 -34 29.5 -52t61.5 -18t62 18t30 52l64 -13q-8 -64 -48 -99.5t-108 -35.5zM206 0l-206 480h133l134 -349h2l119 349h125l-227 -583q-28 -71 -67.5 -104t-114.5 -33q-33 0 -62 7l10 104q22 -7 45 -7q36 0 52 16.5t33 58.5z" />
    <glyph glyph-name="uni045F" unicode="&#x45f;" horiz-adv-x="586" 
d="M243 -137v137h-171v480h120v-382h202v382h120v-480h-170v-137h-101z" />
    <glyph glyph-name="uni0490" unicode="&#x490;" horiz-adv-x="507" 
d="M78 0v708h319v137h106v-247h-299v-598h-126z" />
    <glyph glyph-name="uni0491" unicode="&#x491;" horiz-adv-x="429" 
d="M72 0v480h242v118h95v-214h-217v-384h-120z" />
    <glyph glyph-name="Wgrave" unicode="&#x1e80;" horiz-adv-x="1004" 
d="M213 0l-207 708h138l137 -520h2l156 520h130l153 -520h2l140 520h134l-207 -708h-122l-166 531h-2l-166 -531h-122zM462 908l99 -144h-94l-141 144h136z" />
    <glyph glyph-name="wgrave" unicode="&#x1e81;" horiz-adv-x="804" 
d="M171 0l-167 480h130l100 -344h2l103 344h128l104 -344h2l102 344h125l-166 -480h-122l-109 336h-2l-108 -336h-122zM360 708l99 -144h-94l-141 144h136z" />
    <glyph glyph-name="Wacute" unicode="&#x1e82;" horiz-adv-x="1004" 
d="M213 0l-207 708h138l137 -520h2l156 520h130l153 -520h2l140 520h134l-207 -708h-122l-166 531h-2l-166 -531h-122zM447 764l99 144h136l-141 -144h-94z" />
    <glyph glyph-name="wacute" unicode="&#x1e83;" horiz-adv-x="804" 
d="M171 0l-167 480h130l100 -344h2l103 344h128l104 -344h2l102 344h125l-166 -480h-122l-109 336h-2l-108 -336h-122zM347 564l99 144h136l-141 -144h-94z" />
    <glyph glyph-name="Wdieresis" unicode="&#x1e84;" horiz-adv-x="1004" 
d="M213 0l-207 708h138l137 -520h2l156 520h130l153 -520h2l140 520h134l-207 -708h-122l-166 531h-2l-166 -531h-122zM332 844q0 28 20.5 49t50.5 21q31 0 52 -20t21 -50t-21 -50t-52 -20q-30 0 -50.5 21t-20.5 49zM528 844q0 28 20.5 49t50.5 21q31 0 52 -20t21 -50
t-21 -50t-52 -20q-30 0 -50.5 21t-20.5 49z" />
    <glyph glyph-name="wdieresis" unicode="&#x1e85;" horiz-adv-x="804" 
d="M171 0l-167 480h130l100 -344h2l103 344h128l104 -344h2l102 344h125l-166 -480h-122l-109 336h-2l-108 -336h-122zM232 644q0 28 20.5 49t50.5 21q31 0 52 -20t21 -50t-21 -50t-52 -20q-30 0 -50.5 21t-20.5 49zM428 644q0 28 20.5 49t50.5 21q31 0 52 -20t21 -50
t-21 -50t-52 -20q-30 0 -50.5 21t-20.5 49z" />
    <glyph glyph-name="Ygrave" unicode="&#x1ef2;" horiz-adv-x="622" 
d="M249 0v307l-266 401h154l178 -298l180 298h146l-266 -401v-307h-126zM275 908l99 -144h-94l-141 144h136z" />
    <glyph glyph-name="ygrave" unicode="&#x1ef3;" horiz-adv-x="513" 
d="M206 0l-206 480h133l134 -349h2l119 349h125l-227 -583q-28 -71 -67.5 -104t-114.5 -33q-33 0 -62 7l10 104q22 -7 45 -7q36 0 52 16.5t33 58.5zM219 708l99 -144h-94l-141 144h136z" />
    <glyph glyph-name="uni2010" unicode="&#x2010;" horiz-adv-x="320" 
d="M280 297v-102h-240v102h240z" />
    <glyph glyph-name="endash" unicode="&#x2013;" horiz-adv-x="400" 
d="M370 292v-92h-340v92h340z" />
    <glyph glyph-name="emdash" unicode="&#x2014;" horiz-adv-x="600" 
d="M570 292v-92h-540v92h540z" />
    <glyph glyph-name="afii00208" unicode="&#x2015;" horiz-adv-x="600" 
d="M570 292v-92h-540v92h540z" />
    <glyph glyph-name="quoteleft" unicode="&#x2018;" horiz-adv-x="270" 
d="M228 708l-70 -264h-116l85 264h101z" />
    <glyph glyph-name="quoteright" unicode="&#x2019;" horiz-adv-x="270" 
d="M42 444l70 264h116l-85 -264h-101z" />
    <glyph glyph-name="quotesinglbase" unicode="&#x201a;" horiz-adv-x="270" 
d="M42 -126l70 264h116l-85 -264h-101z" />
    <glyph glyph-name="quotedblleft" unicode="&#x201c;" horiz-adv-x="465" 
d="M228 708l-70 -264h-116l85 264h101zM423 708l-70 -264h-116l85 264h101z" />
    <glyph glyph-name="quotedblright" unicode="&#x201d;" horiz-adv-x="465" 
d="M237 444l70 264h116l-85 -264h-101zM42 444l70 264h116l-85 -264h-101z" />
    <glyph glyph-name="quotedblbase" unicode="&#x201e;" horiz-adv-x="465" 
d="M237 -126l70 264h116l-85 -264h-101zM42 -126l70 264h116l-85 -264h-101z" />
    <glyph glyph-name="dagger" unicode="&#x2020;" horiz-adv-x="593" 
d="M353 708v-203h199v-96h-199v-535h-114v535h-198v96h198v203h114z" />
    <glyph glyph-name="daggerdbl" unicode="&#x2021;" horiz-adv-x="593" 
d="M353 708v-185h193v-96h-193v-271h193v-96h-193v-186h-114v186h-192v96h192v271h-192v96h192v185h114z" />
    <glyph glyph-name="bullet" unicode="&#x2022;" horiz-adv-x="500" 
d="M73 354q0 74 51.5 125.5t125.5 51.5t125.5 -51.5t51.5 -125.5t-51.5 -125.5t-125.5 -51.5t-125.5 51.5t-51.5 125.5z" />
    <glyph glyph-name="ellipsis" unicode="&#x2026;" horiz-adv-x="1000" 
d="M87 70q0 32 23.5 55t56.5 23t56.5 -22t23.5 -54t-23.5 -55t-56.5 -23q-32 0 -56 22t-24 54zM420 70q0 32 23.5 55t56.5 23t56.5 -22t23.5 -54t-23.5 -55t-56.5 -23q-32 0 -56 22t-24 54zM753 70q0 32 23.5 55t56.5 23t56.5 -22t23.5 -54t-23.5 -55t-56.5 -23
q-32 0 -56 22t-24 54z" />
    <glyph glyph-name="perthousand" unicode="&#x2030;" horiz-adv-x="1230" 
d="M443 165q0 73 51.5 124.5t124.5 51.5t125 -51.5t52 -124.5t-52 -125t-125 -52t-124.5 52t-51.5 125zM533 165q0 -38 24.5 -62.5t61.5 -24.5t62 25t25 62t-24.5 61.5t-62.5 24.5q-37 0 -61.5 -24.5t-24.5 -61.5zM839 165q0 73 51.5 124.5t124.5 51.5t125 -51.5t52 -124.5
t-52 -125t-125 -52t-124.5 52t-51.5 125zM929 165q0 -38 24.5 -62.5t61.5 -24.5t62 25t25 62t-24.5 61.5t-62.5 24.5q-37 0 -61.5 -24.5t-24.5 -61.5zM39 544q0 73 51.5 124.5t124.5 51.5t125 -51.5t52 -124.5t-52 -125t-125 -52t-124.5 52t-51.5 125zM129 544
q0 -38 24.5 -62.5t61.5 -24.5t62 24.5t25 62.5q0 37 -24.5 61.5t-62.5 24.5q-37 0 -61.5 -24t-24.5 -62zM166 6l416 734l83 -38l-416 -734z" />
    <glyph glyph-name="guilsinglleft" unicode="&#x2039;" horiz-adv-x="296" 
d="M257 421l-115 -173l116 -175l-76 -51l-152 226l152 224z" />
    <glyph glyph-name="guilsinglright" unicode="&#x203a;" horiz-adv-x="296" 
d="M39 73l115 173l-116 175l76 51l152 -226l-152 -224z" />
    <glyph glyph-name="interrobang" unicode="&#x203d;" horiz-adv-x="519" 
d="M326 209h-112l-1 301h108l-5 -118h1q64 67 64 131q0 44 -27.5 72t-78.5 28t-80.5 -30.5t-33.5 -79.5l-113 11q11 94 75 148t158 54q91 0 152 -51.5t61 -142.5q0 -59 -24.5 -100.5t-75.5 -87.5q-41 -37 -54.5 -60t-13.5 -64v-11zM351 72q0 -32 -23.5 -55t-56.5 -23
q-32 0 -56 22t-24 54t23.5 55t56.5 23t56.5 -22t23.5 -54z" />
    <glyph glyph-name="fraction" unicode="&#x2044;" horiz-adv-x="100" 
d="M-214 6l416 734l78 -38l-416 -734z" />
    <glyph glyph-name="zero.superior" unicode="&#x2070;" horiz-adv-x="400" 
d="M358 663q0 -105 -40 -163.5t-117 -58.5q-78 0 -118.5 58.5t-40.5 163.5q0 104 40.5 162.5t118.5 58.5q77 0 117 -58.5t40 -162.5zM265 663q0 142 -64 142q-65 0 -65 -142t65 -142q64 0 64 142z" />
    <glyph glyph-name="four.superior" unicode="&#x2074;" horiz-adv-x="400" 
d="M306 448h-86v85h-190v74l179 270h97v-265h58v-79h-58v-85zM220 612v150h-1l-96 -150h97z" />
    <glyph glyph-name="five.superior" unicode="&#x2075;" horiz-adv-x="400" 
d="M353 594q0 -69 -45.5 -111t-112.5 -42q-55 0 -94 27.5t-57 78.5l81 28q20 -55 71 -55q30 0 48 18.5t18 49.5q0 34 -22 51.5t-58 17.5q-50 0 -106 -30l7 250h253v-82h-166l-3 -66q19 4 36 4q66 0 108 -37t42 -102z" />
    <glyph glyph-name="six.superior" unicode="&#x2076;" horiz-adv-x="400" 
d="M358 593q0 -67 -45 -109.5t-113 -42.5t-113.5 43.5t-45.5 106.5q0 59 43 125l104 161h111l-102 -146l1 -1q10 3 25 3q55 0 95 -40.5t40 -99.5zM267 590q0 30 -18.5 49.5t-48.5 19.5t-49 -19.5t-19 -50.5q0 -28 18.5 -48.5t48.5 -20.5q31 0 49.5 19.5t18.5 50.5z" />
    <glyph glyph-name="seven.superior" unicode="&#x2077;" horiz-adv-x="400" 
d="M182 448h-105l172 347h-196v82h297v-74z" />
    <glyph glyph-name="eight.superior" unicode="&#x2078;" horiz-adv-x="400" 
d="M352 575q0 -62 -43.5 -98t-108.5 -36t-108.5 36t-43.5 98q0 34 17.5 59.5t46.5 38.5v2q-52 26 -52 87q0 54 40.5 88t99.5 34q60 0 100 -32.5t40 -86.5q0 -61 -50 -90v-2q28 -12 45 -38.5t17 -59.5zM200 807q-21 0 -35 -14t-14 -35t14 -35t35 -14q20 0 34.5 14t14.5 35
t-14.5 35t-34.5 14zM200 636q-25 0 -43 -16t-18 -42t17.5 -42t43.5 -16t43.5 16t17.5 42q0 25 -18 41.5t-43 16.5z" />
    <glyph glyph-name="nine.superior" unicode="&#x2079;" horiz-adv-x="400" 
d="M358 735q0 -60 -43 -126l-104 -161h-111l102 146l-1 1q-12 -3 -25 -3q-59 0 -97 41t-38 99q0 67 45 109.5t113 42.5t113.5 -43t45.5 -106zM267 736q0 29 -18.5 49.5t-48.5 20.5q-31 0 -49.5 -19.5t-18.5 -51.5q0 -30 18.5 -49t48.5 -19t49 19.5t19 49.5z" />
    <glyph glyph-name="zero.inferior" unicode="&#x2080;" horiz-adv-x="400" 
d="M358 73q0 -105 -40 -163.5t-117 -58.5q-78 0 -118.5 58.5t-40.5 163.5q0 104 40.5 162.5t118.5 58.5q77 0 117 -58.5t40 -162.5zM265 73q0 142 -64 142q-65 0 -65 -142t65 -142q64 0 64 142z" />
    <glyph glyph-name="one.inferior" unicode="&#x2081;" horiz-adv-x="400" 
d="M170 -142v317l-73 -61l-53 62l137 111h83v-429h-94z" />
    <glyph glyph-name="two.inferior" unicode="&#x2082;" horiz-adv-x="400" 
d="M347 -142h-291v76l162 161q36 36 36 70q0 22 -15 35.5t-38 13.5q-25 0 -42 -18.5t-19 -48.5l-88 12q7 59 48 97t101 38q61 0 103.5 -33.5t42.5 -94.5q0 -62 -69 -129l-100 -97h169v-82z" />
    <glyph glyph-name="three.inferior" unicode="&#x2083;" horiz-adv-x="400" 
d="M354 -17q0 -64 -45.5 -98t-107.5 -34q-125 0 -161 112l85 25q19 -58 73 -58q27 0 46 14t19 43q0 56 -88 56h-27v71h28q32 0 53.5 13.5t21.5 43.5q0 21 -14 33t-36 12q-47 0 -59 -53l-86 21q14 48 54 79t91 31q63 0 102.5 -30t39.5 -88q0 -62 -55 -93q66 -25 66 -100z" />
    <glyph glyph-name="four.inferior" unicode="&#x2084;" horiz-adv-x="400" 
d="M306 -142h-86v85h-190v74l179 270h97v-265h58v-79h-58v-85zM220 22v150h-1l-96 -150h97z" />
    <glyph glyph-name="five.inferior" unicode="&#x2085;" horiz-adv-x="400" 
d="M353 4q0 -69 -45.5 -111t-112.5 -42q-55 0 -94 27.5t-57 78.5l81 28q20 -55 71 -55q30 0 48 18.5t18 49.5q0 34 -22 51.5t-58 17.5q-50 0 -106 -30l7 250h253v-82h-166l-3 -66q19 4 36 4q66 0 108 -37t42 -102z" />
    <glyph glyph-name="six.inferior" unicode="&#x2086;" horiz-adv-x="400" 
d="M358 3q0 -67 -45 -109.5t-113 -42.5t-113.5 43.5t-45.5 106.5q0 59 43 125l104 161h111l-102 -146l1 -1q10 3 25 3q55 0 95 -40.5t40 -99.5zM267 0q0 30 -18.5 49.5t-48.5 19.5t-49 -19.5t-19 -50.5q0 -28 18.5 -48.5t48.5 -20.5q31 0 49.5 19.5t18.5 50.5z" />
    <glyph glyph-name="seven.inferior" unicode="&#x2087;" horiz-adv-x="400" 
d="M182 -142h-105l172 347h-196v82h297v-74z" />
    <glyph glyph-name="eight.inferior" unicode="&#x2088;" horiz-adv-x="400" 
d="M352 -15q0 -62 -43.5 -98t-108.5 -36t-108.5 36t-43.5 98q0 34 17.5 59.5t46.5 38.5v2q-52 26 -52 87q0 54 40.5 88t99.5 34q60 0 100 -32.5t40 -86.5q0 -61 -50 -90v-2q28 -12 45 -38.5t17 -59.5zM200 217q-21 0 -35 -14t-14 -35t14 -35t35 -14q20 0 34.5 14t14.5 35
t-14.5 35t-34.5 14zM200 46q-25 0 -43 -16t-18 -42t17.5 -42t43.5 -16t43.5 16t17.5 42q0 25 -18 41.5t-43 16.5z" />
    <glyph glyph-name="nine.inferior" unicode="&#x2089;" horiz-adv-x="400" 
d="M358 145q0 -60 -43 -126l-104 -161h-111l102 146l-1 1q-12 -3 -25 -3q-59 0 -97 41t-38 99q0 67 45 109.5t113 42.5t113.5 -43t45.5 -106zM267 146q0 29 -18.5 49.5t-48.5 20.5q-31 0 -49.5 -19.5t-18.5 -51.5q0 -30 18.5 -49t48.5 -19t49 19.5t19 49.5z" />
    <glyph glyph-name="Euro" unicode="&#x20ac;" 
d="M543 121l41 -96q-67 -43 -176 -43q-129 0 -206 67t-103 173h-84l28 86h45q-1 15 -1 44q0 27 3 48h-72l30 86h55q29 110 114 175t203 65q97 0 160 -33l-38 -100q-46 28 -128 28q-63 0 -116.5 -36t-73.5 -99h288l-28 -86h-279q-3 -21 -3 -49q0 -30 2 -43h256l-27 -86h-214
q14 -58 67 -96t126 -38q76 0 131 33z" />
    <glyph glyph-name="afii61248" unicode="&#x2105;" horiz-adv-x="934" 
d="M234 350q-81 0 -136.5 50.5t-55.5 135.5q0 83 55 134.5t135 51.5q89 0 142 -64l-74 -62q-24 34 -68 34q-37 0 -60.5 -26.5t-23.5 -67.5q0 -37 23.5 -65t63.5 -28q43 0 70 32l67 -66q-56 -59 -138 -59zM291 -32l-83 38l416 734l83 -38zM892 175q0 -81 -55.5 -134
t-136.5 -53t-136.5 53t-55.5 134q0 82 55.5 133.5t136.5 51.5t136.5 -51.5t55.5 -133.5zM788 175q0 37 -23 65t-65 28t-65 -28t-23 -65t23 -65.5t65 -28.5q41 0 64.5 28.5t23.5 65.5z" />
    <glyph glyph-name="afii61289" unicode="&#x2113;" horiz-adv-x="500" 
d="M443 49q-72 -63 -158 -63q-71 0 -112 38.5t-41 102.5v64l-56 -52h-2l-42 63l99 85v244q0 83 47 136.5t118 53.5q62 0 99.5 -39t37.5 -104q0 -146 -185 -310v-122q0 -39 19 -56.5t46 -17.5q41 0 88 38h2zM338 570q0 31 -12 52t-31 21q-20 0 -33.5 -24.5t-13.5 -65.5v-185
q90 99 90 202z" />
    <glyph glyph-name="uni2116" unicode="&#x2116;" horiz-adv-x="1051" 
d="M78 0v708h143l279 -509h3v509h123v-708h-144l-277 506h-3v-506h-124zM725 293v73h286v-73h-286zM866 421q-66 0 -109 42t-43 106q0 65 43 106.5t109 41.5t109 -41.5t43 -106.5q0 -64 -43 -106t-109 -42zM866 494q33 0 51.5 22t18.5 53q0 32 -18.5 53.5t-51.5 21.5
t-51 -21.5t-18 -53.5q0 -31 18 -53t51 -22z" />
    <glyph glyph-name="published" unicode="&#x2117;" horiz-adv-x="800" 
d="M20 353q0 157 111.5 267t269.5 110q157 0 268 -110t111 -267q0 -156 -111 -265.5t-268 -109.5q-158 0 -269.5 109.5t-111.5 265.5zM80 353q0 -132 94 -225.5t227 -93.5q132 0 225.5 93.5t93.5 225.5q0 133 -93.5 227t-225.5 94q-133 0 -227 -94t-94 -227zM268 126v442
h169q80 0 126 -37t46 -108q0 -72 -48 -110t-125 -38h-68v-149h-100zM368 362h70q34 0 53 15.5t19 45.5q0 29 -18.5 44t-50.5 15h-73v-120z" />
    <glyph glyph-name="trademark" unicode="&#x2122;" horiz-adv-x="1000" 
d="M162 296v322h-122v90h346v-90h-122v-322h-102zM465 296v412h142l98 -268l98 268h142v-412h-102v268h-2l-101 -268h-70l-101 268h-2v-268h-102z" />
    <glyph glyph-name="Omega" unicode="&#x2126;" horiz-adv-x="777" 
d="M718 0h-283v191q75 19 116.5 77.5t41.5 135.5q0 38 -11.5 74t-35 67.5t-64 50.5t-93.5 19q-101 0 -153 -62t-52 -149q0 -82 43.5 -138.5t114.5 -74.5v-191h-283v102h183v19q-94 30 -143 107t-49 176q0 148 97.5 235t241.5 87q147 0 242.5 -88.5t95.5 -232.5
q0 -104 -50.5 -179.5t-141.5 -104.5v-19h183v-102z" />
    <glyph glyph-name="estimated" unicode="&#x212e;" horiz-adv-x="500" 
d="M561 259h-404v-181q59 -59 145 -59q122 0 193 120l35 -21q-46 -72 -98 -103.5t-130 -31.5q-115 0 -186.5 79t-71.5 197q0 119 71 197.5t187 78.5q115 0 186.5 -77t72.5 -199zM157 295h291v145q-63 60 -147 60t-144 -60v-145z" />
    <glyph glyph-name="partialdiff" unicode="&#x2202;" horiz-adv-x="556" 
d="M514 358q0 -56 -6 -104.5t-23.5 -99t-45 -86.5t-73.5 -58.5t-107 -22.5q-98 0 -158.5 64.5t-60.5 163.5q0 97 60 159t156 62q77 0 143 -55v28q1 38 -6.5 75.5t-23.5 72t-47.5 56t-73.5 21.5q-61 0 -122 -49l-59 70q86 66 175 66q74 0 129 -31.5t85 -85t44 -115t14 -131.5
zM398 264l-1 25q-57 64 -126 64q-59 0 -90.5 -41.5t-31.5 -102.5q0 -59 28.5 -98.5t85.5 -39.5q65 0 101 61.5t34 131.5z" />
    <glyph glyph-name="Delta" unicode="&#x2206;" horiz-adv-x="713" 
d="M675 0h-637v107l265 601h109l263 -601v-107zM354 558l-180 -451h361z" />
    <glyph glyph-name="product" unicode="&#x220f;" horiz-adv-x="741" 
d="M679 -214h-114v897h-389v-897h-114v1000h617v-1000z" />
    <glyph glyph-name="summation" unicode="&#x2211;" horiz-adv-x="648" 
d="M624 -214h-599v89l303 417l-290 405v89h573v-103h-422l275 -390l-293 -404h453v-103z" />
    <glyph glyph-name="minus" unicode="&#x2212;" horiz-adv-x="666" 
d="M62 354h542v-102h-542v102z" />
    <glyph glyph-name="uni2215" unicode="&#x2215;" horiz-adv-x="100" 
d="M-214 6l416 734l78 -38l-416 -734z" />
    <glyph glyph-name="uni2219" unicode="&#x2219;" horiz-adv-x="260" 
d="M50 291q0 32 23.5 55t56.5 23t56.5 -22t23.5 -54t-23.5 -55t-56.5 -23q-32 0 -56 22t-24 54z" />
    <glyph glyph-name="radical" unicode="&#x221a;" horiz-adv-x="537" 
d="M549 786l-211 -1000h-106l-152 317l-51 -25l-41 90l148 68l129 -273l168 823h116z" />
    <glyph glyph-name="infinity" unicode="&#x221e;" horiz-adv-x="815" 
d="M770 263q0 -78 -46 -130t-123 -52q-56 0 -100.5 29.5t-92.5 82.5q-27 -28 -42.5 -43t-40.5 -33.5t-51.5 -26.5t-57.5 -8q-77 0 -124 51t-47 129q0 77 45.5 128t121.5 51q59 0 103.5 -31t92.5 -88q48 57 92 88.5t102 31.5q76 0 122 -51t46 -128zM680 260q0 37 -21.5 61.5
t-58.5 24.5q-55 0 -135 -87q74 -82 138 -82q36 0 56.5 23.5t20.5 59.5zM350 259q-81 86 -138 86q-34 0 -55.5 -25t-21.5 -60q0 -37 21.5 -59.5t58.5 -22.5q63 0 135 81z" />
    <glyph glyph-name="integral" unicode="&#x222b;" horiz-adv-x="611" 
d="M486 709q0 -23 -15 -37.5t-37 -14.5q-27 0 -40 18.5t-19 36.5t-17 18q-16 0 -16 -26q0 -20 2 -61t2 -61v-589q0 -43 -5.5 -75.5t-19.5 -65t-44 -50t-75 -17.5q-42 0 -76.5 18.5t-34.5 57.5q0 23 15.5 38t37.5 15q21 0 34 -11.5t16.5 -25t9 -25t14.5 -11.5q4 0 7.5 2t5 5
t3 6.5t1.5 9v8.5v8v7q0 17 -2 51t-2 51v506q0 10 -0.5 39t0 43.5t1.5 42.5t5 43.5t10.5 38t17.5 35t26 25.5t36.5 18.5t48.5 5.5q41 0 75.5 -19.5t34.5 -57.5z" />
    <glyph glyph-name="approxequal" unicode="&#x2248;" horiz-adv-x="666" 
d="M602 451q-8 -74 -43.5 -123t-105.5 -49q-47 0 -136 35q-94 34 -117 34q-26 0 -42.5 -20.5t-21.5 -48.5h-71q7 72 40 118q38 55 106 55q45 0 130 -33q91 -33 128 -33q26 0 41.5 18.5t20.5 46.5h71zM600 243q-8 -75 -43 -123.5t-105 -48.5q-45 0 -136 35q-92 34 -118 34
t-42.5 -20.5t-21.5 -47.5h-71q7 72 43 122t103 50q45 0 130 -33q91 -33 128 -33q26 0 41.5 18.5t20.5 46.5h71z" />
    <glyph glyph-name="notequal" unicode="&#x2260;" horiz-adv-x="666" 
d="M586 162h-264l-74 -144l-88 45l50 99h-130v102h181l38 78h-219v102h270l72 143l90 -44l-51 -99h125v-102h-176l-38 -78h214v-102z" />
    <glyph glyph-name="lessequal" unicode="&#x2264;" horiz-adv-x="666" 
d="M586 144l-506 170v108l506 177v-113l-359 -118l359 -112v-112zM586 4h-506v107h506v-107z" />
    <glyph glyph-name="greaterequal" unicode="&#x2265;" horiz-adv-x="666" 
d="M80 144v112l359 112l-359 118v113l506 -177v-108zM80 4v107h506v-107h-506z" />
    <glyph glyph-name="lozenge" unicode="&#x25ca;" horiz-adv-x="593" 
d="M524 356l-178 -391h-100l-177 391l177 391h100zM415 356l-119 285l-118 -285l118 -286z" />
    <glyph glyph-name="f_i" unicode="&#xf001;" horiz-adv-x="592" 
d="M91 0v384h-91v96h91v71q0 97 45 157t149 60q36 0 61 -7l-8 -102q-23 7 -46 7q-81 0 -81 -108v-78h111v-96h-111v-384h-120zM398 0v480h120v-480h-120zM381 643q0 29 22 50.5t54 21.5q33 0 55.5 -20.5t22.5 -51.5t-22.5 -51.5t-55.5 -20.5q-32 0 -54 21.5t-22 50.5z" />
    <glyph glyph-name="f_l" unicode="&#xf002;" horiz-adv-x="592" 
d="M91 0v384h-91v96h91v71q0 97 45 157t149 60q36 0 61 -7l-8 -102q-23 7 -46 7q-81 0 -81 -108v-78h111v-96h-111v-384h-120zM398 0v756h120v-756h-120z" />
    <glyph glyph-name="uniF8FF" unicode="&#xf8ff;" horiz-adv-x="512" 
d="M278 117h-56v67h56v-67zM271 234h-46l-2 17q0 56 13 81q15 28 46 59q31 29 40.5 46t9.5 37q0 36 -22.5 60.5t-53.5 24.5q-71 0 -82 -95l-50 8q7 69 43 103t92 34q54 0 89 -36t35 -95q0 -34 -13 -60t-50 -60q-37 -33 -43 -52q-6 -20 -6 -72zM50 50h412v617h-412v-617z
M0 718h512v-718h-512v718z" />
    <glyph glyph-name="grave.cap" horiz-adv-x="260" 
d="M101 908l99 -144h-94l-141 144h136z" />
    <glyph glyph-name="acute.cap" horiz-adv-x="260" 
d="M60 764l99 144h136l-141 -144h-94z" />
    <glyph glyph-name="circumflex.cap" horiz-adv-x="260" 
d="M312 764h-114l-69 90l-69 -90h-112l115 144h135z" />
    <glyph glyph-name="caron.cap" horiz-adv-x="260" 
d="M-51 908h114l69 -90l69 90h110l-115 -144h-133z" />
    <glyph glyph-name="caron.alt" horiz-adv-x="260" 
d="M67 513l65 195h106l-80 -195h-91z" />
    <glyph glyph-name="tilde.cap" horiz-adv-x="260" 
d="M12 768h-66q22 127 112 127q36 0 79 -18q45 -19 65 -19q33 0 46 42h66q-22 -127 -112 -127q-37 0 -82 20q-39 18 -62 18q-32 0 -46 -43z" />
    <glyph glyph-name="dieresis.cap" horiz-adv-x="260" 
d="M-40 844q0 28 20.5 49t50.5 21q31 0 52 -20t21 -50t-21 -50t-52 -20q-30 0 -50.5 21t-20.5 49zM156 844q0 28 20.5 49t50.5 21q31 0 52 -20t21 -50t-21 -50t-52 -20q-30 0 -50.5 21t-20.5 49z" />
    <glyph glyph-name="macron.cap" horiz-adv-x="260" 
d="M290 873v-78h-320v78h320z" />
    <glyph glyph-name="breve.cap" horiz-adv-x="260" 
d="M-40 908h67q12 -66 103 -66q46 0 70 13t34 53h66q-7 -72 -52.5 -108t-118.5 -36q-74 0 -119.5 36t-49.5 108z" />
    <glyph glyph-name="ring.cap" horiz-adv-x="260" 
d="M235 855q0 -44 -30 -73t-75 -29q-44 0 -74.5 29t-30.5 72q0 44 30 73.5t75 29.5t75 -29t30 -73zM189 855q0 25 -17 41t-42 16t-42 -16.5t-17 -41.5q0 -24 17 -40t42 -16t42 16t17 41z" />
    <glyph glyph-name="hungarumlaut.cap" horiz-adv-x="260" 
d="M-20 764l99 144h136l-141 -144h-94zM185 764l99 144h136l-141 -144h-94z" />
    <glyph glyph-name="dotaccent.cap" horiz-adv-x="260" 
d="M54 843q0 29 22 50.5t54 21.5q33 0 55.5 -20.5t22.5 -51.5t-22.5 -51.5t-55.5 -20.5q-32 0 -54 21.5t-22 50.5z" />
    <glyph glyph-name="commaaccent" horiz-adv-x="260" 
d="M43 -240l65 195h106l-80 -195h-91z" />
    <glyph glyph-name="commaaccent.alt" horiz-adv-x="260" 
d="M217 759l-65 -195h-106l80 195h91z" />
    <glyph glyph-name="zero.denominator" horiz-adv-x="400" 
d="M358 215q0 -105 -40 -163.5t-117 -58.5q-78 0 -118.5 58.5t-40.5 163.5q0 104 40.5 162.5t118.5 58.5q77 0 117 -58.5t40 -162.5zM265 215q0 142 -64 142q-65 0 -65 -142t65 -142q64 0 64 142z" />
    <glyph glyph-name="one.denominator" horiz-adv-x="400" 
d="M170 0v317l-73 -61l-53 62l137 111h83v-429h-94z" />
    <glyph glyph-name="two.denominator" horiz-adv-x="400" 
d="M347 0h-291v76l162 161q36 36 36 70q0 22 -15 35.5t-38 13.5q-25 0 -42 -18.5t-19 -48.5l-88 12q7 59 48 97t101 38q61 0 103.5 -33.5t42.5 -94.5q0 -62 -69 -129l-100 -97h169v-82z" />
    <glyph glyph-name="three.denominator" horiz-adv-x="400" 
d="M354 125q0 -64 -45.5 -98t-107.5 -34q-125 0 -161 112l85 25q19 -58 73 -58q27 0 46 14t19 43q0 56 -88 56h-27v71h28q32 0 53.5 13.5t21.5 43.5q0 21 -14 33t-36 12q-47 0 -59 -53l-86 21q14 48 54 79t91 31q63 0 102.5 -30t39.5 -88q0 -62 -55 -93q66 -25 66 -100z" />
    <glyph glyph-name="four.denominator" horiz-adv-x="400" 
d="M306 0h-86v85h-190v74l179 270h97v-265h58v-79h-58v-85zM220 164v150h-1l-96 -150h97z" />
    <glyph glyph-name="five.denominator" horiz-adv-x="400" 
d="M353 146q0 -69 -45.5 -111t-112.5 -42q-55 0 -94 27.5t-57 78.5l81 28q20 -55 71 -55q30 0 48 18.5t18 49.5q0 34 -22 51.5t-58 17.5q-50 0 -106 -30l7 250h253v-82h-166l-3 -66q19 4 36 4q66 0 108 -37t42 -102z" />
    <glyph glyph-name="six.denominator" horiz-adv-x="400" 
d="M358 145q0 -67 -45 -109.5t-113 -42.5t-113.5 43.5t-45.5 106.5q0 59 43 125l104 161h111l-102 -146l1 -1q10 3 25 3q55 0 95 -40.5t40 -99.5zM267 142q0 30 -18.5 49.5t-48.5 19.5t-49 -19.5t-19 -50.5q0 -28 18.5 -48.5t48.5 -20.5q31 0 49.5 19.5t18.5 50.5z" />
    <glyph glyph-name="seven.denominator" horiz-adv-x="400" 
d="M182 0h-105l172 347h-196v82h297v-74z" />
    <glyph glyph-name="eight.denominator" horiz-adv-x="400" 
d="M352 127q0 -62 -43.5 -98t-108.5 -36t-108.5 36t-43.5 98q0 34 17.5 59.5t46.5 38.5v2q-52 26 -52 87q0 54 40.5 88t99.5 34q60 0 100 -32.5t40 -86.5q0 -61 -50 -90v-2q28 -12 45 -38.5t17 -59.5zM200 359q-21 0 -35 -14t-14 -35t14 -35t35 -14q20 0 34.5 14t14.5 35
t-14.5 35t-34.5 14zM200 188q-25 0 -43 -16t-18 -42t17.5 -42t43.5 -16t43.5 16t17.5 42q0 25 -18 41.5t-43 16.5z" />
    <glyph glyph-name="nine.denominator" horiz-adv-x="400" 
d="M358 287q0 -60 -43 -126l-104 -161h-111l102 146l-1 1q-12 -3 -25 -3q-59 0 -97 41t-38 99q0 67 45 109.5t113 42.5t113.5 -43t45.5 -106zM267 288q0 29 -18.5 49.5t-48.5 20.5q-31 0 -49.5 -19.5t-18.5 -51.5q0 -30 18.5 -49t48.5 -19t49 19.5t19 49.5z" />
    <glyph glyph-name="zero.numerator" horiz-adv-x="400" 
d="M358 494q0 -105 -40 -163.5t-117 -58.5q-78 0 -118.5 58.5t-40.5 163.5q0 104 40.5 162.5t118.5 58.5q77 0 117 -58.5t40 -162.5zM265 494q0 142 -64 142q-65 0 -65 -142t65 -142q64 0 64 142z" />
    <glyph glyph-name="one.numerator" horiz-adv-x="400" 
d="M170 279v317l-73 -61l-53 62l137 111h83v-429h-94z" />
    <glyph glyph-name="two.numerator" horiz-adv-x="400" 
d="M347 279h-291v76l162 161q36 36 36 70q0 22 -15 35.5t-38 13.5q-25 0 -42 -18.5t-19 -48.5l-88 12q7 59 48 97t101 38q61 0 103.5 -33.5t42.5 -94.5q0 -62 -69 -129l-100 -97h169v-82z" />
    <glyph glyph-name="three.numerator" horiz-adv-x="400" 
d="M354 404q0 -64 -45.5 -98t-107.5 -34q-125 0 -161 112l85 25q19 -58 73 -58q27 0 46 14t19 43q0 56 -88 56h-27v71h28q32 0 53.5 13.5t21.5 43.5q0 21 -14 33t-36 12q-47 0 -59 -53l-86 21q14 48 54 79t91 31q63 0 102.5 -30t39.5 -88q0 -62 -55 -93q66 -25 66 -100z" />
    <glyph glyph-name="four.numerator" horiz-adv-x="400" 
d="M306 279h-86v85h-190v74l179 270h97v-265h58v-79h-58v-85zM220 443v150h-1l-96 -150h97z" />
    <glyph glyph-name="five.numerator" horiz-adv-x="400" 
d="M353 425q0 -69 -45.5 -111t-112.5 -42q-55 0 -94 27.5t-57 78.5l81 28q20 -55 71 -55q30 0 48 18.5t18 49.5q0 34 -22 51.5t-58 17.5q-50 0 -106 -30l7 250h253v-82h-166l-3 -66q19 4 36 4q66 0 108 -37t42 -102z" />
    <glyph glyph-name="six.numerator" horiz-adv-x="400" 
d="M358 424q0 -67 -45 -109.5t-113 -42.5t-113.5 43.5t-45.5 106.5q0 59 43 125l104 161h111l-102 -146l1 -1q10 3 25 3q55 0 95 -40.5t40 -99.5zM267 421q0 30 -18.5 49.5t-48.5 19.5t-49 -19.5t-19 -50.5q0 -28 18.5 -48.5t48.5 -20.5q31 0 49.5 19.5t18.5 50.5z" />
    <glyph glyph-name="seven.numerator" horiz-adv-x="400" 
d="M182 279h-105l172 347h-196v82h297v-74z" />
    <glyph glyph-name="eight.numerator" horiz-adv-x="400" 
d="M352 406q0 -62 -43.5 -98t-108.5 -36t-108.5 36t-43.5 98q0 34 17.5 59.5t46.5 38.5v2q-52 26 -52 87q0 54 40.5 88t99.5 34q60 0 100 -32.5t40 -86.5q0 -61 -50 -90v-2q28 -12 45 -38.5t17 -59.5zM200 638q-21 0 -35 -14t-14 -35t14 -35t35 -14q20 0 34.5 14t14.5 35
t-14.5 35t-34.5 14zM200 467q-25 0 -43 -16t-18 -42t17.5 -42t43.5 -16t43.5 16t17.5 42q0 25 -18 41.5t-43 16.5z" />
    <glyph glyph-name="nine.numerator" horiz-adv-x="400" 
d="M358 566q0 -60 -43 -126l-104 -161h-111l102 146l-1 1q-12 -3 -25 -3q-59 0 -97 41t-38 99q0 67 45 109.5t113 42.5t113.5 -43t45.5 -106zM267 567q0 29 -18.5 49.5t-48.5 20.5q-31 0 -49.5 -19.5t-18.5 -51.5q0 -30 18.5 -49t48.5 -19t49 19.5t19 49.5z" />
    <glyph glyph-name="cyrbreve" horiz-adv-x="260" 
d="M130 564q-67 0 -107 37.5t-49 103.5l65 7q5 -34 29.5 -52t61.5 -18t62 18t30 52l64 -13q-8 -64 -48 -99.5t-108 -35.5z" />
    <glyph glyph-name="cyrbreve.cap" horiz-adv-x="260" 
d="M130 764q-65 0 -109 37t-52 102l67 13q5 -34 30.5 -54t63.5 -20t63.5 20t30.5 54l68 -13q-9 -65 -52.5 -102t-109.5 -37z" />
    <glyph glyph-name="tonos.cap" horiz-adv-x="357" 
d="M274 708l-87 -154h-104l43 154h148z" />
    <glyph glyph-name="Xi.alt" horiz-adv-x="643" 
d="M598 0h-543v112h212v198h-178v108h178v178h-222v112h553v-112h-224v-178h180v-108h-180v-198h224v-112z" />
    <glyph glyph-name="alpha.alt" horiz-adv-x="632" 
d="M170 245q0 -62 37 -109.5t103 -47.5q63 0 103 47.5t40 107.5t-40 108.5t-103 48.5q-66 0 -103 -46.5t-37 -108.5zM464 81h-2q-66 -93 -176 -93q-109 0 -174.5 74t-65.5 183q0 108 66.5 180.5t170.5 72.5q61 0 104 -24t64 -57h3v67h117v-349q0 -25 8 -35.5t27 -10.5
q13 0 28 6l4 -93q-30 -10 -69 -10q-92 0 -105 89z" />
    <glyph glyph-name="phi.alt" horiz-adv-x="741" 
d="M309 80v228q0 96 47 141t126 45q61 0 106 -23.5t67.5 -62t33 -77.5t10.5 -79q0 -121 -74 -194t-196 -78v-220h-120v220q-128 8 -195.5 75.5t-67.5 186.5q0 97 42.5 163t96.5 88l74 -75q-39 -14 -67 -58t-28 -118q0 -83 40 -122.5t105 -39.5zM581 252q0 71 -26.5 107
t-62.5 36q-63 0 -63 -86v-229q65 0 108.5 44.5t43.5 127.5z" />
    <glyph glyph-name="alphatonos.alt" horiz-adv-x="632" 
d="M170 245q0 -62 37 -109.5t103 -47.5q63 0 103 47.5t40 107.5t-40 108.5t-103 48.5q-66 0 -103 -46.5t-37 -108.5zM464 81h-2q-66 -93 -176 -93q-109 0 -174.5 74t-65.5 183q0 108 66.5 180.5t170.5 72.5q61 0 104 -24t64 -57h3v67h117v-349q0 -25 8 -35.5t27 -10.5
q13 0 28 6l4 -93q-30 -10 -69 -10q-92 0 -105 89zM449 718l-87 -154h-104l43 154h148z" />
    <glyph glyph-name="uni03A9.alt" horiz-adv-x="735" 
d="M429 138v-36h234v-102h-591v102h233v36q-119 21 -187 96t-68 193q0 128 87.5 213t228.5 85q144 0 231.5 -85.5t87.5 -212.5q0 -71 -24.5 -126.5t-64.5 -88t-81.5 -50.5t-85.5 -24zM177 427q0 -78 52.5 -136.5t136.5 -58.5q87 0 139.5 59.5t52.5 135.5q0 80 -50 137
t-142 57q-88 0 -138.5 -56t-50.5 -138z" />
    <glyph glyph-name="Omega.alt" horiz-adv-x="735" 
d="M429 138v-36h234v-102h-591v102h233v36q-119 21 -187 96t-68 193q0 128 87.5 213t228.5 85q144 0 231.5 -85.5t87.5 -212.5q0 -71 -24.5 -126.5t-64.5 -88t-81.5 -50.5t-85.5 -24zM177 427q0 -78 52.5 -136.5t136.5 -58.5q87 0 139.5 59.5t52.5 135.5q0 80 -50 137
t-142 57q-88 0 -138.5 -56t-50.5 -138z" />
    <glyph glyph-name="Omegatonos.alt" horiz-adv-x="735" 
d="M429 138v-36h234v-102h-591v102h233v36q-119 21 -187 96t-68 193q0 128 87.5 213t228.5 85q144 0 231.5 -85.5t87.5 -212.5q0 -71 -24.5 -126.5t-64.5 -88t-81.5 -50.5t-85.5 -24zM177 427q0 -78 52.5 -136.5t136.5 -58.5q87 0 139.5 59.5t52.5 135.5q0 80 -50 137
t-142 57q-88 0 -138.5 -56t-50.5 -138zM77 708l-87 -154h-104l43 154h148z" />
    <glyph glyph-name="exclam.sc" horiz-adv-x="308" 
d="M214 542v-343h-120v343h120zM76 69q0 32 22.5 54.5t55.5 22.5t55.5 -21.5t22.5 -53.5t-22.5 -54.5t-55.5 -22.5q-32 0 -55 21.5t-23 53.5z" />
    <glyph glyph-name="dollar.sc" horiz-adv-x="516" 
d="M281 610v-68q89 -5 153 -57l-74 -79q-32 36 -79 41v-125q164 -47 164 -163q0 -67 -44.5 -111.5t-119.5 -47.5v-69h-51v69q-105 7 -176 73l83 80q43 -53 93 -55v136q-89 25 -126 61t-37 97q0 62 43 104t120 47v67h51zM281 220v-123q50 6 50 55q0 48 -50 68zM230 335v112
q-24 -3 -37 -18.5t-13 -34.5q0 -42 50 -59z" />
    <glyph glyph-name="percent.sc" horiz-adv-x="725" 
d="M402 129q0 59 42 100.5t101 41.5t100.5 -41.5t41.5 -100.5t-41.5 -100.5t-100.5 -41.5t-101 41.5t-42 100.5zM603 129q0 25 -16.5 41t-41.5 16t-41.5 -16t-16.5 -41t16.5 -41.5t41.5 -16.5t41.5 16.5t16.5 41.5zM38 409q0 59 42 100.5t100 41.5t100 -41.5t42 -100.5
t-41.5 -100t-100.5 -41t-100.5 41t-41.5 100zM238 409q0 25 -16.5 41t-41.5 16t-41.5 -16t-16.5 -41t16.5 -41.5t41.5 -16.5t41.5 16.5t16.5 41.5zM165 11l311 546l78 -39l-311 -546z" />
    <glyph glyph-name="ampersand.sc" horiz-adv-x="579" 
d="M554 282l-101 -151l127 -131h-156l-41 45q-64 -59 -160 -59q-77 0 -132.5 43t-55.5 117q0 99 108 154q-51 56 -51 114q0 70 49 106t115 36q68 0 113 -35.5t45 -100.5q0 -94 -104 -146l67 -68l45 76h132zM256 462q-19 0 -33.5 -14t-14.5 -33q0 -35 36 -72q62 29 62 72
q0 20 -14 33.5t-36 13.5zM310 119l-103 107q-52 -27 -52 -76q0 -29 20 -48t51 -19q55 0 84 36z" />
    <glyph glyph-name="parenleft.sc" horiz-adv-x="277" 
d="M128 271q0 -155 98 -289l-77 -53q-119 164 -119 342t119 342l77 -53q-98 -134 -98 -289z" />
    <glyph glyph-name="parenright.sc" horiz-adv-x="277" 
d="M247 271q0 -178 -119 -342l-77 53q98 134 98 289t-98 289l77 53q119 -164 119 -342z" />
    <glyph glyph-name="bracketleft.sc" horiz-adv-x="277" 
d="M216 -66h-171v674h171v-78h-73v-518h73v-78z" />
    <glyph glyph-name="backslash.sc" horiz-adv-x="318" 
d="M320 -8l-83 -31l-238 589l82 33z" />
    <glyph glyph-name="bracketright.sc" horiz-adv-x="277" 
d="M232 -66h-171v78h73v518h-73v78h171v-674z" />
    <glyph glyph-name="braceleft.sc" horiz-adv-x="277" 
d="M235 -66h-68q-46 0 -77 28t-31 80v137q0 49 -52 49v86q52 0 52 49v137q0 52 31 80t77 28h68v-79h-50q-28 0 -28 -32v-118q0 -48 -24 -74.5t-60 -32.5v-2q36 -6 60 -32.5t24 -74.5v-118q0 -32 28 -32h50v-79z" />
    <glyph glyph-name="slash.sc" horiz-adv-x="318" 
d="M82 -38l-82 30l237 591l82 -32z" />
    <glyph glyph-name="braceright.sc" horiz-adv-x="277" 
d="M110 -66h-68v79h50q28 0 28 32v118q0 48 24 74.5t60 32.5v2q-36 6 -60 32.5t-24 74.5v118q0 32 -28 32h-50v79h68q46 0 77 -28t31 -80v-137q0 -49 52 -49v-86q-52 0 -52 -49v-137q0 -52 -31 -80t-77 -28z" />
    <glyph glyph-name="zero.sc" horiz-adv-x="516" 
d="M466 271q0 -136 -56 -210.5t-152 -74.5q-97 0 -152.5 74.5t-55.5 210.5t55.5 210.5t152.5 74.5q96 0 152 -74.5t56 -210.5zM346 271q0 80 -23.5 129.5t-64.5 49.5t-64.5 -49.5t-23.5 -129.5t23.5 -128.5t64.5 -48.5q42 0 65 48t23 129z" />
    <glyph glyph-name="one.sc" horiz-adv-x="516" 
d="M235 0v392l-98 -82l-70 80l186 152h101v-542h-119z" />
    <glyph glyph-name="two.sc" horiz-adv-x="516" 
d="M73 0v98l184 179q60 57 60 110q0 27 -17 46.5t-49 19.5q-29 0 -49 -20.5t-26 -57.5l-111 16q10 72 61.5 118.5t126.5 46.5q79 0 131.5 -42.5t52.5 -117.5q0 -92 -92 -181l-120 -115h216v-100h-368z" />
    <glyph glyph-name="three.sc" horiz-adv-x="516" 
d="M189 236v92h36q96 0 96 69q0 26 -18 43.5t-46 17.5q-26 0 -46 -17t-28 -48l-112 27q16 62 68 99t121 37q78 0 129.5 -39.5t51.5 -111.5q0 -88 -82 -120v-3q96 -27 96 -125q0 -81 -59 -126t-137 -45q-160 0 -209 137l113 35q21 -72 93 -72q33 0 56.5 17.5t23.5 54.5
q0 39 -32.5 58.5t-79.5 19.5h-35z" />
    <glyph glyph-name="four.sc" horiz-adv-x="516" 
d="M287 0v104h-252v94l222 344h142v-343h72v-95h-72v-104h-112zM287 199v209h-3l-129 -209h132z" />
    <glyph glyph-name="five.sc" horiz-adv-x="516" 
d="M425 542v-99h-209l-6 -92q30 7 53 7q84 0 137.5 -48t53.5 -131q0 -87 -56.5 -140t-148.5 -53q-71 0 -122 35.5t-72 97.5l107 39q9 -34 33 -54t54 -20q38 0 62 24t24 64q0 48 -29 70t-73 22q-66 0 -140 -38l17 316h315z" />
    <glyph glyph-name="six.sc" horiz-adv-x="516" 
d="M235 542h144l-140 -198l2 -2q24 9 50 9q74 0 123.5 -46t49.5 -125q0 -85 -60 -139.5t-147 -54.5q-88 0 -146.5 54t-58.5 137t65 182zM173 175q0 -39 25 -63t61 -24t61 24.5t25 64.5q0 39 -25 62.5t-61 23.5t-61 -24t-25 -64z" />
    <glyph glyph-name="seven.sc" horiz-adv-x="516" 
d="M69 438v104h381v-96l-211 -446h-137l224 438h-257z" />
    <glyph glyph-name="eight.sc" horiz-adv-x="516" 
d="M258 556q79 0 130.5 -40.5t51.5 -110.5q0 -82 -71 -117v-2q41 -16 66 -50t25 -80q0 -80 -58 -125t-144 -45t-144 45t-58 125q0 46 25 80.5t66 49.5v2q-33 15 -52 45.5t-19 67.5q0 70 52 112.5t130 42.5zM258 238q-35 0 -57.5 -21.5t-22.5 -56.5t22.5 -56t57.5 -21
q34 0 57 21t23 56q0 34 -23.5 56t-56.5 22zM258 460q-28 0 -46.5 -18t-18.5 -47t18 -46.5t47 -17.5q27 0 46 18t19 46q0 29 -19 47t-46 18z" />
    <glyph glyph-name="nine.sc" horiz-adv-x="516" 
d="M281 0h-144l141 200l-2 2q-24 -9 -50 -9q-74 0 -123.5 46t-49.5 125q0 85 59.5 138.5t146.5 53.5q88 0 146.5 -54t58.5 -137t-65 -182zM344 369q0 39 -25 62t-62 23q-36 0 -60.5 -24t-24.5 -63t25 -62.5t61 -23.5t61 24t25 64z" />
    <glyph glyph-name="question.sc" horiz-adv-x="439" 
d="M142 68q0 32 22.5 54t55.5 22t55.5 -21t22.5 -53t-22.5 -54t-55.5 -22q-32 0 -55 21t-23 53zM277 199h-116v17q0 49 47 93l33 31q31 28 31 62q0 18 -13.5 33t-37.5 15q-53 0 -58 -61l-120 11q9 78 59.5 117t128.5 39q79 0 121.5 -43.5t42.5 -103.5q0 -40 -14.5 -71
t-53.5 -62q-32 -26 -41 -38.5t-9 -34.5v-4z" />
    <glyph glyph-name="a.sc" horiz-adv-x="582" 
d="M-2 0l235 542h117l234 -542h-136l-48 118h-223l-47 -118h-132zM215 214h148l-75 187z" />
    <glyph glyph-name="b.sc" horiz-adv-x="541" 
d="M76 0v542h219q77 0 125.5 -35.5t48.5 -107.5q0 -78 -73 -112v-3q45 -12 70 -44t25 -80q0 -83 -61 -121.5t-151 -38.5h-203zM195 231v-134h80q44 0 68.5 18.5t24.5 52.5q0 63 -80 63h-93zM195 443v-118h74q36 0 56.5 17t20.5 46q0 55 -79 55h-72z" />
    <glyph glyph-name="c.sc" horiz-adv-x="565" 
d="M546 466l-93 -77q-41 58 -115 58q-72 0 -116 -48t-44 -126q0 -76 44 -125.5t115 -49.5q77 0 123 64l96 -73q-76 -103 -223 -103q-131 0 -210 78.5t-79 208.5q0 127 84.5 205t212.5 78q134 0 205 -90z" />
    <glyph glyph-name="d.sc" horiz-adv-x="623" 
d="M76 0v542h205q60 0 111 -14.5t94.5 -44.5t68 -84t24.5 -127q0 -132 -88.5 -202t-213.5 -70h-201zM198 101h64q38 0 69 8t58 26.5t42.5 53.5t15.5 83q0 51 -15 86t-42 53t-58 25t-70 7h-64v-342z" />
    <glyph glyph-name="e.sc" horiz-adv-x="508" 
d="M76 0v542h374v-101h-252v-114h239v-96h-239v-127h265v-104h-387z" />
    <glyph glyph-name="f.sc" horiz-adv-x="484" 
d="M76 0v542h365v-103h-243v-128h229v-98h-229v-213h-122z" />
    <glyph glyph-name="g.sc" horiz-adv-x="615" 
d="M560 316v-284q-94 -46 -215 -46q-134 0 -217.5 80t-83.5 207q0 128 84 205.5t213 77.5q138 0 216 -72l-85 -93q-45 56 -130 56q-76 0 -120 -48t-44 -126t47.5 -127.5t124.5 -49.5q50 0 89 15v111h-110v94h231z" />
    <glyph glyph-name="h.sc" horiz-adv-x="619" 
d="M76 0v542h122v-213h223v213h122v-542h-122v228h-223v-228h-122z" />
    <glyph glyph-name="i.sc" horiz-adv-x="274" 
d="M76 0v542h122v-542h-122z" />
    <glyph glyph-name="j.sc" horiz-adv-x="405" 
d="M339 542v-370q0 -33 -7.5 -63t-25 -59t-53 -46.5t-85.5 -17.5q-127 0 -168 134l113 32q17 -56 54 -56q27 0 38.5 19.5t11.5 61.5v365h122z" />
    <glyph glyph-name="k.sc" horiz-adv-x="569" 
d="M76 0v542h122v-224h2l198 224h161l-243 -252l256 -290h-164l-208 254h-2v-254h-122z" />
    <glyph glyph-name="l.sc" horiz-adv-x="433" 
d="M76 0v542h122v-435h221v-107h-343z" />
    <glyph glyph-name="m.sc" horiz-adv-x="746" 
d="M76 0v542h174l126 -359h3l123 359h168v-542h-115v385h-2l-138 -385h-85l-138 385h-2v-385h-114z" />
    <glyph glyph-name="n.sc" horiz-adv-x="634" 
d="M76 0v542h148l215 -374h2v374h117v-542h-148l-215 375h-2v-375h-117z" />
    <glyph glyph-name="o.sc" horiz-adv-x="684" 
d="M44 273q0 127 84.5 205t212.5 78q130 0 214.5 -77.5t84.5 -205.5q0 -126 -85 -206.5t-214 -80.5q-127 0 -212 80.5t-85 206.5zM176 273q0 -80 45.5 -127.5t119.5 -47.5q75 0 120.5 47.5t45.5 127.5q0 77 -45.5 125.5t-120.5 48.5q-74 0 -119.5 -48.5t-45.5 -125.5z" />
    <glyph glyph-name="p.sc" horiz-adv-x="500" 
d="M76 0v542h184q100 0 155 -42t55 -121q0 -84 -56 -129.5t-157 -45.5h-62v-204h-119zM195 300h52q101 0 101 75q0 68 -93 68h-60v-143z" />
    <glyph glyph-name="q.sc" horiz-adv-x="679" 
d="M662 100v-100h-327q-133 0 -212 72.5t-79 204.5q0 122 83 200.5t209 78.5q127 0 209 -73.5t82 -196.5q0 -116 -79 -183v-3h114zM336 447q-68 0 -114 -48t-46 -122q0 -81 45 -129t115 -48q73 0 116.5 47.5t43.5 129.5q0 75 -45.5 122.5t-114.5 47.5z" />
    <glyph glyph-name="r.sc" horiz-adv-x="529" 
d="M76 0v542h197q91 0 148.5 -39.5t57.5 -123.5q0 -56 -29.5 -95.5t-75.5 -54.5l129 -229h-144l-108 211h-53v-211h-122zM198 304h62q96 0 96 74q0 65 -88 65h-70v-139z" />
    <glyph glyph-name="s.sc" horiz-adv-x="492" 
d="M448 474l-83 -79q-18 25 -48.5 42t-64.5 17q-35 0 -58.5 -13.5t-23.5 -42.5q0 -28 24.5 -42t86.5 -29q33 -8 58.5 -18.5t52 -28.5t41 -47t14.5 -66q0 -92 -61 -136.5t-153 -44.5q-61 0 -118 23t-93 65l85 86q21 -30 56 -48.5t75 -18.5q34 0 58 14.5t24 46.5
q0 31 -25.5 46t-91.5 31q-70 17 -111 51t-41 102q0 84 60 128t144 44q58 0 110.5 -21t82.5 -61z" />
    <glyph glyph-name="t.sc" horiz-adv-x="446" 
d="M162 0v439h-158v103h438v-103h-158v-439h-122z" />
    <glyph glyph-name="u.sc" horiz-adv-x="595" 
d="M525 542v-339q0 -100 -65 -158.5t-163 -58.5t-162.5 58.5t-64.5 158.5v339h122v-330q0 -52 27 -84t78 -32q52 0 79 32t27 84v330h122z" />
    <glyph glyph-name="v.sc" horiz-adv-x="528" 
d="M210 0l-214 542h132l136 -381h4l138 381h126l-217 -542h-105z" />
    <glyph glyph-name="w.sc" horiz-adv-x="826" 
d="M171 0l-165 542h135l98 -380h2l105 380h135l106 -380h2l100 380h131l-164 -542h-132l-110 374h-2l-110 -374h-131z" />
    <glyph glyph-name="x.sc" horiz-adv-x="524" 
d="M0 0l186 287l-169 255h145l100 -167l99 167h138l-167 -258l192 -284h-151l-116 188l-112 -188h-145z" />
    <glyph glyph-name="y.sc" horiz-adv-x="510" 
d="M194 0v221l-202 321h143l123 -219l122 219h138l-202 -321v-221h-122z" />
    <glyph glyph-name="z.sc" horiz-adv-x="523" 
d="M50 0v98l276 345h-273v99h417v-101l-273 -341h276v-100h-423z" />
    <glyph glyph-name="agrave.sc" horiz-adv-x="582" 
d="M-2 0l235 542h117l234 -542h-136l-48 118h-223l-47 -118h-132zM215 214h148l-75 187zM250 738l99 -144h-94l-141 144h136z" />
    <glyph glyph-name="aacute.sc" horiz-adv-x="582" 
d="M-2 0l235 542h117l234 -542h-136l-48 118h-223l-47 -118h-132zM215 214h148l-75 187zM234 594l99 144h136l-141 -144h-94z" />
    <glyph glyph-name="acircumflex.sc" horiz-adv-x="582" 
d="M-2 0l235 542h117l234 -542h-136l-48 118h-223l-47 -118h-132zM215 214h148l-75 187zM471 594h-114l-69 90l-69 -90h-112l115 144h135z" />
    <glyph glyph-name="atilde.sc" horiz-adv-x="582" 
d="M-2 0l235 542h117l234 -542h-136l-48 118h-223l-47 -118h-132zM215 214h148l-75 187zM172 598h-66q11 58 32 88q29 39 80 39q36 0 79 -18q45 -19 65 -19q33 0 46 42h66q-22 -127 -112 -127q-37 0 -82 20q-39 18 -62 18q-32 0 -46 -43z" />
    <glyph glyph-name="adieresis.sc" horiz-adv-x="582" 
d="M-2 0l235 542h117l234 -542h-136l-48 118h-223l-47 -118h-132zM215 214h148l-75 187zM121 674q0 28 20.5 49t50.5 21q31 0 52 -20t21 -50t-21 -50t-52 -20q-30 0 -50.5 21t-20.5 49zM317 674q0 28 20.5 49t50.5 21q31 0 52 -20t21 -50t-21 -50t-52 -20q-30 0 -50.5 21
t-20.5 49z" />
    <glyph glyph-name="amacron.sc" horiz-adv-x="582" 
d="M-2 0l235 542h117l234 -542h-136l-48 118h-223l-47 -118h-132zM215 214h148l-75 187zM448 703v-78h-320v78h320z" />
    <glyph glyph-name="abreve.sc" horiz-adv-x="582" 
d="M-2 0l235 542h117l234 -542h-136l-48 118h-223l-47 -118h-132zM215 214h148l-75 187zM119 738h67q12 -66 103 -66q46 0 70 13t34 53h66q-7 -72 -52.5 -108t-118.5 -36q-74 0 -119.5 36t-49.5 108z" />
    <glyph glyph-name="aring.sc" horiz-adv-x="582" 
d="M-2 0l235 542h117l234 -542h-136l-48 118h-223l-47 -118h-132zM215 214h148l-75 187zM396 685q0 -44 -30 -73t-75 -29q-44 0 -74.5 29t-30.5 72q0 44 30 73.5t75 29.5t75 -29t30 -73zM350 685q0 25 -17 41t-42 16t-42 -16.5t-17 -41.5q0 -24 17 -40t42 -16t42 16t17 41z
" />
    <glyph glyph-name="aogonek.sc" horiz-adv-x="582" 
d="M526 -153l25 -49q-48 -38 -100 -38q-42 0 -72.5 24t-30.5 65q0 39 30.5 80t69.5 71l-48 118h-223l-47 -118h-132l235 542h117l234 -542h-75q-30 -26 -56.5 -62.5t-26.5 -65.5q0 -19 13.5 -32.5t32.5 -13.5q30 0 54 21zM215 214h148l-75 187z" />
    <glyph glyph-name="ae.sc" horiz-adv-x="857" 
d="M799 542v-101h-252v-114h239v-96h-239v-127h265v-104h-387v125h-206l-76 -125h-147l342 542h461zM276 219h149v224h-13z" />
    <glyph glyph-name="cacute.sc" horiz-adv-x="565" 
d="M546 466l-93 -77q-41 58 -115 58q-72 0 -116 -48t-44 -126q0 -76 44 -125.5t115 -49.5q77 0 123 64l96 -73q-76 -103 -223 -103q-131 0 -210 78.5t-79 208.5q0 127 84.5 205t212.5 78q134 0 205 -90zM249 594l99 144h136l-141 -144h-94z" />
    <glyph glyph-name="ccircumflex.sc" horiz-adv-x="565" 
d="M546 466l-93 -77q-41 58 -115 58q-72 0 -116 -48t-44 -126q0 -76 44 -125.5t115 -49.5q77 0 123 64l96 -73q-76 -103 -223 -103q-131 0 -210 78.5t-79 208.5q0 127 84.5 205t212.5 78q134 0 205 -90zM522 594h-114l-69 90l-69 -90h-112l115 144h135z" />
    <glyph glyph-name="ccaron.sc" horiz-adv-x="565" 
d="M546 466l-93 -77q-41 58 -115 58q-72 0 -116 -48t-44 -126q0 -76 44 -125.5t115 -49.5q77 0 123 64l96 -73q-76 -103 -223 -103q-131 0 -210 78.5t-79 208.5q0 127 84.5 205t212.5 78q134 0 205 -90zM157 738h114l69 -90l69 90h110l-115 -144h-133z" />
    <glyph glyph-name="cdotaccent.sc" horiz-adv-x="565" 
d="M546 466l-93 -77q-41 58 -115 58q-72 0 -116 -48t-44 -126q0 -76 44 -125.5t115 -49.5q77 0 123 64l96 -73q-76 -103 -223 -103q-131 0 -210 78.5t-79 208.5q0 127 84.5 205t212.5 78q134 0 205 -90zM260 673q0 29 22 50.5t54 21.5q33 0 55.5 -20.5t22.5 -51.5
t-22.5 -51.5t-55.5 -20.5q-32 0 -54 21.5t-22 50.5z" />
    <glyph glyph-name="ccedilla.sc" horiz-adv-x="565" 
d="M546 466l-93 -77q-41 58 -115 58q-72 0 -116 -48t-44 -126q0 -76 44 -125.5t115 -49.5q77 0 123 64l96 -73q-73 -99 -211 -103l-35 -50q8 1 19 1q105 0 105 -83q0 -50 -41 -72t-95 -22q-61 0 -110 26l23 48q38 -20 82 -20q57 0 57 41q0 36 -53 36q-21 0 -39 -6l-23 25
l54 79q-113 13 -179 89t-66 195q0 127 84.5 205t212.5 78q134 0 205 -90z" />
    <glyph glyph-name="dcaron.sc" horiz-adv-x="623" 
d="M76 0v542h205q60 0 111 -14.5t94.5 -44.5t68 -84t24.5 -127q0 -132 -88.5 -202t-213.5 -70h-201zM198 101h64q38 0 69 8t58 26.5t42.5 53.5t15.5 83q0 51 -15 86t-42 53t-58 25t-70 7h-64v-342zM109 738h114l69 -90l69 90h110l-115 -144h-133z" />
    <glyph glyph-name="dcroat.sc" horiz-adv-x="623" 
d="M76 0v245h-67v82h67v215h205q60 0 111 -14.5t94.5 -44.5t68 -84t24.5 -127q0 -132 -88.5 -202t-213.5 -70h-201zM198 101h64q38 0 69 8t58 26.5t42.5 53.5t15.5 83q0 51 -15 86t-42 53t-58 25t-70 7h-64v-116h124v-82h-124v-144z" />
    <glyph glyph-name="eth.sc" horiz-adv-x="623" 
d="M76 0v245h-67v82h67v215h205q60 0 111 -14.5t94.5 -44.5t68 -84t24.5 -127q0 -132 -88.5 -202t-213.5 -70h-201zM198 101h64q38 0 69 8t58 26.5t42.5 53.5t15.5 83q0 51 -15 86t-42 53t-58 25t-70 7h-64v-116h124v-82h-124v-144z" />
    <glyph glyph-name="egrave.sc" horiz-adv-x="508" 
d="M76 0v542h374v-101h-252v-114h239v-96h-239v-127h265v-104h-387zM266 738l99 -144h-94l-141 144h136z" />
    <glyph glyph-name="eacute.sc" horiz-adv-x="508" 
d="M76 0v542h374v-101h-252v-114h239v-96h-239v-127h265v-104h-387zM186 594l99 144h136l-141 -144h-94z" />
    <glyph glyph-name="ecircumflex.sc" horiz-adv-x="508" 
d="M76 0v542h374v-101h-252v-114h239v-96h-239v-127h265v-104h-387zM445 594h-114l-69 90l-69 -90h-112l115 144h135z" />
    <glyph glyph-name="ecaron.sc" horiz-adv-x="508" 
d="M76 0v542h374v-101h-252v-114h239v-96h-239v-127h265v-104h-387zM85 738h114l69 -90l69 90h110l-115 -144h-133z" />
    <glyph glyph-name="edieresis.sc" horiz-adv-x="508" 
d="M76 0v542h374v-101h-252v-114h239v-96h-239v-127h265v-104h-387zM95 674q0 28 20.5 49t50.5 21q31 0 52 -20t21 -50t-21 -50t-52 -20q-30 0 -50.5 21t-20.5 49zM291 674q0 28 20.5 49t50.5 21q31 0 52 -20t21 -50t-21 -50t-52 -20q-30 0 -50.5 21t-20.5 49z" />
    <glyph glyph-name="emacron.sc" horiz-adv-x="508" 
d="M76 0v542h374v-101h-252v-114h239v-96h-239v-127h265v-104h-387zM422 703v-78h-320v78h320z" />
    <glyph glyph-name="ebreve.sc" horiz-adv-x="508" 
d="M76 0v542h374v-101h-252v-114h239v-96h-239v-127h265v-104h-387zM94 738h67q12 -66 103 -66q46 0 70 13t34 53h66q-7 -72 -52.5 -108t-118.5 -36q-74 0 -119.5 36t-49.5 108z" />
    <glyph glyph-name="edotaccent.sc" horiz-adv-x="508" 
d="M76 0v542h374v-101h-252v-114h239v-96h-239v-127h265v-104h-387zM192 673q0 29 22 50.5t54 21.5q33 0 55.5 -20.5t22.5 -51.5t-22.5 -51.5t-55.5 -20.5q-32 0 -54 21.5t-22 50.5z" />
    <glyph glyph-name="eogonek.sc" horiz-adv-x="508" 
d="M76 0v542h374v-101h-252v-114h239v-96h-239v-127h265v-104h-19q-30 -26 -56.5 -62.5t-26.5 -65.5q0 -19 13.5 -32.5t32.5 -13.5q29 0 54 21l25 -49q-48 -38 -100 -38q-42 0 -72.5 24t-30.5 65q0 39 30.5 80t69.5 71h-307z" />
    <glyph glyph-name="gcircumflex.sc" horiz-adv-x="615" 
d="M560 316v-284q-94 -46 -215 -46q-134 0 -217.5 80t-83.5 207q0 128 84 205.5t213 77.5q138 0 216 -72l-85 -93q-45 56 -130 56q-76 0 -120 -48t-44 -126t47.5 -127.5t124.5 -49.5q50 0 89 15v111h-110v94h231zM529 594h-114l-69 90l-69 -90h-112l115 144h135z" />
    <glyph glyph-name="gbreve.sc" horiz-adv-x="615" 
d="M560 316v-284q-94 -46 -215 -46q-134 0 -217.5 80t-83.5 207q0 128 84 205.5t213 77.5q138 0 216 -72l-85 -93q-45 56 -130 56q-76 0 -120 -48t-44 -126t47.5 -127.5t124.5 -49.5q50 0 89 15v111h-110v94h231zM176 738h67q12 -66 103 -66q46 0 70 13t34 53h66
q-7 -72 -52.5 -108t-118.5 -36q-74 0 -119.5 36t-49.5 108z" />
    <glyph glyph-name="gdotaccent.sc" horiz-adv-x="615" 
d="M560 316v-284q-94 -46 -215 -46q-134 0 -217.5 80t-83.5 207q0 128 84 205.5t213 77.5q138 0 216 -72l-85 -93q-45 56 -130 56q-76 0 -120 -48t-44 -126t47.5 -127.5t124.5 -49.5q50 0 89 15v111h-110v94h231zM268 673q0 29 22 50.5t54 21.5q33 0 55.5 -20.5t22.5 -51.5
t-22.5 -51.5t-55.5 -20.5q-32 0 -54 21.5t-22 50.5z" />
    <glyph glyph-name="gcommaaccent.sc" horiz-adv-x="615" 
d="M560 316v-284q-94 -46 -215 -46q-134 0 -217.5 80t-83.5 207q0 128 84 205.5t213 77.5q138 0 216 -72l-85 -93q-45 56 -130 56q-76 0 -120 -48t-44 -126t47.5 -127.5t124.5 -49.5q50 0 89 15v111h-110v94h231zM234 -240l65 195h106l-80 -195h-91z" />
    <glyph glyph-name="kgreenlandic.sc" horiz-adv-x="569" 
d="M76 0v542h122v-224h2l198 224h161l-243 -252l256 -290h-164l-208 254h-2v-254h-122z" />
    <glyph glyph-name="hcircumflex.sc" horiz-adv-x="619" 
d="M76 0v542h122v-213h223v213h122v-542h-122v228h-223v-228h-122zM492 594h-114l-69 90l-69 -90h-112l115 144h135z" />
    <glyph glyph-name="hbar.sc" horiz-adv-x="619" 
d="M76 0v542h122v-82h223v82h122v-542h-122v228h-223v-228h-122zM198 324h223v76h-223v-76z" />
    <glyph glyph-name="igrave.sc" horiz-adv-x="274" 
d="M76 0v542h122v-542h-122zM98 738l99 -144h-94l-141 144h136z" />
    <glyph glyph-name="iacute.sc" horiz-adv-x="274" 
d="M76 0v542h122v-542h-122zM81 594l99 144h136l-141 -144h-94z" />
    <glyph glyph-name="ibreve.sc" horiz-adv-x="274" 
d="M76 0v542h122v-542h-122zM-33 738h67q12 -66 103 -66q46 0 70 13t34 53h66q-7 -72 -52.5 -108t-118.5 -36q-74 0 -119.5 36t-49.5 108z" />
    <glyph glyph-name="icircumflex.sc" horiz-adv-x="274" 
d="M76 0v542h122v-542h-122zM320 594h-114l-69 90l-69 -90h-112l115 144h135z" />
    <glyph glyph-name="itilde.sc" horiz-adv-x="274" 
d="M76 0v542h122v-542h-122zM21 598h-66q11 58 32 88q29 39 80 39q36 0 79 -18q45 -19 65 -19q33 0 46 42h66q-22 -127 -112 -127q-37 0 -82 20q-39 18 -62 18q-32 0 -46 -43z" />
    <glyph glyph-name="idieresis.sc" horiz-adv-x="274" 
d="M76 0v542h122v-542h-122zM-32 674q0 28 20.5 49t50.5 21q31 0 52 -20t21 -50t-21 -50t-52 -20q-30 0 -50.5 21t-20.5 49zM164 674q0 28 20.5 49t50.5 21q31 0 52 -20t21 -50t-21 -50t-52 -20q-30 0 -50.5 21t-20.5 49z" />
    <glyph glyph-name="imacron.sc" horiz-adv-x="274" 
d="M76 0v542h122v-542h-122zM299 703v-78h-320v78h320z" />
    <glyph glyph-name="idotaccent.sc" horiz-adv-x="274" 
d="M76 0v542h122v-542h-122zM54 673q0 29 22 50.5t54 21.5q33 0 55.5 -20.5t22.5 -51.5t-22.5 -51.5t-55.5 -20.5q-32 0 -54 21.5t-22 50.5z" />
    <glyph glyph-name="iogonek.sc" horiz-adv-x="274" 
d="M76 0v542h122v-542q-30 -26 -56.5 -62.5t-26.5 -65.5q0 -19 13.5 -32.5t32.5 -13.5q29 0 54 21l25 -49q-48 -38 -100 -38q-42 0 -72.5 24t-30.5 65q0 39 30.5 80t69.5 71h-61z" />
    <glyph glyph-name="jcircumflex.sc" horiz-adv-x="405" 
d="M339 542v-370q0 -33 -7.5 -63t-25 -59t-53 -46.5t-85.5 -17.5q-127 0 -168 134l113 32q17 -56 54 -56q27 0 38.5 19.5t11.5 61.5v365h122zM461 594h-114l-69 90l-69 -90h-112l115 144h135z" />
    <glyph glyph-name="kcommaaccent.sc" horiz-adv-x="569" 
d="M76 0v542h122v-224h2l198 224h161l-243 -252l256 -290h-164l-208 254h-2v-254h-122zM184 -240l65 195h106l-80 -195h-91z" />
    <glyph glyph-name="lacute.sc" horiz-adv-x="433" 
d="M76 0v542h122v-435h221v-107h-343zM90 594l99 144h136l-141 -144h-94z" />
    <glyph glyph-name="lcaron.sc" horiz-adv-x="433" 
d="M76 0v542h122v-435h221v-107h-343zM250 347l65 195h106l-80 -195h-91z" />
    <glyph glyph-name="lcommaaccent.sc" horiz-adv-x="433" 
d="M76 0v542h122v-435h221v-107h-343zM141 -240l65 195h106l-80 -195h-91z" />
    <glyph glyph-name="lslash.sc" horiz-adv-x="433" 
d="M76 0v197l-66 -56v108l66 56v237h122v-134l108 92v-107l-108 -92v-196h221v-105h-343z" />
    <glyph glyph-name="ldot.sc" horiz-adv-x="433" 
d="M76 0v542h122v-435h221v-107h-343zM267 313q0 29 22 50.5t54 21.5q33 0 55.5 -20.5t22.5 -51.5t-22.5 -51.5t-55.5 -20.5q-32 0 -54 21.5t-22 50.5z" />
    <glyph glyph-name="nacute.sc" horiz-adv-x="634" 
d="M76 0v542h148l215 -374h2v374h117v-542h-148l-215 375h-2v-375h-117zM245 594l99 144h136l-141 -144h-94z" />
    <glyph glyph-name="ncaron.sc" horiz-adv-x="634" 
d="M76 0v542h148l215 -374h2v374h117v-542h-148l-215 375h-2v-375h-117zM138 738h114l69 -90l69 90h110l-115 -144h-133z" />
    <glyph glyph-name="ntilde.sc" horiz-adv-x="634" 
d="M76 0v542h148l215 -374h2v374h117v-542h-148l-215 375h-2v-375h-117zM196 598h-66q11 58 32 88q29 39 80 39q36 0 79 -18q45 -19 65 -19q33 0 46 42h66q-22 -127 -112 -127q-37 0 -82 20q-39 18 -62 18q-32 0 -46 -43z" />
    <glyph glyph-name="ncommaaccent.sc" horiz-adv-x="634" 
d="M76 0v542h148l215 -374h2v374h117v-542h-148l-215 375h-2v-375h-117zM215 -240l65 195h106l-80 -195h-91z" />
    <glyph glyph-name="ograve.sc" horiz-adv-x="684" 
d="M44 273q0 127 84.5 205t212.5 78q130 0 214.5 -77.5t84.5 -205.5q0 -126 -85 -206.5t-214 -80.5q-127 0 -212 80.5t-85 206.5zM176 273q0 -80 45.5 -127.5t119.5 -47.5q75 0 120.5 47.5t45.5 127.5q0 77 -45.5 125.5t-120.5 48.5q-74 0 -119.5 -48.5t-45.5 -125.5z
M299 738l99 -144h-94l-141 144h136z" />
    <glyph glyph-name="oacute.sc" horiz-adv-x="684" 
d="M44 273q0 127 84.5 205t212.5 78q130 0 214.5 -77.5t84.5 -205.5q0 -126 -85 -206.5t-214 -80.5q-127 0 -212 80.5t-85 206.5zM176 273q0 -80 45.5 -127.5t119.5 -47.5q75 0 120.5 47.5t45.5 127.5q0 77 -45.5 125.5t-120.5 48.5q-74 0 -119.5 -48.5t-45.5 -125.5z
M274 594l99 144h136l-141 -144h-94z" />
    <glyph glyph-name="ocircumflex.sc" horiz-adv-x="684" 
d="M44 273q0 127 84.5 205t212.5 78q130 0 214.5 -77.5t84.5 -205.5q0 -126 -85 -206.5t-214 -80.5q-127 0 -212 80.5t-85 206.5zM176 273q0 -80 45.5 -127.5t119.5 -47.5q75 0 120.5 47.5t45.5 127.5q0 77 -45.5 125.5t-120.5 48.5q-74 0 -119.5 -48.5t-45.5 -125.5z
M522 594h-114l-69 90l-69 -90h-112l115 144h135z" />
    <glyph glyph-name="otilde.sc" horiz-adv-x="684" 
d="M44 273q0 127 84.5 205t212.5 78q130 0 214.5 -77.5t84.5 -205.5q0 -126 -85 -206.5t-214 -80.5q-127 0 -212 80.5t-85 206.5zM176 273q0 -80 45.5 -127.5t119.5 -47.5q75 0 120.5 47.5t45.5 127.5q0 77 -45.5 125.5t-120.5 48.5q-74 0 -119.5 -48.5t-45.5 -125.5z
M222 598h-66q11 58 32 88q29 39 80 39q36 0 79 -18q45 -19 65 -19q33 0 46 42h66q-22 -127 -112 -127q-37 0 -82 20q-39 18 -62 18q-32 0 -46 -43z" />
    <glyph glyph-name="odieresis.sc" horiz-adv-x="684" 
d="M44 273q0 127 84.5 205t212.5 78q130 0 214.5 -77.5t84.5 -205.5q0 -126 -85 -206.5t-214 -80.5q-127 0 -212 80.5t-85 206.5zM176 273q0 -80 45.5 -127.5t119.5 -47.5q75 0 120.5 47.5t45.5 127.5q0 77 -45.5 125.5t-120.5 48.5q-74 0 -119.5 -48.5t-45.5 -125.5z
M170 674q0 28 20.5 49t50.5 21q31 0 52 -20t21 -50t-21 -50t-52 -20q-30 0 -50.5 21t-20.5 49zM366 674q0 28 20.5 49t50.5 21q31 0 52 -20t21 -50t-21 -50t-52 -20q-30 0 -50.5 21t-20.5 49z" />
    <glyph glyph-name="omacron.sc" horiz-adv-x="684" 
d="M44 273q0 127 84.5 205t212.5 78q130 0 214.5 -77.5t84.5 -205.5q0 -126 -85 -206.5t-214 -80.5q-127 0 -212 80.5t-85 206.5zM176 273q0 -80 45.5 -127.5t119.5 -47.5q75 0 120.5 47.5t45.5 127.5q0 77 -45.5 125.5t-120.5 48.5q-74 0 -119.5 -48.5t-45.5 -125.5z
M502 703v-78h-320v78h320z" />
    <glyph glyph-name="obreve.sc" horiz-adv-x="684" 
d="M44 273q0 127 84.5 205t212.5 78q130 0 214.5 -77.5t84.5 -205.5q0 -126 -85 -206.5t-214 -80.5q-127 0 -212 80.5t-85 206.5zM176 273q0 -80 45.5 -127.5t119.5 -47.5q75 0 120.5 47.5t45.5 127.5q0 77 -45.5 125.5t-120.5 48.5q-74 0 -119.5 -48.5t-45.5 -125.5z
M172 738h67q12 -66 103 -66q46 0 70 13t34 53h66q-7 -72 -52.5 -108t-118.5 -36q-74 0 -119.5 36t-49.5 108z" />
    <glyph glyph-name="ohungarumlaut.sc" horiz-adv-x="684" 
d="M44 273q0 127 84.5 205t212.5 78q130 0 214.5 -77.5t84.5 -205.5q0 -126 -85 -206.5t-214 -80.5q-127 0 -212 80.5t-85 206.5zM176 273q0 -80 45.5 -127.5t119.5 -47.5q75 0 120.5 47.5t45.5 127.5q0 77 -45.5 125.5t-120.5 48.5q-74 0 -119.5 -48.5t-45.5 -125.5z
M197 594l99 144h136l-141 -144h-94zM402 594l99 144h136l-141 -144h-94z" />
    <glyph glyph-name="oslash.sc" horiz-adv-x="684" 
d="M597 571l43 -40l-69 -70q69 -78 69 -188q0 -126 -85 -206.5t-214 -80.5q-101 0 -179 54l-69 -73l-41 41l67 69q-75 78 -75 196q0 127 84.5 205t212.5 78q108 0 188 -56zM170 273q0 -63 31 -111l248 255q-46 36 -108 36q-77 0 -124 -50.5t-47 -129.5zM513 273q0 55 -26 99
l-244 -252q38 -28 98 -28q77 0 124.5 49.5t47.5 131.5z" />
    <glyph glyph-name="oe.sc" horiz-adv-x="819" 
d="M761 542v-101h-252v-114h239v-96h-239v-127h265v-104h-432q-128 0 -212 74.5t-84 197.5q0 125 83.5 197.5t212.5 72.5h419zM178 272q0 -78 44.5 -120t119.5 -42h45v324h-45q-75 0 -119.5 -43.5t-44.5 -118.5z" />
    <glyph glyph-name="racute.sc" horiz-adv-x="529" 
d="M76 0v542h197q91 0 148.5 -39.5t57.5 -123.5q0 -56 -29.5 -95.5t-75.5 -54.5l129 -229h-144l-108 211h-53v-211h-122zM198 304h62q96 0 96 74q0 65 -88 65h-70v-139zM180 594l99 144h136l-141 -144h-94z" />
    <glyph glyph-name="rcaron.sc" horiz-adv-x="529" 
d="M76 0v542h197q91 0 148.5 -39.5t57.5 -123.5q0 -56 -29.5 -95.5t-75.5 -54.5l129 -229h-144l-108 211h-53v-211h-122zM198 304h62q96 0 96 74q0 65 -88 65h-70v-139zM81 738h114l69 -90l69 90h110l-115 -144h-133z" />
    <glyph glyph-name="rcommaaccent.sc" horiz-adv-x="529" 
d="M76 0v542h197q91 0 148.5 -39.5t57.5 -123.5q0 -56 -29.5 -95.5t-75.5 -54.5l129 -229h-144l-108 211h-53v-211h-122zM198 304h62q96 0 96 74q0 65 -88 65h-70v-139zM162 -240l65 195h106l-80 -195h-91z" />
    <glyph glyph-name="sacute.sc" horiz-adv-x="492" 
d="M448 474l-83 -79q-18 25 -48.5 42t-64.5 17q-35 0 -58.5 -13.5t-23.5 -42.5q0 -28 24.5 -42t86.5 -29q33 -8 58.5 -18.5t52 -28.5t41 -47t14.5 -66q0 -92 -61 -136.5t-153 -44.5q-61 0 -118 23t-93 65l85 86q21 -30 56 -48.5t75 -18.5q34 0 58 14.5t24 46.5
q0 31 -25.5 46t-91.5 31q-70 17 -111 51t-41 102q0 84 60 128t144 44q58 0 110.5 -21t82.5 -61zM169 594l99 144h136l-141 -144h-94z" />
    <glyph glyph-name="scircumflex.sc" horiz-adv-x="492" 
d="M448 474l-83 -79q-18 25 -48.5 42t-64.5 17q-35 0 -58.5 -13.5t-23.5 -42.5q0 -28 24.5 -42t86.5 -29q33 -8 58.5 -18.5t52 -28.5t41 -47t14.5 -66q0 -92 -61 -136.5t-153 -44.5q-61 0 -118 23t-93 65l85 86q21 -30 56 -48.5t75 -18.5q34 0 58 14.5t24 46.5
q0 31 -25.5 46t-91.5 31q-70 17 -111 51t-41 102q0 84 60 128t144 44q58 0 110.5 -21t82.5 -61zM436 594h-114l-69 90l-69 -90h-112l115 144h135z" />
    <glyph glyph-name="scaron.sc" horiz-adv-x="492" 
d="M448 474l-83 -79q-18 25 -48.5 42t-64.5 17q-35 0 -58.5 -13.5t-23.5 -42.5q0 -28 24.5 -42t86.5 -29q33 -8 58.5 -18.5t52 -28.5t41 -47t14.5 -66q0 -92 -61 -136.5t-153 -44.5q-61 0 -118 23t-93 65l85 86q21 -30 56 -48.5t75 -18.5q34 0 58 14.5t24 46.5
q0 31 -25.5 46t-91.5 31q-70 17 -111 51t-41 102q0 84 60 128t144 44q58 0 110.5 -21t82.5 -61zM74 738h114l69 -90l69 90h110l-115 -144h-133z" />
    <glyph glyph-name="scedilla.sc" horiz-adv-x="492" 
d="M448 474l-83 -79q-18 25 -48.5 42t-64.5 17q-35 0 -58.5 -13.5t-23.5 -42.5q0 -28 24.5 -42t86.5 -29q33 -8 58.5 -18.5t52 -28.5t41 -47t14.5 -66q0 -84 -51.5 -128t-132.5 -51l-36 -52q8 1 19 1q105 0 105 -83q0 -50 -41 -72t-95 -22q-61 0 -110 26l23 48
q38 -20 82 -20q57 0 57 41q0 36 -53 36q-21 0 -39 -6l-23 25l53 78q-119 10 -183 86l85 86q21 -30 56 -48.5t75 -18.5q34 0 58 14.5t24 46.5q0 31 -25.5 46t-91.5 31q-70 17 -111 51t-41 102q0 84 60 128t144 44q58 0 110.5 -21t82.5 -61z" />
    <glyph glyph-name="scommaaccent.sc" horiz-adv-x="492" 
d="M448 474l-83 -79q-18 25 -48.5 42t-64.5 17q-35 0 -58.5 -13.5t-23.5 -42.5q0 -28 24.5 -42t86.5 -29q33 -8 58.5 -18.5t52 -28.5t41 -47t14.5 -66q0 -92 -61 -136.5t-153 -44.5q-61 0 -118 23t-93 65l85 86q21 -30 56 -48.5t75 -18.5q34 0 58 14.5t24 46.5
q0 31 -25.5 46t-91.5 31q-70 17 -111 51t-41 102q0 84 60 128t144 44q58 0 110.5 -21t82.5 -61zM128 -240l65 195h106l-80 -195h-91z" />
    <glyph glyph-name="tcaron.sc" horiz-adv-x="446" 
d="M162 0v439h-158v103h438v-103h-158v-439h-122zM43 738h114l69 -90l69 90h110l-115 -144h-133z" />
    <glyph glyph-name="tcommaaccent.sc" horiz-adv-x="446" 
d="M162 0v439h-158v103h438v-103h-158v-439h-122zM120 -240l65 195h106l-80 -195h-91z" />
    <glyph glyph-name="tbar.sc" horiz-adv-x="446" 
d="M392 345v-75h-108v-270h-122v270h-108v75h108v94h-158v103h438v-103h-158v-94h108z" />
    <glyph glyph-name="thorn.sc" horiz-adv-x="500" 
d="M76 0v542h119v-85h73q202 0 202 -162q0 -77 -56 -120.5t-154 -43.5h-65v-131h-119zM195 226h59q95 0 95 68q0 32 -21 48t-70 16h-63v-132z" />
    <glyph glyph-name="ugrave.sc" horiz-adv-x="595" 
d="M525 542v-339q0 -100 -65 -158.5t-163 -58.5t-162.5 58.5t-64.5 158.5v339h122v-330q0 -52 27 -84t78 -32q52 0 79 32t27 84v330h122zM254 738l99 -144h-94l-141 144h136z" />
    <glyph glyph-name="uacute.sc" horiz-adv-x="595" 
d="M525 542v-339q0 -100 -65 -158.5t-163 -58.5t-162.5 58.5t-64.5 158.5v339h122v-330q0 -52 27 -84t78 -32q52 0 79 32t27 84v330h122zM236 594l99 144h136l-141 -144h-94z" />
    <glyph glyph-name="ucircumflex.sc" horiz-adv-x="595" 
d="M525 542v-339q0 -100 -65 -158.5t-163 -58.5t-162.5 58.5t-64.5 158.5v339h122v-330q0 -52 27 -84t78 -32q52 0 79 32t27 84v330h122zM481 594h-114l-69 90l-69 -90h-112l115 144h135z" />
    <glyph glyph-name="utilde.sc" horiz-adv-x="595" 
d="M525 542v-339q0 -100 -65 -158.5t-163 -58.5t-162.5 58.5t-64.5 158.5v339h122v-330q0 -52 27 -84t78 -32q52 0 79 32t27 84v330h122zM180 598h-66q11 58 32 88q29 39 80 39q36 0 79 -18q45 -19 65 -19q33 0 46 42h66q-22 -127 -112 -127q-37 0 -82 20q-39 18 -62 18
q-32 0 -46 -43z" />
    <glyph glyph-name="udieresis.sc" horiz-adv-x="595" 
d="M525 542v-339q0 -100 -65 -158.5t-163 -58.5t-162.5 58.5t-64.5 158.5v339h122v-330q0 -52 27 -84t78 -32q52 0 79 32t27 84v330h122zM129 674q0 28 20.5 49t50.5 21q31 0 52 -20t21 -50t-21 -50t-52 -20q-30 0 -50.5 21t-20.5 49zM325 674q0 28 20.5 49t50.5 21
q31 0 52 -20t21 -50t-21 -50t-52 -20q-30 0 -50.5 21t-20.5 49z" />
    <glyph glyph-name="umacron.sc" horiz-adv-x="595" 
d="M525 542v-339q0 -100 -65 -158.5t-163 -58.5t-162.5 58.5t-64.5 158.5v339h122v-330q0 -52 27 -84t78 -32q52 0 79 32t27 84v330h122zM456 703v-78h-320v78h320z" />
    <glyph glyph-name="ubreve.sc" horiz-adv-x="595" 
d="M525 542v-339q0 -100 -65 -158.5t-163 -58.5t-162.5 58.5t-64.5 158.5v339h122v-330q0 -52 27 -84t78 -32q52 0 79 32t27 84v330h122zM126 738h67q12 -66 103 -66q46 0 70 13t34 53h66q-7 -72 -52.5 -108t-118.5 -36q-74 0 -119.5 36t-49.5 108z" />
    <glyph glyph-name="uring.sc" horiz-adv-x="595" 
d="M525 542v-339q0 -100 -65 -158.5t-163 -58.5t-162.5 58.5t-64.5 158.5v339h122v-330q0 -52 27 -84t78 -32q52 0 79 32t27 84v330h122zM403 685q0 -44 -30 -73t-75 -29q-44 0 -74.5 29t-30.5 72q0 44 30 73.5t75 29.5t75 -29t30 -73zM357 685q0 25 -17 41t-42 16
t-42 -16.5t-17 -41.5q0 -24 17 -40t42 -16t42 16t17 41z" />
    <glyph glyph-name="uhungarumlaut.sc" horiz-adv-x="595" 
d="M525 542v-339q0 -100 -65 -158.5t-163 -58.5t-162.5 58.5t-64.5 158.5v339h122v-330q0 -52 27 -84t78 -32q52 0 79 32t27 84v330h122zM152 594l99 144h136l-141 -144h-94zM357 594l99 144h136l-141 -144h-94z" />
    <glyph glyph-name="uogonek.sc" horiz-adv-x="595" 
d="M380 -153l25 -49q-48 -38 -100 -38q-42 0 -72.5 24t-30.5 65q0 66 83 137q-94 4 -154.5 61.5t-60.5 155.5v339h122v-330q0 -52 27 -84t78 -32q52 0 79 32t27 84v330h122v-339q0 -85 -47.5 -140t-124.5 -71q-73 -68 -73 -120q0 -19 13.5 -32.5t32.5 -13.5q30 0 54 21z" />
    <glyph glyph-name="wacute.sc" horiz-adv-x="826" 
d="M171 0l-165 542h135l98 -380h2l105 380h135l106 -380h2l100 380h131l-164 -542h-132l-110 374h-2l-110 -374h-131zM354 594l99 144h136l-141 -144h-94z" />
    <glyph glyph-name="wcircumflex.sc" horiz-adv-x="826" 
d="M171 0l-165 542h135l98 -380h2l105 380h135l106 -380h2l100 380h131l-164 -542h-132l-110 374h-2l-110 -374h-131zM595 594h-114l-69 90l-69 -90h-112l115 144h135z" />
    <glyph glyph-name="wdieresis.sc" horiz-adv-x="826" 
d="M171 0l-165 542h135l98 -380h2l105 380h135l106 -380h2l100 380h131l-164 -542h-132l-110 374h-2l-110 -374h-131zM243 674q0 28 20.5 49t50.5 21q31 0 52 -20t21 -50t-21 -50t-52 -20q-30 0 -50.5 21t-20.5 49zM439 674q0 28 20.5 49t50.5 21q31 0 52 -20t21 -50
t-21 -50t-52 -20q-30 0 -50.5 21t-20.5 49z" />
    <glyph glyph-name="wgrave.sc" horiz-adv-x="826" 
d="M171 0l-165 542h135l98 -380h2l105 380h135l106 -380h2l100 380h131l-164 -542h-132l-110 374h-2l-110 -374h-131zM374 738l99 -144h-94l-141 144h136z" />
    <glyph glyph-name="yacute.sc" horiz-adv-x="510" 
d="M194 0v221l-202 321h143l123 -219l122 219h138l-202 -321v-221h-122zM191 594l99 144h136l-141 -144h-94z" />
    <glyph glyph-name="ycircumflex.sc" horiz-adv-x="510" 
d="M194 0v221l-202 321h143l123 -219l122 219h138l-202 -321v-221h-122zM441 594h-114l-69 90l-69 -90h-112l115 144h135z" />
    <glyph glyph-name="ydieresis.sc" horiz-adv-x="510" 
d="M194 0v221l-202 321h143l123 -219l122 219h138l-202 -321v-221h-122zM88 674q0 28 20.5 49t50.5 21q31 0 52 -20t21 -50t-21 -50t-52 -20q-30 0 -50.5 21t-20.5 49zM284 674q0 28 20.5 49t50.5 21q31 0 52 -20t21 -50t-21 -50t-52 -20q-30 0 -50.5 21t-20.5 49z" />
    <glyph glyph-name="ygrave.sc" horiz-adv-x="510" 
d="M194 0v221l-202 321h143l123 -219l122 219h138l-202 -321v-221h-122zM222 738l99 -144h-94l-141 144h136z" />
    <glyph glyph-name="zacute.sc" horiz-adv-x="523" 
d="M50 0v98l276 345h-273v99h417v-101l-273 -341h276v-100h-423zM174 594l99 144h136l-141 -144h-94z" />
    <glyph glyph-name="zcaron.sc" horiz-adv-x="523" 
d="M50 0v98l276 345h-273v99h417v-101l-273 -341h276v-100h-423zM84 738h114l69 -90l69 90h110l-115 -144h-133z" />
    <glyph glyph-name="zdotaccent.sc" horiz-adv-x="523" 
d="M50 0v98l276 345h-273v99h417v-101l-273 -341h276v-100h-423zM188 673q0 29 22 50.5t54 21.5q33 0 55.5 -20.5t22.5 -51.5t-22.5 -51.5t-55.5 -20.5q-32 0 -54 21.5t-22 50.5z" />
    <glyph glyph-name="ij.sc" horiz-adv-x="686" 
d="M76 0v542h122v-542h-122zM620 542v-370q0 -33 -7.5 -63t-25 -59t-53 -46.5t-85.5 -17.5q-127 0 -168 134l113 32q17 -56 54 -56q27 0 38.5 19.5t11.5 61.5v365h122z" />
    <glyph glyph-name="germandbls.sc" horiz-adv-x="984" 
d="M448 474l-83 -79q-18 25 -48.5 42t-64.5 17q-35 0 -58.5 -13.5t-23.5 -42.5q0 -28 24.5 -42t86.5 -29q33 -8 58.5 -18.5t52 -28.5t41 -47t14.5 -66q0 -92 -61 -136.5t-153 -44.5q-61 0 -118 23t-93 65l85 86q21 -30 56 -48.5t75 -18.5q34 0 58 14.5t24 46.5
q0 31 -25.5 46t-91.5 31q-70 17 -111 51t-41 102q0 84 60 128t144 44q58 0 110.5 -21t82.5 -61zM940 474l-83 -79q-18 25 -48.5 42t-64.5 17q-35 0 -58.5 -13.5t-23.5 -42.5q0 -28 24.5 -42t86.5 -29q33 -8 58.5 -18.5t52 -28.5t41 -47t14.5 -66q0 -92 -61 -136.5
t-153 -44.5q-61 0 -118 23t-93 65l85 86q21 -30 56 -48.5t75 -18.5q34 0 58 14.5t24 46.5q0 31 -25.5 46t-91.5 31q-70 17 -111 51t-41 102q0 84 60 128t144 44q58 0 110.5 -21t82.5 -61z" />
    <glyph glyph-name="eng.sc" horiz-adv-x="634" 
d="M76 0v542h148l215 -338h2v338h117v-571q0 -47 -7.5 -82t-25.5 -66t-53.5 -47t-87.5 -16q-30 0 -54 6l10 102q15 -4 33 -4q39 0 52 26.5t13 75.5v24l-243 385h-2v-375h-117z" />
    <glyph glyph-name="grave.sc" horiz-adv-x="260" 
d="M78 738l99 -144h-94l-141 144h136z" />
    <glyph glyph-name="acute.sc" horiz-adv-x="260" 
d="M83 594l99 144h136l-141 -144h-94z" />
    <glyph glyph-name="circumflex.sc" horiz-adv-x="260" 
d="M312 594h-114l-69 90l-69 -90h-112l115 144h135z" />
    <glyph glyph-name="caron.sc" horiz-adv-x="260" 
d="M-51 738h114l69 -90l69 90h110l-115 -144h-133z" />
    <glyph glyph-name="tilde.sc" horiz-adv-x="260" 
d="M12 598h-66q11 58 32 88q29 39 80 39q36 0 79 -18q45 -19 65 -19q33 0 46 42h66q-22 -127 -112 -127q-37 0 -82 20q-39 18 -62 18q-32 0 -46 -43z" />
    <glyph glyph-name="dieresis.sc" horiz-adv-x="260" 
d="M-40 674q0 28 20.5 49t50.5 21q31 0 52 -20t21 -50t-21 -50t-52 -20q-30 0 -50.5 21t-20.5 49zM156 674q0 28 20.5 49t50.5 21q31 0 52 -20t21 -50t-21 -50t-52 -20q-30 0 -50.5 21t-20.5 49z" />
    <glyph glyph-name="macron.sc" horiz-adv-x="260" 
d="M290 703v-78h-320v78h320z" />
    <glyph glyph-name="breve.sc" horiz-adv-x="260" 
d="M-40 738h67q12 -66 103 -66q46 0 70 13t34 53h66q-7 -72 -52.5 -108t-118.5 -36q-74 0 -119.5 36t-49.5 108z" />
    <glyph glyph-name="ring.sc" horiz-adv-x="260" 
d="M235 685q0 -44 -30 -73t-75 -29q-44 0 -74.5 29t-30.5 72q0 44 30 73.5t75 29.5t75 -29t30 -73zM189 685q0 25 -17 41t-42 16t-42 -16.5t-17 -41.5q0 -24 17 -40t42 -16t42 16t17 41z" />
    <glyph glyph-name="hungarumlaut.sc" horiz-adv-x="260" 
d="M-20 594l99 144h136l-141 -144h-94zM185 594l99 144h136l-141 -144h-94z" />
    <glyph glyph-name="dotaccent.sc" horiz-adv-x="260" 
d="M54 673q0 29 22 50.5t54 21.5q33 0 55.5 -20.5t22.5 -51.5t-22.5 -51.5t-55.5 -20.5q-32 0 -54 21.5t-22 50.5z" />
    <glyph glyph-name="exclamdown.sc" horiz-adv-x="308" 
d="M214 0h-120v343h120v-343zM76 473q0 32 23 53.5t55 21.5q33 0 55.5 -22.5t22.5 -54.5t-22.5 -53.5t-55.5 -21.5t-55.5 22.5t-22.5 54.5z" />
    <glyph glyph-name="questiondown.sc" horiz-adv-x="439" 
d="M298 474q0 -32 -22.5 -54t-55.5 -22t-55.5 21t-22.5 53t22.5 54t55.5 22q32 0 55 -21t23 -53zM163 343h116v-17q0 -49 -47 -93l-33 -31q-31 -28 -31 -62q0 -18 13.5 -33t37.5 -15q53 0 58 61l120 -11q-9 -78 -59.5 -117t-128.5 -39q-79 0 -121.5 43.5t-42.5 103.5
q0 40 14.5 71t53.5 62q32 26 41 38.5t9 34.5v4z" />
    <glyph glyph-name="Euro.sc" horiz-adv-x="516" 
d="M438 111l35 -93q-53 -32 -133 -32q-89 0 -152.5 43.5t-88.5 130.5h-79l28 81h37q-1 5 -1 27q0 21 2 31h-60l28 81h45q26 83 92.5 129.5t158.5 46.5q69 0 131 -27l-39 -97q-39 26 -97 26q-44 0 -80 -22t-50 -56h210l-24 -81h-202q-2 -12 -2 -32q0 -16 2 -26h183l-26 -81
h-141q26 -74 129 -74q51 0 94 25z" />
    <glyph glyph-name="cent.sc" horiz-adv-x="516" 
d="M328 559v-67q115 -4 170 -69l-77 -78q-40 42 -93 45v-300q56 0 97 46l73 -79q-60 -65 -170 -69v-72h-54v72q-101 9 -161.5 79.5t-60.5 173.5q0 104 59.5 170.5t162.5 80.5v67h54zM274 90v299q-53 -11 -80.5 -51.5t-27.5 -97.5q0 -54 28 -95.5t80 -54.5z" />
    <glyph glyph-name="sterling.sc" horiz-adv-x="516" 
d="M60 0v100h61v131h-61v82h61v58q0 71 50.5 125.5t139.5 54.5q83 0 143 -51l-68 -79q-33 34 -73 34q-29 0 -50.5 -23t-21.5 -66v-53h110v-82h-110v-131h187v-100h-368z" />
    <glyph glyph-name="florin.sc" horiz-adv-x="516" 
d="M407 344v-88h-95l-30 -168q-16 -92 -60.5 -133t-123.5 -41q-57 0 -92 25l45 88q13 -15 41 -15q34 0 51 23.5t25 71.5l26 149h-76v88h88l12 72q10 64 52.5 99.5t107.5 35.5q59 0 106 -32l-46 -91q-26 19 -57 19q-42 0 -51 -57l-8 -46h85z" />
    <glyph glyph-name="yen.sc" horiz-adv-x="516" 
d="M189 0v93h-123v76h123v55h-123v76h93l-151 242h137l109 -206l110 206h127l-149 -242h88v-76h-123v-55h123v-76h-123v-93h-118z" />
    <glyph glyph-name="perthousand.sc" horiz-adv-x="1051" 
d="M402 129q0 59 42 100.5t101 41.5t100.5 -41.5t41.5 -100.5t-41.5 -100.5t-100.5 -41.5t-101 41.5t-42 100.5zM603 129q0 25 -16.5 41t-41.5 16t-41.5 -16t-16.5 -41t16.5 -41.5t41.5 -16.5t41.5 16.5t16.5 41.5zM38 409q0 59 42 100.5t100 41.5t100 -41.5t42 -100.5
t-41.5 -100t-100.5 -41t-100.5 41t-41.5 100zM238 409q0 25 -16.5 41t-41.5 16t-41.5 -16t-16.5 -41t16.5 -41.5t41.5 -16.5t41.5 16.5t16.5 41.5zM732 129q0 59 42 100.5t101 41.5t100.5 -41.5t41.5 -100.5t-41.5 -100.5t-100.5 -41.5t-101 41.5t-42 100.5zM933 129
q0 25 -16.5 41t-41.5 16t-41.5 -16t-16.5 -41t16.5 -41.5t41.5 -16.5t41.5 16.5t16.5 41.5zM165 11l311 546l78 -39l-311 -546z" />
    <glyph glyph-name="zero.onum" horiz-adv-x="706" 
d="M649 275q0 -128 -84.5 -208.5t-212.5 -80.5q-126 0 -210.5 81t-84.5 208q0 128 84 207t211 79q128 0 212.5 -79t84.5 -207zM525 275q0 78 -48 129.5t-125 51.5t-124 -51.5t-47 -129.5q0 -79 47 -131t124 -52q78 0 125.5 52t47.5 131z" />
    <glyph glyph-name="one.onum" horiz-adv-x="426" 
d="M310 0h-120v408l-94 -76l-65 81l170 133h109v-546z" />
    <glyph glyph-name="two.onum" horiz-adv-x="561" 
d="M502 0h-437v100l56 35q156 100 196 136q57 51 57 102q0 40 -27 64t-77 24q-81 0 -124 -79l-93 51q33 60 91 94t131 34q100 0 160 -46.5t60 -133.5q0 -41 -16.5 -77t-53 -69.5t-65 -54t-82.5 -54.5l-38 -23v-3h262v-100z" />
    </font>
</defs>
</svg>
